G04*
G04 #@! TF.GenerationSoftware,Altium Limited,Altium Designer,22.10.1 (41)*
G04*
G04 Layer_Physical_Order=1*
G04 Layer_Color=255*
%FSLAX44Y44*%
%MOMM*%
G71*
G04*
G04 #@! TF.SameCoordinates,35C75811-A236-4261-A3B1-3B9E0A362E8F*
G04*
G04*
G04 #@! TF.FilePolarity,Positive*
G04*
G01*
G75*
%ADD12C,0.2500*%
G04:AMPARAMS|DCode=17|XSize=0.25mm|YSize=0.7mm|CornerRadius=0.0125mm|HoleSize=0mm|Usage=FLASHONLY|Rotation=270.000|XOffset=0mm|YOffset=0mm|HoleType=Round|Shape=RoundedRectangle|*
%AMROUNDEDRECTD17*
21,1,0.2500,0.6750,0,0,270.0*
21,1,0.2250,0.7000,0,0,270.0*
1,1,0.0250,-0.3375,-0.1125*
1,1,0.0250,-0.3375,0.1125*
1,1,0.0250,0.3375,0.1125*
1,1,0.0250,0.3375,-0.1125*
%
%ADD17ROUNDEDRECTD17*%
G04:AMPARAMS|DCode=18|XSize=0.25mm|YSize=0.7mm|CornerRadius=0.0125mm|HoleSize=0mm|Usage=FLASHONLY|Rotation=0.000|XOffset=0mm|YOffset=0mm|HoleType=Round|Shape=RoundedRectangle|*
%AMROUNDEDRECTD18*
21,1,0.2500,0.6750,0,0,0.0*
21,1,0.2250,0.7000,0,0,0.0*
1,1,0.0250,0.1125,-0.3375*
1,1,0.0250,-0.1125,-0.3375*
1,1,0.0250,-0.1125,0.3375*
1,1,0.0250,0.1125,0.3375*
%
%ADD18ROUNDEDRECTD18*%
G04:AMPARAMS|DCode=19|XSize=2.9mm|YSize=2.9mm|CornerRadius=0.145mm|HoleSize=0mm|Usage=FLASHONLY|Rotation=90.000|XOffset=0mm|YOffset=0mm|HoleType=Round|Shape=RoundedRectangle|*
%AMROUNDEDRECTD19*
21,1,2.9000,2.6100,0,0,90.0*
21,1,2.6100,2.9000,0,0,90.0*
1,1,0.2900,1.3050,1.3050*
1,1,0.2900,1.3050,-1.3050*
1,1,0.2900,-1.3050,-1.3050*
1,1,0.2900,-1.3050,1.3050*
%
%ADD19ROUNDEDRECTD19*%
%ADD20R,0.6000X0.7000*%
%ADD21R,0.6000X1.5000*%
%ADD22R,0.3000X1.5000*%
%ADD23R,0.3000X0.9900*%
G04:AMPARAMS|DCode=24|XSize=0.9mm|YSize=0.8mm|CornerRadius=0.04mm|HoleSize=0mm|Usage=FLASHONLY|Rotation=270.000|XOffset=0mm|YOffset=0mm|HoleType=Round|Shape=RoundedRectangle|*
%AMROUNDEDRECTD24*
21,1,0.9000,0.7200,0,0,270.0*
21,1,0.8200,0.8000,0,0,270.0*
1,1,0.0800,-0.3600,-0.4100*
1,1,0.0800,-0.3600,0.4100*
1,1,0.0800,0.3600,0.4100*
1,1,0.0800,0.3600,-0.4100*
%
%ADD24ROUNDEDRECTD24*%
%ADD25R,0.7000X0.6000*%
%ADD26R,0.9000X0.3000*%
%ADD28R,0.6500X1.0500*%
%ADD29R,1.0500X0.5500*%
%ADD30R,0.2000X0.6000*%
%ADD31R,0.9900X0.3500*%
%ADD51C,0.1565*%
%ADD52R,0.2500X1.6500*%
%ADD53R,2.0000X2.0000*%
%ADD54R,0.5000X3.9400*%
%ADD55R,2.7000X0.5000*%
%ADD56R,0.5000X2.6400*%
%ADD57R,2.0000X0.5000*%
%ADD58R,0.5000X4.9000*%
%ADD59R,5.0000X0.5000*%
%ADD60R,0.9000X4.9000*%
%ADD61C,0.1100*%
%ADD62C,0.1660*%
%ADD63C,0.1250*%
%ADD64C,0.2540*%
%ADD65C,0.5000*%
%ADD66C,0.6000*%
%ADD67O,1.0000X2.2000*%
%ADD68O,1.0000X1.9000*%
%ADD69C,0.5000*%
G36*
X793270Y810960D02*
X796077D01*
X797540Y810960D01*
X797750Y809047D01*
Y802250D01*
X796460Y802040D01*
Y795483D01*
X794612Y794717D01*
X789367Y799963D01*
X789324Y799992D01*
X788040Y801460D01*
Y805730D01*
X782000D01*
X775960D01*
Y802259D01*
X775534Y801974D01*
X774042D01*
X772664Y801404D01*
X771609Y800349D01*
X771038Y798970D01*
Y797479D01*
X771609Y796100D01*
X772664Y795045D01*
X774042Y794474D01*
X775534D01*
X776912Y795045D01*
X777967Y796100D01*
X778269Y796830D01*
X780547D01*
X781883Y794830D01*
X781851Y794753D01*
Y793677D01*
X781502Y792957D01*
X780261Y791874D01*
X779485D01*
X778107Y791303D01*
X777052Y790248D01*
X776481Y788870D01*
Y787378D01*
X777052Y786000D01*
X778107Y784945D01*
X779485Y784374D01*
X780977D01*
X782355Y784945D01*
X782431Y785021D01*
X782586Y784990D01*
X784887D01*
Y780994D01*
X784189D01*
Y780113D01*
X777625D01*
X777338Y779994D01*
X775434Y781152D01*
Y781718D01*
X774863Y783096D01*
X773808Y784151D01*
X772430Y784722D01*
X770938D01*
X769560Y784151D01*
X769419Y784010D01*
X767911Y783422D01*
X766817Y784022D01*
X766501Y784338D01*
X765122Y784909D01*
X763631D01*
X761925Y786367D01*
Y799082D01*
X773960Y811117D01*
X775960Y810288D01*
Y808270D01*
X782000D01*
X788040D01*
Y810960D01*
X790730D01*
Y817000D01*
X793270D01*
Y810960D01*
D02*
G37*
G36*
X928343Y844136D02*
X929759Y841487D01*
X931664Y839164D01*
X933987Y837259D01*
X936636Y835843D01*
X939510Y834971D01*
X942500Y834676D01*
Y834696D01*
X967500D01*
X967544Y834705D01*
X969304Y834355D01*
X970833Y833333D01*
X971855Y831804D01*
X972205Y830044D01*
X972196Y830000D01*
Y580000D01*
X972165D01*
X972000Y579172D01*
X971531Y578469D01*
X970828Y578000D01*
X970000Y577835D01*
Y577804D01*
X928310D01*
X927643Y579413D01*
X926241Y581241D01*
X924413Y582643D01*
X922284Y583525D01*
X922628Y585460D01*
X932540D01*
Y596730D01*
X920000D01*
X907460D01*
Y585460D01*
X917372D01*
X917716Y583525D01*
X915587Y582643D01*
X913759Y581241D01*
X912357Y579413D01*
X911691Y577804D01*
X898078D01*
X897471Y579804D01*
X897756Y579994D01*
X899137Y582061D01*
X899622Y584500D01*
Y593500D01*
X899137Y595939D01*
X897756Y598006D01*
X895689Y599387D01*
X893250Y599872D01*
X890811Y599387D01*
X888744Y598006D01*
X887363Y595939D01*
X886878Y593500D01*
Y584500D01*
X887363Y582061D01*
X888744Y579994D01*
X889028Y579804D01*
X888422Y577804D01*
X811578D01*
X810972Y579804D01*
X811256Y579994D01*
X812637Y582061D01*
X813122Y584500D01*
Y593500D01*
X812637Y595939D01*
X811256Y598006D01*
X809189Y599387D01*
X806750Y599872D01*
X804311Y599387D01*
X802244Y598006D01*
X800863Y595939D01*
X800378Y593500D01*
Y584500D01*
X800863Y582061D01*
X802244Y579994D01*
X802529Y579804D01*
X801922Y577804D01*
X788309D01*
X787643Y579413D01*
X786241Y581241D01*
X784413Y582643D01*
X782284Y583525D01*
X780000Y583825D01*
X777716Y583525D01*
X775587Y582643D01*
X773759Y581241D01*
X772357Y579413D01*
X771690Y577804D01*
X730000Y577804D01*
Y577835D01*
X729172Y578000D01*
X728469Y578469D01*
X728000Y579172D01*
X727835Y580000D01*
X727804D01*
Y830000D01*
X727795Y830044D01*
X728145Y831804D01*
X729167Y833333D01*
X730696Y834355D01*
X732456Y834705D01*
X732500Y834696D01*
X757500D01*
Y834676D01*
X760490Y834971D01*
X763364Y835843D01*
X766013Y837259D01*
X768336Y839164D01*
X770241Y841487D01*
X771657Y844136D01*
X772071Y845500D01*
X775460D01*
Y837960D01*
X789540D01*
Y845500D01*
X797500D01*
Y835000D01*
X803500Y829000D01*
X818970D01*
Y820030D01*
X818470D01*
X818470Y809970D01*
X819250Y808293D01*
Y800750D01*
X819750D01*
Y792992D01*
X817750Y792163D01*
X816353Y793560D01*
Y810000D01*
X816250Y810249D01*
Y811750D01*
X808043D01*
X807595Y811875D01*
X806250Y812957D01*
Y821750D01*
X802799D01*
Y821871D01*
X802605Y822847D01*
X802052Y823674D01*
X800588Y825138D01*
X799761Y825691D01*
X798785Y825885D01*
X785396D01*
X784421Y825691D01*
X783594Y825138D01*
X782129Y823674D01*
X781845Y823249D01*
X780201Y822834D01*
X779534Y822827D01*
X775686Y826675D01*
X775090Y827073D01*
X774388Y827213D01*
X770414D01*
X769630Y827997D01*
X768251Y828568D01*
X766760D01*
X765381Y827997D01*
X764326Y826942D01*
X763756Y825564D01*
Y824072D01*
X764326Y822693D01*
X765381Y821639D01*
X766760Y821068D01*
X768251D01*
X769630Y821639D01*
X770685Y822693D01*
X771036Y823542D01*
X773628D01*
X775707Y821463D01*
X775262Y819433D01*
X775102Y819240D01*
X774412Y818778D01*
X757574Y801940D01*
X757021Y801114D01*
X756827Y800138D01*
Y776624D01*
X757021Y775648D01*
X756150Y773975D01*
Y767620D01*
X754880D01*
Y766350D01*
X749340D01*
Y761580D01*
X753123D01*
X753888Y759732D01*
X748699Y754543D01*
X748147Y753716D01*
X747953Y752741D01*
Y726038D01*
X747322Y725408D01*
X746752Y724030D01*
Y722538D01*
X747322Y721160D01*
X747953Y720529D01*
Y705498D01*
X748147Y704523D01*
X748451Y704067D01*
Y694784D01*
X748645Y693809D01*
X749198Y692982D01*
X755982Y686198D01*
X756809Y685645D01*
X757784Y685451D01*
X771944D01*
X773088Y684307D01*
Y681802D01*
X772537Y681250D01*
X770750Y681250D01*
X770250Y681250D01*
X762250D01*
Y679049D01*
X758750D01*
Y681250D01*
X751506D01*
X750040Y682540D01*
X748784Y682540D01*
X745770D01*
Y676500D01*
Y670460D01*
X750040D01*
X751506Y671750D01*
X758750D01*
Y673951D01*
X762250D01*
Y671750D01*
X770250D01*
X770750Y671750D01*
X772250D01*
X772750Y671750D01*
X774834D01*
X774845Y671733D01*
X775447Y669750D01*
X774821Y669124D01*
X774250Y667746D01*
Y666442D01*
X772868Y665061D01*
X772454Y664440D01*
X772309Y663709D01*
Y651398D01*
X772454Y650667D01*
X772868Y650046D01*
X777505Y645409D01*
X778058Y645040D01*
X778097Y644856D01*
X777726Y643040D01*
X771460D01*
Y638270D01*
X777000D01*
Y635730D01*
X771460D01*
Y630960D01*
X777647D01*
Y624171D01*
X777177Y623693D01*
X775647Y623085D01*
X775000Y623353D01*
X769000D01*
X768043Y622957D01*
X767837Y622750D01*
X767750D01*
Y622663D01*
X761440Y616353D01*
X749000D01*
X748751Y616250D01*
X748250D01*
Y616042D01*
X748043Y615957D01*
X747647Y615000D01*
Y609255D01*
X746960Y607540D01*
X746960Y607540D01*
X746960Y607540D01*
Y603270D01*
X753000D01*
Y602000D01*
X754270D01*
Y596460D01*
X761730D01*
Y602000D01*
X764270D01*
Y596460D01*
X768647D01*
Y588000D01*
X768750Y587751D01*
Y586750D01*
X769751D01*
X770000Y586647D01*
X790000D01*
X790249Y586750D01*
X791250D01*
Y587751D01*
X791353Y588000D01*
Y607919D01*
X791353Y608000D01*
X791353Y608000D01*
X791352Y608003D01*
X791353Y608005D01*
X791250Y609250D01*
X790000Y609353D01*
X789999Y609353D01*
X789995Y609353D01*
X789995Y609353D01*
X789914Y609353D01*
X789292Y609350D01*
X778250Y609308D01*
X776925Y610911D01*
X777098Y611557D01*
X779000Y612647D01*
X791000D01*
X791957Y613043D01*
X792353Y614000D01*
Y631000D01*
Y643951D01*
X793500D01*
X794475Y644145D01*
X795302Y644698D01*
X814355Y663750D01*
X815746D01*
X817124Y664321D01*
X818179Y665376D01*
X818750Y666754D01*
Y668246D01*
X818179Y669624D01*
X817124Y670679D01*
X815746Y671250D01*
X814254Y671250D01*
X813540Y673098D01*
Y675730D01*
X809270D01*
Y670960D01*
X810374D01*
X810689Y670669D01*
X811546Y668960D01*
X811250Y668246D01*
Y667855D01*
X794338Y650943D01*
X792490Y651708D01*
Y651730D01*
X785000D01*
Y654270D01*
X792490D01*
Y657290D01*
X791353D01*
Y666440D01*
X796560Y671647D01*
X800745D01*
X802460Y670960D01*
Y670960D01*
X806730D01*
Y677000D01*
X808000D01*
Y678270D01*
X813540D01*
Y683040D01*
X812139D01*
X811070Y685040D01*
X811085Y685063D01*
X830610D01*
X831585Y685257D01*
X832412Y685809D01*
X838275Y691672D01*
X839116D01*
X839960Y692022D01*
X841498Y691309D01*
X841960Y690880D01*
Y683313D01*
X841922Y683288D01*
X833685Y675051D01*
X833288Y674455D01*
X833148Y673753D01*
Y665743D01*
X827035Y659630D01*
X826746Y659750D01*
X826369D01*
X826000Y659824D01*
X825631Y659750D01*
X825254D01*
X824906Y659606D01*
X824537Y659532D01*
X824224Y659323D01*
X823876Y659179D01*
X823610Y658913D01*
X823296Y658704D01*
X823087Y658391D01*
X822821Y658124D01*
X822677Y657776D01*
X822468Y657463D01*
X822394Y657094D01*
X822250Y656746D01*
Y656369D01*
X822177Y656000D01*
Y648540D01*
X819270D01*
Y638500D01*
X816730D01*
Y648540D01*
X812460D01*
Y643030D01*
X810460Y642038D01*
X809189Y642887D01*
X806750Y643372D01*
X804311Y642887D01*
X802244Y641506D01*
X800863Y639439D01*
X800378Y637000D01*
Y625000D01*
X800863Y622561D01*
X802244Y620494D01*
X804311Y619113D01*
X806750Y618628D01*
X809189Y619113D01*
X811256Y620494D01*
X812637Y622561D01*
X813122Y625000D01*
Y628460D01*
X815254D01*
X816750Y626845D01*
Y625155D01*
X817397Y623593D01*
X818593Y622397D01*
X820155Y621750D01*
X821845D01*
X823407Y622397D01*
X824603Y623593D01*
X825250Y625155D01*
Y626845D01*
X824875Y627750D01*
X825723Y629449D01*
X826047Y629750D01*
X834334D01*
X834345Y629733D01*
X834947Y627750D01*
X834321Y627124D01*
X833750Y625746D01*
Y624254D01*
X834321Y622876D01*
X835376Y621821D01*
X836754Y621250D01*
X838246D01*
X839624Y621821D01*
X840679Y622876D01*
X841250Y624254D01*
Y625746D01*
X841420Y626000D01*
X846375D01*
X847175Y625200D01*
X848289Y624455D01*
X849604Y624194D01*
X849604Y624194D01*
X855396D01*
X855396Y624194D01*
X856711Y624455D01*
X857825Y625200D01*
X858217Y625591D01*
X860418Y625500D01*
X861243Y624515D01*
Y624371D01*
X861814Y622993D01*
X862869Y621938D01*
X864247Y621367D01*
X865739D01*
X867117Y621938D01*
X868172Y622993D01*
X868743Y624371D01*
Y625863D01*
X868373Y626756D01*
X868798Y627181D01*
X869195Y627776D01*
X869335Y628479D01*
Y629750D01*
X873953D01*
X874277Y629449D01*
X875125Y627750D01*
X874750Y626845D01*
Y625155D01*
X875397Y623593D01*
X876593Y622397D01*
X878155Y621750D01*
X879845D01*
X881407Y622397D01*
X882603Y623593D01*
X883250Y625155D01*
Y626845D01*
X884746Y628460D01*
X886878D01*
Y625000D01*
X887363Y622561D01*
X888744Y620494D01*
X890811Y619113D01*
X893250Y618628D01*
X895689Y619113D01*
X897756Y620494D01*
X899137Y622561D01*
X899622Y625000D01*
Y637000D01*
X899137Y639439D01*
X897756Y641506D01*
X895689Y642887D01*
X893250Y643372D01*
X890811Y642887D01*
X889540Y642038D01*
X887540Y643030D01*
Y648540D01*
X883270D01*
Y638500D01*
X880730D01*
Y648540D01*
X877823D01*
Y656000D01*
X877750Y656369D01*
Y656746D01*
X877606Y657094D01*
X877532Y657463D01*
X877323Y657776D01*
X877179Y658124D01*
X876913Y658391D01*
X876704Y658704D01*
X876390Y658913D01*
X876124Y659179D01*
X875776Y659323D01*
X875463Y659532D01*
X875094Y659606D01*
X874746Y659750D01*
X874369D01*
X874000Y659824D01*
X873631Y659750D01*
X873254D01*
X872906Y659606D01*
X872537Y659532D01*
X872224Y659323D01*
X871876Y659179D01*
X871610Y658913D01*
X871296Y658704D01*
X871087Y658391D01*
X870821Y658124D01*
X870677Y657776D01*
X870468Y657463D01*
X870394Y657094D01*
X870250Y656746D01*
Y656369D01*
X870176Y656000D01*
Y647250D01*
X861540D01*
Y648540D01*
X860936D01*
Y649653D01*
X860675Y650968D01*
X860000Y651977D01*
Y655000D01*
X858000Y657000D01*
Y664875D01*
X858300Y665174D01*
X858300Y665174D01*
X859044Y666289D01*
X859078Y666460D01*
X860040D01*
Y680560D01*
X860040Y681440D01*
X860040D01*
Y682560D01*
X860040D01*
Y697540D01*
X859078D01*
X859044Y697711D01*
X858300Y698826D01*
X858300Y698826D01*
X858000Y699125D01*
Y714237D01*
X860000Y715065D01*
X861363Y713702D01*
X861958Y713304D01*
X862661Y713165D01*
X865750D01*
Y710250D01*
X873750D01*
X874250Y710250D01*
X875750D01*
X876250Y710250D01*
X884250D01*
Y713165D01*
X900893D01*
X901595Y713304D01*
X902190Y713702D01*
X924773Y736285D01*
X925687Y735906D01*
X927179D01*
X928558Y736477D01*
X929612Y737532D01*
X930183Y738910D01*
Y740402D01*
X929612Y741780D01*
X928558Y742835D01*
X927179Y743406D01*
X925687D01*
X924309Y742835D01*
X923254Y741780D01*
X922683Y740402D01*
Y739386D01*
X900133Y716835D01*
X885664D01*
X884250Y718250D01*
X884250Y719750D01*
X884250Y721750D01*
X885664Y723165D01*
X897854D01*
X898557Y723304D01*
X899152Y723702D01*
X911658Y736208D01*
X911947Y736088D01*
X913438D01*
X914817Y736659D01*
X915872Y737714D01*
X916443Y739092D01*
Y740584D01*
X915872Y741963D01*
X914817Y743017D01*
X913438Y743588D01*
X911947D01*
X910568Y743017D01*
X909513Y741963D01*
X908943Y740584D01*
Y739092D01*
X909062Y738803D01*
X897094Y726835D01*
X884250D01*
Y729750D01*
X876250D01*
X875750Y729750D01*
X874250D01*
X873750Y729750D01*
X865750D01*
Y729750D01*
X865036Y729454D01*
X856141Y738349D01*
Y742844D01*
X856001Y743546D01*
X855603Y744141D01*
X845922Y753822D01*
X847107Y755436D01*
X847304Y755304D01*
X848007Y755165D01*
X851623D01*
X864580Y742208D01*
X865175Y741810D01*
X865878Y741670D01*
X867250D01*
Y740750D01*
X869189D01*
Y738494D01*
X905000Y738494D01*
X905000Y762076D01*
X905619Y763003D01*
X905848Y764150D01*
Y772350D01*
X905619Y773497D01*
X905000Y774424D01*
Y778494D01*
X869189D01*
Y777250D01*
X867250D01*
Y774156D01*
X866792Y774065D01*
X866197Y773668D01*
X864376Y771847D01*
X862750Y773049D01*
Y776355D01*
X862952Y776395D01*
X863779Y776948D01*
X875078Y788246D01*
X900690D01*
X914238Y774698D01*
X915059Y773641D01*
X915049Y772773D01*
Y763081D01*
X915189Y762378D01*
X915586Y761783D01*
X918667Y758702D01*
X919262Y758304D01*
X919965Y758165D01*
X920250D01*
Y755750D01*
X923266D01*
X923356Y755292D01*
X923754Y754697D01*
X939697Y738754D01*
X940292Y738356D01*
X940750Y738266D01*
Y735540D01*
X940750Y735250D01*
X940520Y734688D01*
Y727020D01*
X945040D01*
Y733250D01*
X945040Y733540D01*
X945740Y735250D01*
X948750D01*
X949250Y735250D01*
X950750D01*
X951250Y735250D01*
X955933D01*
X956706Y734250D01*
X956250Y732250D01*
X956250D01*
Y719250D01*
X956250D01*
X955931Y717382D01*
X955867Y717355D01*
X954812Y716301D01*
X954241Y714922D01*
Y713430D01*
X954812Y712052D01*
X955867Y710997D01*
X957245Y710426D01*
X958737D01*
X958915Y708578D01*
Y690750D01*
X956250D01*
Y677750D01*
X965250D01*
Y690750D01*
X962585D01*
Y711066D01*
X962446Y711768D01*
X962048Y712364D01*
X961519Y712893D01*
X961741Y713430D01*
Y714922D01*
X961685Y715057D01*
X961974Y715346D01*
X962388Y715966D01*
X962534Y716697D01*
Y719250D01*
X965250D01*
Y732250D01*
X962662D01*
Y733750D01*
X962516Y734482D01*
X962102Y735102D01*
X959250Y737954D01*
Y744750D01*
X956912D01*
Y747750D01*
X959250D01*
Y757250D01*
X952006D01*
X950540Y758540D01*
X949284Y758540D01*
X946270D01*
Y752500D01*
X945000D01*
Y751230D01*
X939460D01*
Y747010D01*
X937657Y745985D01*
X929206Y754436D01*
X929750Y755750D01*
X929750D01*
Y764250D01*
X929750D01*
Y765750D01*
X929750D01*
Y774250D01*
X926912D01*
Y778250D01*
X929750D01*
Y780752D01*
X930374Y780877D01*
X930995Y781291D01*
X934112Y784409D01*
X935960Y783643D01*
Y780520D01*
X941750D01*
X947540D01*
Y787040D01*
X941710D01*
X940641Y789040D01*
X940673Y789088D01*
X952708D01*
X958750Y783046D01*
Y772750D01*
X967750D01*
Y785750D01*
X961454D01*
X955412Y791792D01*
Y808208D01*
X961454Y814250D01*
X967750D01*
Y827250D01*
X958750D01*
Y816954D01*
X952148Y810352D01*
X951734Y809732D01*
X951588Y809000D01*
Y792912D01*
X938000D01*
X937268Y792766D01*
X936648Y792352D01*
X933040Y788744D01*
X931040Y789572D01*
Y791230D01*
X925000D01*
Y792500D01*
D01*
Y791230D01*
X918960D01*
Y787055D01*
X917479Y785707D01*
X911227Y791959D01*
X911315Y792171D01*
Y793663D01*
X910744Y795041D01*
X909690Y796096D01*
X908311Y796667D01*
X906820D01*
X905441Y796096D01*
X904386Y795041D01*
X904192Y794573D01*
X903134Y793550D01*
X901815Y793330D01*
X901746Y793344D01*
X874022D01*
X873047Y793150D01*
X872220Y792598D01*
X865888Y786266D01*
X864040Y787031D01*
Y792540D01*
X859270D01*
Y787000D01*
X856730D01*
Y792540D01*
X851960D01*
Y792540D01*
X848270D01*
Y787000D01*
X847000D01*
Y785730D01*
X840960D01*
Y781460D01*
X842250Y781250D01*
Y778656D01*
X841214D01*
X840239Y778462D01*
X839412Y777909D01*
X838395Y776893D01*
X837504D01*
X836126Y776322D01*
X835711Y775907D01*
X835377Y775992D01*
X833863Y776888D01*
Y778625D01*
X833427Y779677D01*
X832375Y780113D01*
X827500D01*
Y780994D01*
X825113D01*
Y785897D01*
X825465Y786249D01*
X825915Y786921D01*
X826072Y787714D01*
Y791250D01*
X828250D01*
X828460Y789960D01*
X832730D01*
Y796000D01*
Y802040D01*
X830506D01*
X828750Y804040D01*
Y808293D01*
X829530Y809970D01*
X829530Y810927D01*
Y817960D01*
X832730D01*
Y824000D01*
Y830040D01*
X829000D01*
Y835000D01*
X825000Y839000D01*
X810000D01*
Y845500D01*
X927929D01*
X928343Y844136D01*
D02*
G37*
G36*
X815000Y793000D02*
X819000Y789000D01*
Y781000D01*
X811000D01*
Y789000D01*
X809000Y791000D01*
Y810000D01*
X815000D01*
Y793000D01*
D02*
G37*
G36*
X865960Y764009D02*
Y757460D01*
Y749460D01*
X866432Y749383D01*
X866564Y748243D01*
X864658Y747321D01*
X853681Y758298D01*
X853086Y758696D01*
X852383Y758835D01*
X850130D01*
X849853Y759250D01*
X850922Y761250D01*
X853250D01*
Y761250D01*
X854750D01*
Y761250D01*
X863250D01*
Y764542D01*
X863960Y765044D01*
X865960Y764009D01*
D02*
G37*
G36*
X776137Y763625D02*
Y761482D01*
X775840Y761216D01*
X774365Y760425D01*
X774111Y760679D01*
X772733Y761250D01*
X771241D01*
X769863Y760679D01*
X768808Y759624D01*
X768237Y758246D01*
Y756754D01*
X768808Y755376D01*
X769863Y754321D01*
X770971Y753862D01*
X771465Y752748D01*
X771687Y751750D01*
X769273Y749335D01*
X766672D01*
X766552Y749624D01*
X765498Y750679D01*
X764119Y751250D01*
X762627D01*
X761249Y750679D01*
X760194Y749624D01*
X759623Y748246D01*
Y747735D01*
X759244Y747340D01*
X757719Y746524D01*
X756871Y746875D01*
X755379D01*
X755051Y746739D01*
X753051Y747967D01*
Y751685D01*
X764235Y762870D01*
X769130D01*
Y764951D01*
X774521D01*
X776137Y763625D01*
D02*
G37*
G36*
X763337Y739496D02*
Y738004D01*
X763736Y737040D01*
X763270Y735951D01*
Y729000D01*
X762000D01*
Y727730D01*
X756460D01*
Y722960D01*
X762742D01*
X763508Y721112D01*
X754898Y712503D01*
X753051Y713269D01*
Y720529D01*
X753681Y721160D01*
X754252Y722538D01*
Y724030D01*
X753681Y725408D01*
X753051Y726038D01*
Y738283D01*
X755051Y739511D01*
X755379Y739375D01*
X756871D01*
X758249Y739946D01*
X759304Y741001D01*
X759392Y741213D01*
X761883D01*
X763337Y739496D01*
D02*
G37*
G36*
X834000Y737033D02*
Y722883D01*
X844000Y712883D01*
Y699125D01*
X843700Y698826D01*
X843373Y698335D01*
X842979Y698165D01*
X841466Y698007D01*
X841257Y698049D01*
X840494Y698601D01*
X839116Y699172D01*
X837967D01*
X837217Y699644D01*
X836250Y700768D01*
Y701746D01*
X835679Y703124D01*
X834968Y703835D01*
X834632Y705127D01*
X834641Y706337D01*
X835834Y707530D01*
X836249Y708150D01*
X836394Y708882D01*
Y715571D01*
X836249Y716303D01*
X835834Y716923D01*
X824412Y728346D01*
Y731463D01*
X824677Y731573D01*
X825113Y732625D01*
Y737500D01*
X827500D01*
Y738658D01*
X832375D01*
X834000Y737033D01*
D02*
G37*
G36*
X864697Y724603D02*
X865292Y724205D01*
X865750Y724114D01*
Y720250D01*
X865750D01*
Y719750D01*
X865750D01*
Y716835D01*
X863421D01*
X851741Y728515D01*
Y734730D01*
X853741Y735558D01*
X864697Y724603D01*
D02*
G37*
G36*
X768970Y718166D02*
X769951Y717518D01*
Y708456D01*
X768540Y707040D01*
X767284Y707040D01*
X764270D01*
Y701000D01*
Y694960D01*
X768540D01*
X770006Y696250D01*
X777250D01*
Y698451D01*
X786750D01*
Y698250D01*
X798250D01*
Y703250D01*
Y714088D01*
X798428D01*
X799159Y714234D01*
X799780Y714648D01*
X800362Y715231D01*
X802210Y714465D01*
Y709770D01*
X806000D01*
X809790D01*
Y717789D01*
X812460D01*
Y717270D01*
X819500D01*
Y714730D01*
X812460D01*
Y711960D01*
X813750D01*
Y698250D01*
X825250D01*
Y699088D01*
X829233D01*
X829321Y698876D01*
X830376Y697821D01*
X831754Y697250D01*
X832903D01*
X833606Y696807D01*
X834524Y695131D01*
X829554Y690161D01*
X808111D01*
X807136Y689967D01*
X806309Y689414D01*
X798645Y681750D01*
X793750D01*
Y681290D01*
X779049D01*
Y684500D01*
X778855Y685475D01*
X778302Y686302D01*
X774802Y689802D01*
X773976Y690355D01*
X773000Y690549D01*
X758840D01*
X753549Y695840D01*
Y703944D01*
X755460Y705855D01*
X757460Y705027D01*
Y702270D01*
X761730D01*
Y707040D01*
X759473D01*
X758645Y709040D01*
X768006Y718402D01*
X768970Y718166D01*
D02*
G37*
G36*
X795773Y678667D02*
X795645Y678475D01*
X795451Y677500D01*
Y677000D01*
X795645Y676025D01*
X796198Y675198D01*
X797025Y674645D01*
X798000Y674451D01*
X798975Y674645D01*
X799730Y675149D01*
X800124Y675065D01*
X801000Y674704D01*
Y673000D01*
X796000D01*
X790000Y667000D01*
Y657000D01*
X784000D01*
Y670000D01*
X781000Y673000D01*
X777874D01*
X777706Y673481D01*
X777663Y674270D01*
X778302Y674698D01*
X778855Y675525D01*
X779049Y676500D01*
Y679937D01*
X795094D01*
X795773Y678667D01*
D02*
G37*
G36*
X841960Y675521D02*
Y666460D01*
X842922D01*
X842955Y666289D01*
X843700Y665174D01*
X844000Y664875D01*
Y656000D01*
X840000Y652000D01*
Y650778D01*
X839263Y649676D01*
X839037Y648540D01*
X838460D01*
Y647250D01*
X829824D01*
Y656000D01*
X829750Y656369D01*
Y656746D01*
X829630Y657035D01*
X836281Y663685D01*
X836679Y664281D01*
X836818Y664983D01*
Y672993D01*
X840112Y676287D01*
X841960Y675521D01*
D02*
G37*
G36*
X791000Y631000D02*
Y614000D01*
X779000D01*
Y631000D01*
X785000D01*
X788000Y635000D01*
Y649518D01*
X791000D01*
Y631000D01*
D02*
G37*
G36*
X775000Y610000D02*
X776547Y607948D01*
X790000Y608000D01*
Y588000D01*
X770000D01*
Y606000D01*
X767000Y609000D01*
X749000D01*
Y615000D01*
X762000D01*
X769000Y622000D01*
X775000D01*
Y610000D01*
D02*
G37*
%LPC*%
G36*
X839540Y830040D02*
X835270D01*
Y825270D01*
X839540D01*
Y830040D01*
D02*
G37*
G36*
X947540Y828540D02*
X943020D01*
Y822020D01*
X947540D01*
Y828540D01*
D02*
G37*
G36*
X940480D02*
X935960D01*
Y822020D01*
X940480D01*
Y828540D01*
D02*
G37*
G36*
X839540Y822730D02*
X835270D01*
Y817960D01*
X839540D01*
Y822730D01*
D02*
G37*
G36*
X947540Y819480D02*
X943020D01*
Y812960D01*
X947540D01*
Y819480D01*
D02*
G37*
G36*
X940480D02*
X935960D01*
Y812960D01*
X940480D01*
Y819480D01*
D02*
G37*
G36*
X835270Y802040D02*
Y797270D01*
X839540D01*
Y802040D01*
X835270D01*
D02*
G37*
G36*
X931040Y798040D02*
X926270D01*
Y793770D01*
X931040D01*
Y798040D01*
D02*
G37*
G36*
X923730D02*
X918960D01*
Y793770D01*
X923730D01*
Y798040D01*
D02*
G37*
G36*
X839540Y794730D02*
X835270D01*
Y789960D01*
X839540D01*
X840960Y788560D01*
Y788270D01*
X845730D01*
Y792540D01*
X840960D01*
X839540Y793940D01*
Y794730D01*
D02*
G37*
G36*
X947540Y777980D02*
X943020D01*
Y771460D01*
X947540D01*
Y777980D01*
D02*
G37*
G36*
X940480D02*
X935960D01*
Y771460D01*
X940480D01*
Y777980D01*
D02*
G37*
G36*
X753610Y773660D02*
X749340D01*
Y768890D01*
X753610D01*
Y773660D01*
D02*
G37*
G36*
X943730Y758540D02*
X939460D01*
Y753770D01*
X943730D01*
Y758540D01*
D02*
G37*
G36*
X937980Y733540D02*
X933460D01*
Y727020D01*
X937980D01*
Y733540D01*
D02*
G37*
G36*
X945040Y724480D02*
X940520D01*
Y717960D01*
X945040D01*
Y724480D01*
D02*
G37*
G36*
X937980D02*
X933460D01*
Y717960D01*
X937980D01*
Y724480D01*
D02*
G37*
G36*
X912790Y699790D02*
X906270D01*
Y695770D01*
X912790D01*
Y699790D01*
D02*
G37*
G36*
X903730D02*
X897210D01*
Y695770D01*
X903730D01*
Y699790D01*
D02*
G37*
G36*
X886500Y698500D02*
X873500D01*
Y691000D01*
X873500Y690500D01*
Y689000D01*
X873500Y688500D01*
Y687620D01*
X873095Y687389D01*
X871500Y687007D01*
X870783Y687724D01*
X869405Y688295D01*
X867913D01*
X866535Y687724D01*
X865480Y686669D01*
X864909Y685291D01*
Y683799D01*
X865480Y682421D01*
X866535Y681366D01*
X867913Y680795D01*
X869405D01*
X870783Y681366D01*
X871500Y682083D01*
X873095Y681701D01*
X873500Y681469D01*
X873500Y681000D01*
Y679500D01*
X873500Y679000D01*
Y678163D01*
X871500Y677803D01*
X871124Y678179D01*
X869746Y678750D01*
X868254D01*
X866876Y678179D01*
X865821Y677124D01*
X865250Y675746D01*
Y674254D01*
X865821Y672876D01*
X866876Y671821D01*
X868254Y671250D01*
X869746D01*
X871124Y671821D01*
X871500Y672197D01*
X873500Y671837D01*
Y671500D01*
X886500D01*
Y679000D01*
X886500Y679500D01*
Y681000D01*
X886500Y681500D01*
Y688500D01*
X886500Y689000D01*
Y690500D01*
X886500Y691000D01*
Y698500D01*
D02*
G37*
G36*
X912790Y693230D02*
X905000D01*
X897210D01*
Y689210D01*
Y686270D01*
X905000D01*
X912790D01*
Y689210D01*
Y693230D01*
D02*
G37*
G36*
X945040Y692040D02*
X940520D01*
Y685520D01*
X945040D01*
Y692040D01*
D02*
G37*
G36*
X937980D02*
X933460D01*
Y685520D01*
X937980D01*
Y692040D01*
D02*
G37*
G36*
X743230Y682540D02*
X738960D01*
Y677770D01*
X743230D01*
Y682540D01*
D02*
G37*
G36*
X945040Y682980D02*
X940520D01*
Y676460D01*
X945040D01*
Y682980D01*
D02*
G37*
G36*
X937980D02*
X933460D01*
Y676460D01*
X937980D01*
Y682980D01*
D02*
G37*
G36*
X743230Y675230D02*
X738960D01*
Y670460D01*
X743230D01*
Y675230D01*
D02*
G37*
G36*
X966540Y670540D02*
X962020D01*
Y664020D01*
X966540D01*
Y670540D01*
D02*
G37*
G36*
X959480D02*
X954960D01*
Y664020D01*
X959480D01*
Y670540D01*
D02*
G37*
G36*
X966540Y661480D02*
X962020D01*
Y654960D01*
X966540D01*
Y661480D01*
D02*
G37*
G36*
X959480D02*
X954960D01*
Y654960D01*
X959480D01*
Y661480D01*
D02*
G37*
G36*
X751746Y667750D02*
X750254D01*
X748876Y667179D01*
X747821Y666124D01*
X747250Y664746D01*
Y663855D01*
X744948Y661552D01*
X744411Y660750D01*
X739750D01*
Y652750D01*
X739750Y652250D01*
Y650750D01*
X739750Y650250D01*
Y642250D01*
X741951D01*
Y638750D01*
X739750D01*
Y630750D01*
X739750Y630250D01*
Y628483D01*
X739295Y628056D01*
X737750Y627338D01*
X736912Y627685D01*
X735421D01*
X734042Y627114D01*
X732987Y626059D01*
X732416Y624681D01*
Y623189D01*
X732987Y621811D01*
X734042Y620756D01*
X735421Y620185D01*
X736912D01*
X737750Y620532D01*
X739750Y620250D01*
Y620250D01*
X749250D01*
Y628250D01*
X749250Y628750D01*
Y630250D01*
X749250Y630750D01*
Y638750D01*
X747049D01*
Y642250D01*
X749250D01*
Y650250D01*
X749250Y650750D01*
Y652250D01*
X749250Y652750D01*
Y658004D01*
X749299Y658250D01*
Y658694D01*
X750855Y660250D01*
X751746D01*
X753124Y660821D01*
X754179Y661876D01*
X754750Y663254D01*
Y664746D01*
X754179Y666124D01*
X753124Y667179D01*
X751746Y667750D01*
D02*
G37*
G36*
X966540Y629040D02*
X962020D01*
Y622520D01*
X966540D01*
Y629040D01*
D02*
G37*
G36*
X959480D02*
X954960D01*
Y622520D01*
X959480D01*
Y629040D01*
D02*
G37*
G36*
X960540Y606230D02*
X956270D01*
Y601460D01*
X960540D01*
Y606230D01*
D02*
G37*
G36*
X912790Y683730D02*
X905000D01*
X897210D01*
Y679710D01*
X898500Y678244D01*
Y671500D01*
X911500D01*
Y673588D01*
X926731D01*
X934750Y665570D01*
Y656250D01*
X937338D01*
Y627750D01*
X934750D01*
Y614750D01*
X937338D01*
Y613750D01*
X937484Y613018D01*
X937898Y612398D01*
X940750Y609547D01*
Y602750D01*
X947994D01*
X949460Y601460D01*
X950716Y601460D01*
X953730D01*
Y607500D01*
X955000D01*
Y608770D01*
X960540D01*
Y613460D01*
X966540D01*
Y619980D01*
X960750D01*
X954960D01*
Y613540D01*
X949460Y613540D01*
X947994Y612250D01*
X944907D01*
X943551Y614250D01*
X943750Y614750D01*
X943750D01*
Y627750D01*
X941162D01*
Y656250D01*
X943750D01*
Y669250D01*
X936477D01*
X928875Y676852D01*
X928255Y677266D01*
X927523Y677412D01*
X913431D01*
X912527Y679412D01*
X912790Y679710D01*
X912790Y680966D01*
Y683730D01*
D02*
G37*
G36*
X932540Y610540D02*
X921270D01*
Y599270D01*
X932540D01*
Y610540D01*
D02*
G37*
G36*
X918730D02*
X907460D01*
Y599270D01*
X918730D01*
Y610540D01*
D02*
G37*
G36*
X751730Y600730D02*
X746960D01*
Y596460D01*
X751730D01*
Y600730D01*
D02*
G37*
G36*
X760730Y735040D02*
X756460D01*
Y730270D01*
X760730D01*
Y735040D01*
D02*
G37*
G36*
X809790Y707230D02*
X807270D01*
Y697710D01*
X809790D01*
Y707230D01*
D02*
G37*
G36*
X804730D02*
X802210D01*
Y697710D01*
X804730D01*
Y707230D01*
D02*
G37*
G36*
X761730Y699730D02*
X757460D01*
Y694960D01*
X761730D01*
Y699730D01*
D02*
G37*
%LPD*%
D12*
X736449Y624217D02*
X744218D01*
X736166Y623935D02*
X736449Y624217D01*
X744218D02*
X744500Y624500D01*
X750502Y705498D02*
Y752741D01*
X764880Y767120D02*
Y767620D01*
X750502Y752741D02*
X764880Y767120D01*
X750502Y705498D02*
X751000Y705000D01*
X916041Y776500D02*
X919379D01*
X919629Y776250D01*
X874022Y790795D02*
X901746D01*
X916041Y776500D01*
X776215Y816976D02*
X781976D01*
X772500Y704018D02*
X774009Y702509D01*
X775518Y701000D01*
X893115Y758615D02*
Y761615D01*
X899250Y767750D01*
X884750Y750250D02*
X893115Y758615D01*
X880000Y755000D02*
X884750Y750250D01*
Y749750D02*
Y750250D01*
X872000Y755000D02*
X880000D01*
X872000D02*
Y763000D01*
X899250Y767750D02*
Y768250D01*
X782182Y817000D02*
X783932Y818750D01*
Y821871D02*
X785396Y823336D01*
X798785D02*
X800250Y821871D01*
Y818750D02*
X802000Y817000D01*
X782000Y817000D02*
X782182D01*
X783932Y818750D02*
Y821871D01*
X785396Y823336D02*
X798785D01*
X800250Y818750D02*
Y821871D01*
X781976Y816976D02*
X782000Y817000D01*
X861977Y778750D02*
X874022Y790795D01*
X856875Y775875D02*
X859750Y778750D01*
X861977D01*
X759376Y776624D02*
Y800138D01*
X776215Y816976D01*
X759376Y776624D02*
X763229Y772771D01*
X780000Y701000D02*
X792500D01*
X775518D02*
X776000D01*
X780000D01*
X772500Y704018D02*
Y717926D01*
X814500Y667500D02*
X815000D01*
X793500Y646500D02*
X814500Y667500D01*
X789000Y646500D02*
X793500D01*
X744500Y656500D02*
X745000D01*
X746750Y658250D02*
Y659750D01*
X751000Y664000D01*
X745000Y656500D02*
X746750Y658250D01*
X744500Y634500D02*
Y646500D01*
X751000Y705000D02*
X770250Y724250D01*
X772000Y729500D02*
X773750Y731250D01*
X751000Y694784D02*
X757784Y688000D01*
X751000Y694784D02*
Y705000D01*
X780482Y735851D02*
X787500D01*
X770250Y724250D02*
Y727250D01*
X763229Y769271D02*
Y772771D01*
X802000Y807000D02*
Y817500D01*
X775882Y731250D02*
X780482Y735851D01*
X770250Y727250D02*
X772000Y729000D01*
X773000Y688000D02*
X776500Y684500D01*
X773750Y731250D02*
X775882D01*
X776500Y676500D02*
Y684500D01*
X772000Y729000D02*
Y729500D01*
X763229Y769271D02*
X764880Y767620D01*
X757784Y688000D02*
X773000D01*
X766072Y767500D02*
X781000D01*
X848125Y775875D02*
X856875D01*
X847000Y777000D02*
X848125Y775875D01*
X829000Y772500D02*
X836931D01*
X837573Y773143D01*
X838250D01*
X841214Y776107D01*
X829000Y772500D02*
Y777500D01*
X841214Y776107D02*
X846107D01*
X847000Y777000D01*
X838370Y695372D02*
Y695422D01*
X830610Y687612D02*
X838370Y695372D01*
X808111Y687612D02*
X830610D01*
X798000Y677500D02*
X808111Y687612D01*
X798000Y677000D02*
Y677500D01*
X772500Y717926D02*
X784181Y729607D01*
X790695D01*
X754500Y676500D02*
X766500D01*
X879500Y675000D02*
X880000Y675500D01*
X869000Y675000D02*
X879500D01*
X790695Y729607D02*
X792511Y731422D01*
X792500Y734091D02*
Y736989D01*
Y734091D02*
X792511Y734080D01*
Y731422D02*
Y734080D01*
D17*
X829000Y747500D02*
D03*
Y742500D02*
D03*
X781000Y777500D02*
D03*
Y772500D02*
D03*
Y767500D02*
D03*
Y762500D02*
D03*
Y757500D02*
D03*
Y752500D02*
D03*
Y747500D02*
D03*
Y742500D02*
D03*
X829000Y752500D02*
D03*
Y757500D02*
D03*
Y762500D02*
D03*
Y767500D02*
D03*
Y772500D02*
D03*
Y777500D02*
D03*
D18*
X822500Y784000D02*
D03*
X817500D02*
D03*
X812500D02*
D03*
X807500D02*
D03*
X802500D02*
D03*
X797500D02*
D03*
X792500D02*
D03*
X787500D02*
D03*
Y736000D02*
D03*
X792500D02*
D03*
X797500D02*
D03*
X802500D02*
D03*
X807500D02*
D03*
X812500D02*
D03*
X817500D02*
D03*
X822500D02*
D03*
D19*
X805000Y760000D02*
D03*
D20*
X880000Y715000D02*
D03*
X870000D02*
D03*
X880000Y725000D02*
D03*
X870000D02*
D03*
X764880Y767620D02*
D03*
X754880D02*
D03*
X766500Y676500D02*
D03*
X776500D02*
D03*
X772000Y618000D02*
D03*
X782000D02*
D03*
X802000Y796000D02*
D03*
X812000D02*
D03*
X859000Y766000D02*
D03*
X849000D02*
D03*
X834000Y796000D02*
D03*
X824000D02*
D03*
X834000Y824000D02*
D03*
X824000D02*
D03*
X792000Y817000D02*
D03*
X802000D02*
D03*
X802000Y807000D02*
D03*
X812000D02*
D03*
X772000Y729000D02*
D03*
X762000D02*
D03*
X763000Y701000D02*
D03*
X773000D02*
D03*
X945000Y740000D02*
D03*
X955000D02*
D03*
X945000Y752500D02*
D03*
X955000D02*
D03*
X744500Y676500D02*
D03*
X754500D02*
D03*
X955000Y607500D02*
D03*
X945000D02*
D03*
X808000Y677000D02*
D03*
X798000D02*
D03*
X777000Y637000D02*
D03*
X787000D02*
D03*
D21*
X826000Y638500D02*
D03*
X818000D02*
D03*
X882000D02*
D03*
X874000D02*
D03*
D22*
X832500D02*
D03*
X837500D02*
D03*
X842500D02*
D03*
X867500D02*
D03*
X862500D02*
D03*
X857500D02*
D03*
X852500D02*
D03*
X847500D02*
D03*
D23*
X856000Y690050D02*
D03*
X851000D02*
D03*
X846000D02*
D03*
Y673950D02*
D03*
X851000D02*
D03*
X856000D02*
D03*
D24*
X884750Y768250D02*
D03*
Y749750D02*
D03*
X899250Y768250D02*
D03*
Y749750D02*
D03*
D25*
X824000Y805000D02*
D03*
Y815000D02*
D03*
X925000Y770000D02*
D03*
Y760000D02*
D03*
X744500Y646500D02*
D03*
Y656500D02*
D03*
Y634500D02*
D03*
Y624500D02*
D03*
X753000Y602000D02*
D03*
Y612000D02*
D03*
X763000Y602000D02*
D03*
Y612000D02*
D03*
X872000Y773000D02*
D03*
Y763000D02*
D03*
Y745000D02*
D03*
Y755000D02*
D03*
X847000Y787000D02*
D03*
Y777000D02*
D03*
X858000Y787000D02*
D03*
Y777000D02*
D03*
X782000Y807000D02*
D03*
Y817000D02*
D03*
X925000Y792500D02*
D03*
Y782500D02*
D03*
D26*
X819500Y716000D02*
D03*
Y711000D02*
D03*
Y706000D02*
D03*
Y701000D02*
D03*
X792500Y716000D02*
D03*
Y711000D02*
D03*
Y706000D02*
D03*
Y701000D02*
D03*
D28*
X963250Y820750D02*
D03*
Y779250D02*
D03*
X941750Y820750D02*
D03*
Y779250D02*
D03*
X960750Y725750D02*
D03*
Y684250D02*
D03*
X939250Y725750D02*
D03*
Y684250D02*
D03*
Y621250D02*
D03*
Y662750D02*
D03*
X960750Y621250D02*
D03*
Y662750D02*
D03*
D29*
X905000Y675500D02*
D03*
Y685000D02*
D03*
Y694500D02*
D03*
X880000D02*
D03*
Y685000D02*
D03*
Y675500D02*
D03*
D30*
X789000Y659500D02*
D03*
X785000D02*
D03*
X781000D02*
D03*
Y646500D02*
D03*
X785000D02*
D03*
X789000D02*
D03*
D31*
X785000Y653000D02*
D03*
D51*
X803500Y838500D02*
G03*
X807000Y835000I3500J0D01*
G01*
X824000Y828000D02*
G03*
X817000Y835000I-7000J0D01*
G01*
X822500Y786250D02*
X822535D01*
X824000Y787714D01*
Y796000D01*
X822500Y784000D02*
Y786250D01*
X824000Y796000D02*
Y805000D01*
X824000Y824000D02*
Y828000D01*
Y824000D02*
X824000D01*
Y815000D02*
Y824000D01*
X803500Y838500D02*
Y865000D01*
X807000Y835000D02*
X817000D01*
D52*
X806000Y708500D02*
D03*
D53*
X920000Y598000D02*
D03*
X780000Y598000D02*
D03*
D54*
X919500Y869800D02*
D03*
D55*
X908500Y892000D02*
D03*
X861500D02*
D03*
D56*
X897500Y876300D02*
D03*
X872500D02*
D03*
X850500D02*
D03*
X825500D02*
D03*
D57*
X885000Y865600D02*
D03*
X838000D02*
D03*
D58*
X803500Y865000D02*
D03*
D59*
X803000Y892000D02*
D03*
D60*
X782500Y865000D02*
D03*
D61*
X862661Y715000D02*
X870000D01*
X849905Y727755D02*
Y741781D01*
Y727755D02*
X862661Y715000D01*
X869100Y725900D02*
X870000Y725000D01*
X854305Y737589D02*
X865994Y725900D01*
X869100D01*
X854305Y737589D02*
Y742844D01*
X839754Y751932D02*
X849905Y741781D01*
X916884Y772773D02*
X919629Y775518D01*
Y776250D01*
X916884Y763081D02*
Y772773D01*
Y763081D02*
X919965Y760000D01*
X925500D01*
X925000D02*
X925052Y759948D01*
X763373Y747500D02*
X770033D01*
X775033Y752500D01*
X771684Y780686D02*
Y780972D01*
Y780686D02*
X774890Y777480D01*
X780980D01*
X768065Y825378D02*
X774388D01*
X767506Y824818D02*
X768065Y825378D01*
X779066Y819450D02*
X781516Y817000D01*
X774388Y825378D02*
X779066Y820700D01*
X781516Y817000D02*
X782000D01*
X779066Y819450D02*
Y820700D01*
X764376Y780369D02*
Y781159D01*
Y780369D02*
X772246Y772500D01*
X781000D01*
X781286Y788124D02*
X782586Y786825D01*
X780231Y788124D02*
X781286D01*
X775229Y798665D02*
X788069D01*
X774788Y798224D02*
X775229Y798665D01*
X787500Y784000D02*
Y786125D01*
X782586Y786825D02*
X786800D01*
X787500Y786125D01*
X788069Y798665D02*
X797300Y789434D01*
X771987Y757500D02*
X781000D01*
X925549Y739656D02*
X926433D01*
X900893Y715000D02*
X925549Y739656D01*
X880000Y715000D02*
X900893D01*
X897854Y725000D02*
X912693Y739838D01*
X880000Y725000D02*
X897854D01*
X829568Y751932D02*
X839754D01*
X840362Y756787D02*
X854305Y742844D01*
X832594Y756787D02*
X840362D01*
X831950Y756800D02*
X832581D01*
X831250Y757500D02*
X831950Y756800D01*
X832581D02*
X832594Y756787D01*
X829000Y757500D02*
X831250D01*
X829000Y752500D02*
X829568Y751932D01*
X775033Y752500D02*
X781000D01*
X797300Y784200D02*
Y789434D01*
Y784200D02*
X797500Y784000D01*
X853072Y682010D02*
X862010D01*
X850988Y684094D02*
Y690011D01*
Y684094D02*
X853072Y682010D01*
X850975Y690024D02*
X850988Y690011D01*
X781000Y654200D02*
Y659500D01*
Y654200D02*
X782200Y653000D01*
X785000D01*
X848819Y681990D02*
X850903Y679906D01*
X843220Y681990D02*
X848819D01*
X850903Y674047D02*
X851000Y673950D01*
X850903Y674047D02*
Y679906D01*
X834983Y673753D02*
X843220Y681990D01*
X826000Y656000D02*
X834983Y664983D01*
Y673753D01*
X925052Y755994D02*
Y759948D01*
X940994Y740052D02*
X944948D01*
X925052Y755994D02*
X940994Y740052D01*
X944948D02*
X945000Y740000D01*
X957991Y713825D02*
X960750Y711066D01*
X957991Y713825D02*
Y714176D01*
X960750Y684250D02*
Y711066D01*
X848007Y757000D02*
X852383D01*
X829000Y762500D02*
X842507D01*
X848007Y757000D01*
X865878Y743506D02*
X870506D01*
X852383Y757000D02*
X865878Y743506D01*
X873550Y743450D02*
X893450D01*
X870506Y743506D02*
X870506Y743506D01*
X872000Y745000D01*
X879744Y770256D02*
X882744D01*
X884750Y768250D01*
X872000Y773000D02*
X877000D01*
X879744Y770256D01*
X867494Y772370D02*
X871370D01*
X859000Y766000D02*
X860881Y767881D01*
X863006D01*
X867494Y772370D01*
X871370D02*
X872000Y773000D01*
X893450Y743450D02*
X899250Y749250D01*
X872000Y745000D02*
X873550Y743450D01*
X899250Y749250D02*
Y749750D01*
X847500Y767500D02*
X849000Y766000D01*
X829000Y767500D02*
X847500D01*
X864993Y625972D02*
X867500Y628479D01*
Y638500D01*
X864993Y625117D02*
Y625972D01*
X837500Y625000D02*
Y638500D01*
D62*
X849604Y627630D02*
X855396D01*
X857370Y629604D02*
Y638370D01*
X847630Y629604D02*
X849604Y627630D01*
X855396D02*
X857370Y629604D01*
Y638370D02*
X857500Y638500D01*
X847630Y629604D02*
Y638370D01*
X847500Y638500D02*
X847630Y638370D01*
X855870Y673820D02*
X856000Y673950D01*
X855870Y667604D02*
Y673820D01*
X853161Y664895D02*
X855870Y667604D01*
X853161Y653992D02*
Y664895D01*
X846130Y667604D02*
X848961Y664773D01*
X846130Y667604D02*
Y673820D01*
X852500Y638500D02*
Y648713D01*
X848961Y652252D02*
X852500Y648713D01*
X846041Y651964D02*
X848669D01*
X848961Y652252D02*
Y652256D01*
X848669Y651964D02*
X848961Y652256D01*
X853161Y653992D02*
X857500Y649653D01*
X846000Y673950D02*
X846130Y673820D01*
X848961Y652256D02*
Y664773D01*
X857500Y638500D02*
Y649653D01*
X848902Y699168D02*
Y713082D01*
X846130Y696396D02*
X848902Y699168D01*
X846130Y690180D02*
Y696396D01*
X855870Y690180D02*
X856000Y690050D01*
X853102Y699164D02*
Y714822D01*
X855870Y690180D02*
Y696396D01*
X844189Y723735D02*
X853102Y714822D01*
X837124Y746700D02*
X837224D01*
X853102Y699164D02*
X855870Y696396D01*
X829000Y742500D02*
X835484D01*
X839989Y721995D02*
Y737996D01*
X836324Y747500D02*
X837124Y746700D01*
X837224D02*
X844189Y739735D01*
X835484Y742500D02*
X839989Y737996D01*
X846000Y690050D02*
X846130Y690180D01*
X829000Y747500D02*
X836324D01*
X839989Y721995D02*
X848902Y713082D01*
X842438Y648361D02*
X846041Y651964D01*
X842438Y638562D02*
X842500Y638500D01*
X842438Y638562D02*
Y648361D01*
X844189Y723735D02*
Y739735D01*
D63*
X834482Y708882D02*
Y715571D01*
X822500Y727554D02*
Y737000D01*
Y727554D02*
X834482Y715571D01*
X907565Y792917D02*
X917901Y782582D01*
X756125Y743125D02*
X770551D01*
X813519Y723036D02*
X814251Y723768D01*
X802128Y719700D02*
X814347D01*
X797407Y723036D02*
X813519D01*
X784409Y717612D02*
X788227Y721431D01*
X808976Y727509D02*
Y728523D01*
X801287Y727656D02*
Y728447D01*
X788227Y721431D02*
X795803D01*
X814347Y719700D02*
X817500Y722854D01*
X802500Y729660D02*
Y737000D01*
X801287Y728447D02*
X802500Y729660D01*
X798428Y716000D02*
X802128Y719700D01*
X795803Y721431D02*
X797407Y723036D01*
X807500Y729999D02*
X808976Y728523D01*
X807500Y729999D02*
Y737000D01*
X785939Y793669D02*
X788950D01*
X785601Y794007D02*
X785939Y793669D01*
X917901Y782582D02*
X924918D01*
X788950Y793669D02*
X792589Y790031D01*
Y784089D02*
Y790031D01*
X792500Y784000D02*
X792589Y784089D01*
X937250Y666750D02*
X939250Y664750D01*
X927523Y675500D02*
X936273Y666750D01*
X937250D01*
X905000Y675500D02*
X927523D01*
X939250Y621250D02*
Y664750D01*
X779387Y709439D02*
Y718887D01*
X782827Y706000D02*
X792500D01*
X779387Y709439D02*
X782827Y706000D01*
X953500Y791000D02*
Y809000D01*
X963250Y818750D02*
Y820750D01*
X953500Y809000D02*
X963250Y818750D01*
X774220Y663709D02*
X777512Y667000D01*
X774220Y651398D02*
X778857Y646761D01*
X774220Y651398D02*
Y663709D01*
X777512Y667000D02*
X778000D01*
X819500Y706000D02*
X831601D01*
X834482Y708882D01*
X819500Y701000D02*
X832500D01*
X767087Y738750D02*
X767774Y738063D01*
X771958D01*
X960622Y725622D02*
X960750Y725750D01*
X958101Y714176D02*
X960622Y716697D01*
Y725622D01*
X957991Y714176D02*
X958101D01*
X960750Y725750D02*
Y733750D01*
X770551Y743125D02*
X774926Y747500D01*
X781000D01*
X780962Y742462D02*
X781000Y742500D01*
X776357Y742462D02*
X780962D01*
X771958Y738063D02*
X776357Y742462D01*
X925000Y770000D02*
Y782500D01*
X938000Y791000D02*
X953500D01*
X963250Y781250D01*
X929643Y782643D02*
X938000Y791000D01*
X925143Y782643D02*
X929643D01*
X925000Y782500D02*
X925143Y782643D01*
X963250Y779250D02*
Y781250D01*
X955000Y740000D02*
Y752500D01*
Y739500D02*
X960750Y733750D01*
X955000Y739500D02*
Y740000D01*
X945000Y607500D02*
Y608000D01*
X939250Y613750D02*
Y621250D01*
Y613750D02*
X945000Y608000D01*
X879545Y684545D02*
X880000Y685000D01*
X868659Y684545D02*
X879545D01*
X780808Y646761D02*
X781000Y646569D01*
X778857Y646761D02*
X780808D01*
X814251Y723768D02*
Y728720D01*
X792532Y724928D02*
X797500Y729896D01*
X812500Y730471D02*
Y737000D01*
X817500Y722854D02*
Y737000D01*
X812500Y730471D02*
X814251Y728720D01*
X797500Y729896D02*
Y737000D01*
X792500Y716000D02*
X798428D01*
X791985Y710485D02*
X792500Y711000D01*
X785428Y724928D02*
X792532D01*
X784409Y711691D02*
X785616Y710485D01*
X784409Y711691D02*
Y717612D01*
X785616Y710485D02*
X791985D01*
X779387Y718887D02*
X785428Y724928D01*
X819500Y711000D02*
X819675Y711175D01*
X826764D02*
X828730Y713141D01*
X829371D01*
X819675Y711175D02*
X826764D01*
D64*
X795286Y802713D02*
X799770Y798230D01*
X800270D01*
X802000Y796500D01*
Y796000D02*
Y796500D01*
D65*
X874000Y638500D02*
Y656000D01*
X826000Y638500D02*
Y656000D01*
D66*
X879000Y626000D02*
D03*
X821000D02*
D03*
D67*
X806750Y631000D02*
D03*
X893250D02*
D03*
D68*
Y589000D02*
D03*
X806750D02*
D03*
D69*
X860699Y724435D02*
D03*
X856068Y621510D02*
D03*
X840651Y702164D02*
D03*
X829654Y731839D02*
D03*
X736166Y623935D02*
D03*
X756000Y627000D02*
D03*
X764000D02*
D03*
Y638000D02*
D03*
X756000D02*
D03*
X734977Y616068D02*
D03*
Y606068D02*
D03*
X750502Y723284D02*
D03*
X743977Y705068D02*
D03*
Y716068D02*
D03*
X757415Y719675D02*
D03*
X745209Y786306D02*
D03*
X744980Y796748D02*
D03*
X786000Y835000D02*
D03*
X771976Y838068D02*
D03*
X843000Y796000D02*
D03*
Y804000D02*
D03*
X843977Y819068D02*
D03*
Y829068D02*
D03*
X833977Y806068D02*
D03*
Y814068D02*
D03*
X829180Y840097D02*
D03*
X793000Y806000D02*
D03*
X861888Y754406D02*
D03*
X874000Y782000D02*
D03*
X908888Y772406D02*
D03*
X909000Y766000D02*
D03*
X919629Y776250D02*
D03*
X907565Y792917D02*
D03*
X908704Y799063D02*
D03*
X909000Y745000D02*
D03*
Y752000D02*
D03*
Y759000D02*
D03*
X900330Y735401D02*
D03*
X906663Y726936D02*
D03*
X763373Y747500D02*
D03*
X756125Y743125D02*
D03*
X759364Y752424D02*
D03*
X765935Y787781D02*
D03*
X771684Y780972D02*
D03*
X764964Y797366D02*
D03*
X767506Y824818D02*
D03*
X774788Y798224D02*
D03*
X764376Y781159D02*
D03*
X772246Y772500D02*
D03*
X801287Y727656D02*
D03*
X808976Y727509D02*
D03*
X780231Y788124D02*
D03*
X785601Y794007D02*
D03*
X903000Y782000D02*
D03*
X881000D02*
D03*
X889000D02*
D03*
X896000D02*
D03*
X771987Y757500D02*
D03*
X737500Y817500D02*
D03*
X893653Y759143D02*
D03*
X892056Y731862D02*
D03*
X899899Y720088D02*
D03*
X919809Y740812D02*
D03*
X800185Y828731D02*
D03*
X897500Y842500D02*
D03*
X907500D02*
D03*
X917500D02*
D03*
X841680Y842597D02*
D03*
X821680D02*
D03*
X814180D02*
D03*
X857842Y807250D02*
D03*
X737500Y722500D02*
D03*
X930342Y704750D02*
D03*
X950342Y679750D02*
D03*
X950000Y667500D02*
D03*
X927882Y729270D02*
D03*
X950342Y729750D02*
D03*
Y699750D02*
D03*
Y689750D02*
D03*
X940342Y697250D02*
D03*
X880342Y707250D02*
D03*
X905342D02*
D03*
X892842Y662250D02*
D03*
X910342D02*
D03*
Y649750D02*
D03*
Y637250D02*
D03*
Y624750D02*
D03*
X962842Y637250D02*
D03*
Y647250D02*
D03*
X949832Y650642D02*
D03*
X950015Y634897D02*
D03*
X950381Y617869D02*
D03*
X936649Y605786D02*
D03*
X965000Y585000D02*
D03*
X945000D02*
D03*
X832500Y680000D02*
D03*
X932798Y772177D02*
D03*
X902842Y807250D02*
D03*
X880342D02*
D03*
X902842Y822250D02*
D03*
X880342D02*
D03*
X857500Y822500D02*
D03*
X887500Y842500D02*
D03*
X875000D02*
D03*
X862500D02*
D03*
X852500D02*
D03*
X832500Y832500D02*
D03*
X869720Y586750D02*
D03*
X827842Y587250D02*
D03*
X895342Y609750D02*
D03*
X880342D02*
D03*
X850000Y610000D02*
D03*
X815000D02*
D03*
X797842Y609750D02*
D03*
X747842Y584750D02*
D03*
X735000Y585000D02*
D03*
Y595000D02*
D03*
X734000Y647000D02*
D03*
Y663000D02*
D03*
Y677000D02*
D03*
X737500Y690000D02*
D03*
Y710000D02*
D03*
Y757500D02*
D03*
Y767500D02*
D03*
Y700000D02*
D03*
Y777500D02*
D03*
X750000Y817500D02*
D03*
X737500Y827500D02*
D03*
X760000D02*
D03*
X779000Y835000D02*
D03*
X795000Y842500D02*
D03*
Y835000D02*
D03*
X750000Y827500D02*
D03*
X743271Y665627D02*
D03*
X912500Y720000D02*
D03*
X932500Y757500D02*
D03*
X892500Y675000D02*
D03*
Y685000D02*
D03*
Y695000D02*
D03*
X887500Y720000D02*
D03*
X862500Y707500D02*
D03*
X787500Y692500D02*
D03*
X766153Y711643D02*
D03*
X838000Y782000D02*
D03*
X802500Y667500D02*
D03*
X815000D02*
D03*
X822500D02*
D03*
X812652Y749848D02*
D03*
X801153Y764143D02*
D03*
X801000Y771886D02*
D03*
X780000Y692500D02*
D03*
X840000Y665000D02*
D03*
X812500Y817500D02*
D03*
Y825000D02*
D03*
X782750Y843000D02*
D03*
X874000Y665000D02*
D03*
X844000Y623000D02*
D03*
X770771Y668127D02*
D03*
X751000Y664000D02*
D03*
X778000Y667000D02*
D03*
X912693Y739838D02*
D03*
X926433Y739656D02*
D03*
X760837Y738750D02*
D03*
X838250Y773143D02*
D03*
X954000Y708000D02*
D03*
X838370Y695422D02*
D03*
X832500Y701000D02*
D03*
X767087Y738750D02*
D03*
X957991Y714176D02*
D03*
X865000Y670000D02*
D03*
X874000Y656000D02*
D03*
X868659Y684545D02*
D03*
X869000Y675000D02*
D03*
X830000Y667500D02*
D03*
X826000Y656000D02*
D03*
X865000Y690000D02*
D03*
X788000Y627000D02*
D03*
X782000D02*
D03*
X795000D02*
D03*
X734000Y630000D02*
D03*
X794916Y618525D02*
D03*
X829371Y713141D02*
D03*
X864993Y625117D02*
D03*
X837500Y625000D02*
D03*
M02*
