G04*
G04 #@! TF.GenerationSoftware,Altium Limited,Altium Designer,22.10.1 (41)*
G04*
G04 Layer_Color=8421504*
%FSLAX44Y44*%
%MOMM*%
G71*
G04*
G04 #@! TF.SameCoordinates,35C75811-A236-4261-A3B1-3B9E0A362E8F*
G04*
G04*
G04 #@! TF.FilePolarity,Positive*
G04*
G01*
G75*
%ADD16R,0.2000X1.6000*%
G04:AMPARAMS|DCode=17|XSize=0.25mm|YSize=0.7mm|CornerRadius=0.0125mm|HoleSize=0mm|Usage=FLASHONLY|Rotation=270.000|XOffset=0mm|YOffset=0mm|HoleType=Round|Shape=RoundedRectangle|*
%AMROUNDEDRECTD17*
21,1,0.2500,0.6750,0,0,270.0*
21,1,0.2250,0.7000,0,0,270.0*
1,1,0.0250,-0.3375,-0.1125*
1,1,0.0250,-0.3375,0.1125*
1,1,0.0250,0.3375,0.1125*
1,1,0.0250,0.3375,-0.1125*
%
%ADD17ROUNDEDRECTD17*%
G04:AMPARAMS|DCode=18|XSize=0.25mm|YSize=0.7mm|CornerRadius=0.0125mm|HoleSize=0mm|Usage=FLASHONLY|Rotation=0.000|XOffset=0mm|YOffset=0mm|HoleType=Round|Shape=RoundedRectangle|*
%AMROUNDEDRECTD18*
21,1,0.2500,0.6750,0,0,0.0*
21,1,0.2250,0.7000,0,0,0.0*
1,1,0.0250,0.1125,-0.3375*
1,1,0.0250,-0.1125,-0.3375*
1,1,0.0250,-0.1125,0.3375*
1,1,0.0250,0.1125,0.3375*
%
%ADD18ROUNDEDRECTD18*%
G04:AMPARAMS|DCode=19|XSize=2.9mm|YSize=2.9mm|CornerRadius=0.145mm|HoleSize=0mm|Usage=FLASHONLY|Rotation=90.000|XOffset=0mm|YOffset=0mm|HoleType=Round|Shape=RoundedRectangle|*
%AMROUNDEDRECTD19*
21,1,2.9000,2.6100,0,0,90.0*
21,1,2.6100,2.9000,0,0,90.0*
1,1,0.2900,1.3050,1.3050*
1,1,0.2900,1.3050,-1.3050*
1,1,0.2900,-1.3050,-1.3050*
1,1,0.2900,-1.3050,1.3050*
%
%ADD19ROUNDEDRECTD19*%
%ADD20R,0.6000X0.7000*%
%ADD21R,0.6000X1.5000*%
%ADD22R,0.3000X1.5000*%
%ADD23R,0.3000X0.9900*%
G04:AMPARAMS|DCode=24|XSize=0.9mm|YSize=0.8mm|CornerRadius=0.04mm|HoleSize=0mm|Usage=FLASHONLY|Rotation=270.000|XOffset=0mm|YOffset=0mm|HoleType=Round|Shape=RoundedRectangle|*
%AMROUNDEDRECTD24*
21,1,0.9000,0.7200,0,0,270.0*
21,1,0.8200,0.8000,0,0,270.0*
1,1,0.0800,-0.3600,-0.4100*
1,1,0.0800,-0.3600,0.4100*
1,1,0.0800,0.3600,0.4100*
1,1,0.0800,0.3600,-0.4100*
%
%ADD24ROUNDEDRECTD24*%
%ADD25R,0.7000X0.6000*%
%ADD26R,0.9000X0.3000*%
%ADD27R,0.0500X1.4500*%
%ADD28R,0.6500X1.0500*%
%ADD29R,1.0500X0.5500*%
%ADD30R,0.2000X0.6000*%
%ADD31R,0.9900X0.3500*%
D16*
X805997Y708498D02*
D03*
D17*
X829000Y747500D02*
D03*
Y742500D02*
D03*
X781000Y777500D02*
D03*
Y772500D02*
D03*
Y767500D02*
D03*
Y762500D02*
D03*
Y757500D02*
D03*
Y752500D02*
D03*
Y747500D02*
D03*
Y742500D02*
D03*
X829000Y752500D02*
D03*
Y757500D02*
D03*
Y762500D02*
D03*
Y767500D02*
D03*
Y772500D02*
D03*
Y777500D02*
D03*
D18*
X822500Y784000D02*
D03*
X817500D02*
D03*
X812500D02*
D03*
X807500D02*
D03*
X802500D02*
D03*
X797500D02*
D03*
X792500D02*
D03*
X787500D02*
D03*
Y736000D02*
D03*
X792500D02*
D03*
X797500D02*
D03*
X802500D02*
D03*
X807500D02*
D03*
X812500D02*
D03*
X817500D02*
D03*
X822500D02*
D03*
D19*
X805000Y760000D02*
D03*
D20*
X880000Y715000D02*
D03*
X870000D02*
D03*
X880000Y725000D02*
D03*
X870000D02*
D03*
X764880Y767620D02*
D03*
X754880D02*
D03*
X766500Y676500D02*
D03*
X776500D02*
D03*
X772000Y618000D02*
D03*
X782000D02*
D03*
X802000Y796000D02*
D03*
X812000D02*
D03*
X859000Y766000D02*
D03*
X849000D02*
D03*
X834000Y796000D02*
D03*
X824000D02*
D03*
X834000Y824000D02*
D03*
X824000D02*
D03*
X792000Y817000D02*
D03*
X802000D02*
D03*
X802000Y807000D02*
D03*
X812000D02*
D03*
X772000Y729000D02*
D03*
X762000D02*
D03*
X763000Y701000D02*
D03*
X773000D02*
D03*
X945000Y740000D02*
D03*
X955000D02*
D03*
X945000Y752500D02*
D03*
X955000D02*
D03*
X744500Y676500D02*
D03*
X754500D02*
D03*
X955000Y607500D02*
D03*
X945000D02*
D03*
X808000Y677000D02*
D03*
X798000D02*
D03*
X777000Y637000D02*
D03*
X787000D02*
D03*
D21*
X826000Y638500D02*
D03*
X818000D02*
D03*
X882000D02*
D03*
X874000D02*
D03*
D22*
X832500D02*
D03*
X837500D02*
D03*
X842500D02*
D03*
X867500D02*
D03*
X862500D02*
D03*
X857500D02*
D03*
X852500D02*
D03*
X847500D02*
D03*
D23*
X856000Y690050D02*
D03*
X851000D02*
D03*
X846000D02*
D03*
Y673950D02*
D03*
X851000D02*
D03*
X856000D02*
D03*
D24*
X884750Y768250D02*
D03*
Y749750D02*
D03*
X899250Y768250D02*
D03*
Y749750D02*
D03*
D25*
X824000Y805000D02*
D03*
Y815000D02*
D03*
X925000Y770000D02*
D03*
Y760000D02*
D03*
X744500Y646500D02*
D03*
Y656500D02*
D03*
Y634500D02*
D03*
Y624500D02*
D03*
X753000Y602000D02*
D03*
Y612000D02*
D03*
X763000Y602000D02*
D03*
Y612000D02*
D03*
X872000Y773000D02*
D03*
Y763000D02*
D03*
Y745000D02*
D03*
Y755000D02*
D03*
X847000Y787000D02*
D03*
Y777000D02*
D03*
X858000Y787000D02*
D03*
Y777000D02*
D03*
X782000Y807000D02*
D03*
Y817000D02*
D03*
X925000Y792500D02*
D03*
Y782500D02*
D03*
D26*
X819500Y716000D02*
D03*
Y711000D02*
D03*
Y706000D02*
D03*
Y701000D02*
D03*
X792500Y716000D02*
D03*
Y711000D02*
D03*
Y706000D02*
D03*
Y701000D02*
D03*
D27*
X806000Y708500D02*
D03*
D28*
X963250Y820750D02*
D03*
Y779250D02*
D03*
X941750Y820750D02*
D03*
Y779250D02*
D03*
X960750Y725750D02*
D03*
Y684250D02*
D03*
X939250Y725750D02*
D03*
Y684250D02*
D03*
Y621250D02*
D03*
Y662750D02*
D03*
X960750Y621250D02*
D03*
Y662750D02*
D03*
D29*
X905000Y675500D02*
D03*
Y685000D02*
D03*
Y694500D02*
D03*
X880000D02*
D03*
Y685000D02*
D03*
Y675500D02*
D03*
D30*
X789000Y659500D02*
D03*
X785000D02*
D03*
X781000D02*
D03*
Y646500D02*
D03*
X785000D02*
D03*
X789000D02*
D03*
D31*
X785000Y653000D02*
D03*
M02*
