G04*
G04 #@! TF.GenerationSoftware,Altium Limited,Altium Designer,22.10.1 (41)*
G04*
G04 Layer_Physical_Order=4*
G04 Layer_Color=16711680*
%FSLAX44Y44*%
%MOMM*%
G71*
G04*
G04 #@! TF.SameCoordinates,35C75811-A236-4261-A3B1-3B9E0A362E8F*
G04*
G04*
G04 #@! TF.FilePolarity,Positive*
G04*
G01*
G75*
%ADD12C,0.2500*%
%ADD20R,0.6000X0.7000*%
%ADD23R,0.3000X0.9900*%
%ADD25R,0.7000X0.6000*%
%ADD53R,2.0000X2.0000*%
%ADD61C,0.1100*%
%ADD63C,0.1250*%
%ADD66C,0.6000*%
%ADD67O,1.0000X2.2000*%
%ADD68O,1.0000X1.9000*%
%ADD69C,0.5000*%
%ADD75R,0.7500X0.3000*%
%ADD76R,1.4500X1.7500*%
%ADD77R,0.3000X0.8000*%
%ADD78R,0.8000X0.3000*%
%ADD79R,0.6000X0.3000*%
%ADD80R,0.3000X0.6000*%
%ADD81C,0.1650*%
G36*
X928343Y844136D02*
X929759Y841487D01*
X931664Y839164D01*
X933987Y837259D01*
X936636Y835843D01*
X939510Y834971D01*
X942500Y834676D01*
Y834696D01*
X967500D01*
X967544Y834705D01*
X969304Y834355D01*
X970833Y833333D01*
X971855Y831804D01*
X972205Y830044D01*
X972196Y830000D01*
Y580000D01*
X972165D01*
X972000Y579172D01*
X971531Y578469D01*
X970828Y578000D01*
X970000Y577835D01*
Y577804D01*
X928310D01*
X927643Y579413D01*
X926241Y581241D01*
X924413Y582643D01*
X922284Y583525D01*
X920000Y583825D01*
X920000Y583825D01*
X917716Y583525D01*
X915587Y582643D01*
X913759Y581241D01*
X912357Y579413D01*
X911691Y577804D01*
X898078D01*
X897471Y579804D01*
X897756Y579994D01*
X899137Y582061D01*
X899622Y584500D01*
Y593500D01*
X899137Y595939D01*
X897756Y598006D01*
X895689Y599387D01*
X893250Y599872D01*
X890811Y599387D01*
X888744Y598006D01*
X887363Y595939D01*
X886878Y593500D01*
Y584500D01*
X887363Y582061D01*
X888744Y579994D01*
X889028Y579804D01*
X888422Y577804D01*
X811578D01*
X810972Y579804D01*
X811256Y579994D01*
X812637Y582061D01*
X813122Y584500D01*
Y593500D01*
X812637Y595939D01*
X811256Y598006D01*
X809189Y599387D01*
X806750Y599872D01*
X804311Y599387D01*
X802244Y598006D01*
X800863Y595939D01*
X800378Y593500D01*
Y584500D01*
X800863Y582061D01*
X802244Y579994D01*
X802529Y579804D01*
X801922Y577804D01*
X788309D01*
X787643Y579413D01*
X786241Y581241D01*
X784413Y582643D01*
X782284Y583525D01*
X780000Y583825D01*
X777716Y583525D01*
X775587Y582643D01*
X773759Y581241D01*
X772357Y579413D01*
X771690Y577804D01*
X730000Y577804D01*
Y577835D01*
X729172Y578000D01*
X728469Y578469D01*
X728000Y579172D01*
X727835Y580000D01*
X727804D01*
Y830000D01*
X727795Y830044D01*
X728145Y831804D01*
X729167Y833333D01*
X730696Y834355D01*
X732456Y834705D01*
X732500Y834696D01*
X757500D01*
Y834676D01*
X760490Y834971D01*
X763364Y835843D01*
X766013Y837259D01*
X768336Y839164D01*
X770241Y841487D01*
X771657Y844136D01*
X772071Y845500D01*
X927929D01*
X928343Y844136D01*
D02*
G37*
%LPC*%
G36*
X768251Y828568D02*
X766760D01*
X765381Y827997D01*
X764326Y826942D01*
X763756Y825564D01*
Y824072D01*
X763889Y823750D01*
X762750Y821750D01*
X762750D01*
Y819335D01*
X762070D01*
X761368Y819195D01*
X760772Y818798D01*
X751508Y809533D01*
X751110Y808938D01*
X750971Y808236D01*
Y806750D01*
X747750D01*
Y804335D01*
X742250D01*
Y806750D01*
X732750D01*
Y798750D01*
X732750Y798250D01*
Y796750D01*
X732750Y796250D01*
Y788250D01*
X735665D01*
Y786918D01*
X735804Y786216D01*
X736202Y785621D01*
X741962Y779861D01*
X742557Y779463D01*
X743260Y779323D01*
X761078D01*
X761197Y779034D01*
X762252Y777980D01*
X762417Y777911D01*
X762895Y775561D01*
X762482Y775147D01*
X762084Y774552D01*
X761944Y773850D01*
Y753895D01*
X762084Y753193D01*
X762147Y753098D01*
X761831Y751415D01*
X761477Y750773D01*
X761249Y750679D01*
X760194Y749624D01*
X760074Y749335D01*
X749750D01*
Y751750D01*
X740250D01*
Y743750D01*
X740250Y743250D01*
Y741750D01*
X740250Y741250D01*
Y733250D01*
X743165D01*
Y728785D01*
X743305Y728083D01*
X743702Y727488D01*
X746871Y724319D01*
X746752Y724030D01*
Y722538D01*
X747322Y721160D01*
X748377Y720105D01*
X749756Y719534D01*
X751247D01*
X752626Y720105D01*
X753681Y721160D01*
X754252Y722538D01*
Y724030D01*
X753681Y725408D01*
X752626Y726463D01*
X751247Y727034D01*
X749756D01*
X749467Y726914D01*
X746835Y729546D01*
Y733250D01*
X749750D01*
Y741250D01*
X749750Y741750D01*
Y743250D01*
X749750Y743665D01*
X749782Y743974D01*
X750525Y744233D01*
X752375Y742759D01*
Y742379D01*
X752946Y741001D01*
X754001Y739946D01*
X754213Y739858D01*
Y736875D01*
X754359Y736143D01*
X754773Y735523D01*
X801195Y689101D01*
X801815Y688687D01*
X802547Y688541D01*
X852008D01*
X852739Y688687D01*
X853360Y689101D01*
X876523Y712265D01*
X954724D01*
X954812Y712052D01*
X955867Y710997D01*
X957245Y710426D01*
X958737D01*
X960116Y710997D01*
X961171Y712052D01*
X961741Y713430D01*
Y714922D01*
X961171Y716301D01*
X960116Y717355D01*
X958737Y717926D01*
X957245D01*
X955867Y717355D01*
X954812Y716301D01*
X954724Y716088D01*
X875731D01*
X874999Y715943D01*
X874379Y715528D01*
X851216Y692365D01*
X846369D01*
X845540Y694365D01*
X869186Y718011D01*
X869739Y718838D01*
X869933Y719813D01*
X870370Y720250D01*
X871994D01*
X873460Y718960D01*
X874716Y718960D01*
X877730D01*
Y725000D01*
Y731040D01*
X873460D01*
X872071Y729817D01*
X870250Y730376D01*
Y739750D01*
X878960D01*
Y735460D01*
X883730D01*
Y741000D01*
X885000D01*
Y742270D01*
X891040D01*
Y746540D01*
X889750Y746750D01*
Y755250D01*
X881040D01*
Y756230D01*
X874500D01*
X867960D01*
Y753460D01*
X867960D01*
Y751540D01*
X867960D01*
Y746832D01*
X866112Y746067D01*
X862877Y749302D01*
X862050Y749855D01*
X861074Y750049D01*
X850750D01*
Y759250D01*
X867960D01*
Y758770D01*
X873230D01*
Y761540D01*
X870250D01*
Y769750D01*
X849750D01*
Y760250D01*
X840799D01*
Y770388D01*
X841429Y771018D01*
X842000Y772397D01*
Y773888D01*
X841429Y775267D01*
X840374Y776322D01*
X838996Y776893D01*
X837504D01*
X836126Y776322D01*
X836040Y776236D01*
X834040Y777064D01*
Y779230D01*
X828500D01*
Y781770D01*
X834040D01*
Y785582D01*
X834040Y786540D01*
X835608Y787582D01*
X867378D01*
X868110Y787728D01*
X868730Y788142D01*
X873224Y792636D01*
X903815D01*
Y792171D01*
X904386Y790793D01*
X905441Y789738D01*
X906820Y789167D01*
X908311D01*
X909690Y789738D01*
X910744Y790793D01*
X911315Y792171D01*
Y793663D01*
X910744Y795041D01*
X909690Y796096D01*
X908311Y796667D01*
X906820D01*
X905796Y796243D01*
X905690Y796314D01*
X904958Y796460D01*
X872432D01*
X871701Y796314D01*
X871080Y795900D01*
X866586Y791406D01*
X811088D01*
X807135Y795359D01*
X806515Y795773D01*
X805783Y795919D01*
X788868D01*
X788781Y796131D01*
X787726Y797186D01*
X786347Y797757D01*
X784855D01*
X783477Y797186D01*
X782422Y796131D01*
X781851Y794753D01*
Y793677D01*
X781502Y792957D01*
X780261Y791874D01*
X779485D01*
X778107Y791303D01*
X777052Y790248D01*
X776481Y788870D01*
Y787378D01*
X777052Y786000D01*
X777926Y785126D01*
X778186Y784639D01*
X776839Y782807D01*
X774983D01*
X774863Y783096D01*
X773808Y784151D01*
X773133Y784431D01*
Y789108D01*
X772993Y789811D01*
X772595Y790406D01*
X769204Y793798D01*
X768608Y794196D01*
X767906Y794335D01*
X757456D01*
X757250Y796335D01*
X757250Y798250D01*
X757250Y798750D01*
Y806750D01*
X756744D01*
X755916Y808750D01*
X760986Y813821D01*
X762750Y813091D01*
Y811750D01*
X762750Y811250D01*
Y803250D01*
X765695D01*
Y802398D01*
X765835Y801695D01*
X766232Y801100D01*
X770113Y797219D01*
X770709Y796821D01*
X771364Y796691D01*
X771609Y796100D01*
X772664Y795045D01*
X774042Y794474D01*
X775534D01*
X776912Y795045D01*
X777967Y796100D01*
X778538Y797479D01*
Y798970D01*
X777967Y800349D01*
X776912Y801404D01*
X775534Y801974D01*
X774042D01*
X773675Y801823D01*
X772212Y803150D01*
X772250Y803250D01*
X772250D01*
Y811250D01*
X772250Y811750D01*
Y813250D01*
X772250Y813750D01*
Y821750D01*
X772250D01*
X771122Y823750D01*
X771256Y824072D01*
Y825564D01*
X770685Y826942D01*
X769630Y827997D01*
X768251Y828568D01*
D02*
G37*
G36*
X968540Y831540D02*
X957270D01*
Y820270D01*
X968540D01*
Y831540D01*
D02*
G37*
G36*
X954730D02*
X943460D01*
Y820270D01*
X954730D01*
Y831540D01*
D02*
G37*
G36*
X881040Y761540D02*
X875770D01*
Y758770D01*
X881040D01*
Y761540D01*
D02*
G37*
G36*
X956000Y819000D02*
D01*
Y817730D01*
X943460D01*
Y806460D01*
X944750D01*
Y797835D01*
X926072D01*
X925370Y797696D01*
X924775Y797298D01*
X913705Y786228D01*
X913307Y785633D01*
X913167Y784930D01*
Y773250D01*
X912250D01*
Y760850D01*
X927750D01*
Y764934D01*
X930548D01*
X942996Y752487D01*
X943682Y752029D01*
X944492Y751868D01*
X944750D01*
Y738750D01*
X967250D01*
Y761250D01*
X967250D01*
Y761750D01*
X967250D01*
Y784250D01*
X967250D01*
Y784750D01*
X967250D01*
Y806460D01*
X968540D01*
Y817730D01*
X956000D01*
Y819000D01*
D02*
G37*
G36*
X918730Y758440D02*
X915960D01*
Y757150D01*
X912250D01*
Y744750D01*
X911086Y743232D01*
X910568Y743017D01*
X909513Y741963D01*
X908943Y740584D01*
Y739092D01*
X909513Y737714D01*
X910568Y736659D01*
X911947Y736088D01*
X913438D01*
X914817Y736659D01*
X915872Y737714D01*
X916443Y739092D01*
Y740584D01*
X916014Y741619D01*
X916298Y741903D01*
X916696Y742499D01*
X916835Y743201D01*
Y743460D01*
X918730D01*
Y750950D01*
Y758440D01*
D02*
G37*
G36*
X924040D02*
X921270D01*
Y750950D01*
Y743460D01*
X922106D01*
X922625Y742700D01*
X923122Y741460D01*
X922683Y740402D01*
Y738910D01*
X923254Y737532D01*
X924309Y736477D01*
X925687Y735906D01*
X927179D01*
X928558Y736477D01*
X929612Y737532D01*
X930183Y738910D01*
Y740402D01*
X929612Y741780D01*
X928558Y742835D01*
X928369Y742913D01*
X927750Y744750D01*
X927750Y744750D01*
X927750Y744750D01*
Y757150D01*
X924040D01*
Y758440D01*
D02*
G37*
G36*
X891040Y739730D02*
X886270D01*
Y735460D01*
X891040D01*
Y739730D01*
D02*
G37*
G36*
X880270Y731040D02*
Y726270D01*
X884540D01*
Y731040D01*
X880270D01*
D02*
G37*
G36*
X884540Y723730D02*
X880270D01*
Y718960D01*
X884540D01*
Y723730D01*
D02*
G37*
G36*
X869405Y688295D02*
X867913D01*
X866535Y687724D01*
X865480Y686669D01*
X865392Y686457D01*
X793725D01*
X792994Y686311D01*
X792373Y685897D01*
X784870Y678393D01*
X784455Y677773D01*
X784310Y677041D01*
Y676013D01*
X778958Y670662D01*
X778746Y670750D01*
X777254D01*
X775876Y670179D01*
X774821Y669124D01*
X774250Y667746D01*
Y666254D01*
X774821Y664876D01*
X775090Y664607D01*
X775010Y662180D01*
X774370Y661685D01*
X773670Y661883D01*
X769750Y665802D01*
X768923Y666355D01*
X767948Y666549D01*
X753754D01*
X753124Y667179D01*
X751746Y667750D01*
X750254D01*
X748876Y667179D01*
X747821Y666124D01*
X747250Y664746D01*
Y663254D01*
X747821Y661876D01*
X747947Y661750D01*
X747118Y659750D01*
X739750D01*
Y650250D01*
X741451D01*
Y643750D01*
X740254D01*
Y638250D01*
X740254D01*
Y637900D01*
X740254D01*
Y633390D01*
X738964D01*
Y629000D01*
X736964Y627664D01*
X736912Y627685D01*
X735421D01*
X734042Y627114D01*
X732987Y626059D01*
X732416Y624681D01*
Y623189D01*
X732987Y621811D01*
X734042Y620756D01*
X735421Y620185D01*
X736912D01*
X738291Y620756D01*
X740254Y620750D01*
Y620750D01*
X750254D01*
Y620960D01*
X758484D01*
Y632250D01*
Y643540D01*
X750254D01*
Y643750D01*
X746549D01*
Y648745D01*
X748460Y648960D01*
X748460Y648960D01*
X752730D01*
Y655000D01*
X755270D01*
Y648960D01*
X763730D01*
Y655000D01*
X766270D01*
Y648960D01*
X768218D01*
X768671Y648425D01*
X769321Y646960D01*
X769118Y646471D01*
Y643540D01*
X761023D01*
Y632250D01*
Y620960D01*
X768647D01*
X768647Y617159D01*
X768238Y616750D01*
X763006D01*
X761540Y618040D01*
X760284Y618040D01*
X757270D01*
Y612000D01*
Y605960D01*
X761540D01*
X763006Y607250D01*
X764837D01*
X769668Y602419D01*
X769960Y600540D01*
X769960Y599284D01*
Y596270D01*
X776000D01*
Y595000D01*
X777270D01*
Y589460D01*
X785730D01*
Y595000D01*
X787000D01*
Y596270D01*
X793040D01*
Y599284D01*
X793040Y600540D01*
X792353Y602255D01*
X792353Y602540D01*
Y631460D01*
X796040D01*
Y635730D01*
X790000D01*
X783960D01*
Y632850D01*
X780385D01*
X779353Y634573D01*
Y640440D01*
X781653Y642740D01*
X782043D01*
X783960Y642540D01*
Y638270D01*
X790000D01*
X796040D01*
Y642540D01*
X796040D01*
X795498Y644540D01*
X802104Y652134D01*
X807000D01*
X807280Y652250D01*
X808250Y652250D01*
X810429Y652250D01*
X816187Y646872D01*
X816187Y645032D01*
X814960Y643540D01*
X814960Y642284D01*
Y638014D01*
X812960Y637817D01*
X812637Y639439D01*
X811256Y641506D01*
X809189Y642887D01*
X806750Y643372D01*
X804311Y642887D01*
X802244Y641506D01*
X800863Y639439D01*
X800378Y637000D01*
Y625000D01*
X800863Y622561D01*
X802244Y620494D01*
X804311Y619113D01*
X806750Y618628D01*
X809189Y619113D01*
X811256Y620494D01*
X812637Y622561D01*
X813122Y625000D01*
Y632068D01*
X814960Y632460D01*
X815123Y632460D01*
X819730D01*
Y638000D01*
X822270D01*
Y632460D01*
X829730D01*
Y638000D01*
X831000D01*
Y639270D01*
X837040D01*
Y642284D01*
X837040Y643540D01*
X836353Y645255D01*
X836353Y645540D01*
Y651552D01*
X876424D01*
X876894Y651747D01*
X877367Y651935D01*
X877371Y651945D01*
X877381Y651949D01*
X877576Y652418D01*
X877777Y652886D01*
X877874Y659516D01*
X877872Y659520D01*
X877874Y659525D01*
X877681Y660001D01*
X877492Y660478D01*
X877487Y660480D01*
X877485Y660485D01*
X876593Y661390D01*
X876589Y661392D01*
X876587Y661397D01*
X876112Y661593D01*
X875640Y661793D01*
X875635Y661791D01*
X875630Y661793D01*
X815850D01*
X815746Y663750D01*
X816154Y663919D01*
X817124Y664321D01*
X818179Y665376D01*
X818750Y666754D01*
Y668149D01*
X823052Y672451D01*
X866246D01*
X866876Y671821D01*
X868254Y671250D01*
X869746D01*
X871124Y671821D01*
X872179Y672876D01*
X872750Y674254D01*
Y675746D01*
X872179Y677124D01*
X871124Y678179D01*
X869746Y678750D01*
X868254D01*
X866876Y678179D01*
X866246Y677549D01*
X821997D01*
X821021Y677355D01*
X820194Y676802D01*
X814642Y671250D01*
X814254D01*
X812876Y670679D01*
X811821Y669624D01*
X811250Y668246D01*
Y666754D01*
X811821Y665376D01*
X812876Y664321D01*
X813846Y663919D01*
X814254Y663750D01*
X814150Y661793D01*
X811000D01*
X810897Y661750D01*
X809750Y661750D01*
X808250D01*
X807750Y661750D01*
X807134D01*
X807000Y661805D01*
X795040D01*
Y664730D01*
X789000D01*
Y666000D01*
X787730D01*
Y671846D01*
X787091Y673388D01*
X787573Y673870D01*
X787988Y674490D01*
X788133Y675221D01*
Y676249D01*
X794517Y682633D01*
X865392D01*
X865480Y682421D01*
X866535Y681366D01*
X867913Y680795D01*
X869405D01*
X870783Y681366D01*
X871838Y682421D01*
X872409Y683799D01*
Y685291D01*
X871838Y686669D01*
X870783Y687724D01*
X869405Y688295D01*
D02*
G37*
G36*
X795040Y671540D02*
X790270D01*
Y667270D01*
X795040D01*
Y671540D01*
D02*
G37*
G36*
X837040Y636730D02*
X832270D01*
Y632460D01*
X837040D01*
Y636730D01*
D02*
G37*
G36*
X879845Y630250D02*
X878155D01*
X876593Y629603D01*
X875397Y628407D01*
X874750Y626845D01*
Y625155D01*
X875397Y623593D01*
X876593Y622397D01*
X878155Y621750D01*
X879845D01*
X881407Y622397D01*
X882603Y623593D01*
X883250Y625155D01*
Y626845D01*
X882603Y628407D01*
X881407Y629603D01*
X879845Y630250D01*
D02*
G37*
G36*
X821845D02*
X820155D01*
X818593Y629603D01*
X817397Y628407D01*
X816750Y626845D01*
Y625155D01*
X817397Y623593D01*
X818593Y622397D01*
X820155Y621750D01*
X821845D01*
X823407Y622397D01*
X824603Y623593D01*
X825250Y625155D01*
Y626845D01*
X824603Y628407D01*
X823407Y629603D01*
X821845Y630250D01*
D02*
G37*
G36*
X893250Y643372D02*
X890811Y642887D01*
X888744Y641506D01*
X887363Y639439D01*
X886878Y637000D01*
Y625000D01*
X887363Y622561D01*
X888744Y620494D01*
X890811Y619113D01*
X893250Y618628D01*
X895689Y619113D01*
X897756Y620494D01*
X899137Y622561D01*
X899622Y625000D01*
Y637000D01*
X899137Y639439D01*
X897756Y641506D01*
X895689Y642887D01*
X893250Y643372D01*
D02*
G37*
G36*
X754730Y618040D02*
X750460D01*
Y613270D01*
X754730D01*
Y618040D01*
D02*
G37*
G36*
X838246Y628750D02*
X836754D01*
X835376Y628179D01*
X834321Y627124D01*
X833750Y625746D01*
Y624254D01*
X834321Y622876D01*
X835376Y621821D01*
X835665Y621701D01*
Y619250D01*
X832750D01*
Y612006D01*
X831460Y610540D01*
X831460Y609284D01*
Y606270D01*
X837500D01*
X843540D01*
Y610540D01*
X842250Y612006D01*
Y619250D01*
X839335D01*
Y621701D01*
X839624Y621821D01*
X840679Y622876D01*
X841250Y624254D01*
Y625746D01*
X840679Y627124D01*
X839624Y628179D01*
X838246Y628750D01*
D02*
G37*
G36*
X754730Y610730D02*
X750460D01*
Y605960D01*
X754730D01*
Y610730D01*
D02*
G37*
G36*
X865739Y628867D02*
X864247D01*
X862869Y628296D01*
X861814Y627241D01*
X861243Y625863D01*
Y624371D01*
X861814Y622993D01*
X862869Y621938D01*
X863158Y621818D01*
Y619250D01*
X860250D01*
Y612006D01*
X858960Y610540D01*
X858960Y609284D01*
Y606270D01*
X865000D01*
Y605000D01*
D01*
Y606270D01*
X871040D01*
Y610540D01*
X869750Y612006D01*
Y619250D01*
X866828D01*
Y621818D01*
X867117Y621938D01*
X868172Y622993D01*
X868743Y624371D01*
Y625863D01*
X868172Y627241D01*
X867117Y628296D01*
X865739Y628867D01*
D02*
G37*
G36*
X871040Y603730D02*
X866270D01*
Y599460D01*
X871040D01*
Y603730D01*
D02*
G37*
G36*
X863730D02*
X858960D01*
Y599460D01*
X863730D01*
Y603730D01*
D02*
G37*
G36*
X843540Y603730D02*
X838770D01*
Y599460D01*
X843540D01*
Y603730D01*
D02*
G37*
G36*
X836230D02*
X831460D01*
Y599460D01*
X836230D01*
Y603730D01*
D02*
G37*
G36*
X793040Y593730D02*
X788270D01*
Y589460D01*
X793040D01*
Y593730D01*
D02*
G37*
G36*
X774730Y593730D02*
X769960D01*
Y589460D01*
X774730D01*
Y593730D01*
D02*
G37*
%LPD*%
G36*
X747750Y798665D02*
X747750Y796750D01*
X747750Y796250D01*
Y788250D01*
X757250D01*
Y790665D01*
X767146D01*
X769462Y788348D01*
Y784441D01*
X767669Y783554D01*
X766817Y784022D01*
X766501Y784338D01*
X765122Y784909D01*
X763631D01*
X762252Y784338D01*
X761197Y783283D01*
X761078Y782994D01*
X744020D01*
X740764Y786250D01*
X741592Y788250D01*
X742250D01*
Y796250D01*
X742250Y796750D01*
Y798250D01*
X742250Y798665D01*
X742456Y800665D01*
X747544D01*
X747750Y798665D01*
D02*
G37*
G36*
X804972Y784750D02*
X804144Y782750D01*
X797540D01*
Y784040D01*
X794770D01*
Y778500D01*
X793500D01*
Y777230D01*
X789460D01*
Y775689D01*
X787460Y774855D01*
X786012Y775382D01*
X779747Y781647D01*
X779356Y782038D01*
X779072Y782585D01*
X780445Y784374D01*
X780977D01*
X782355Y784945D01*
X783410Y786000D01*
X783530Y786289D01*
X803433D01*
X804972Y784750D01*
D02*
G37*
G36*
X805750Y771040D02*
X804460D01*
Y768270D01*
X810000D01*
Y765730D01*
X804460D01*
Y762960D01*
X805750D01*
Y759750D01*
X796250D01*
Y764250D01*
Y769250D01*
Y772960D01*
X797540D01*
Y774250D01*
X805750D01*
Y771040D01*
D02*
G37*
G36*
X828560Y746335D02*
X827731Y744335D01*
X782876D01*
X782401Y745011D01*
X783439Y747010D01*
X801848D01*
X802551Y747150D01*
X803146Y747548D01*
X804793Y749195D01*
X805191Y749791D01*
X805331Y750493D01*
Y751250D01*
X811250D01*
Y752951D01*
X814000D01*
X814975Y753145D01*
X815802Y753698D01*
X817855Y755750D01*
X819145D01*
X828560Y746335D01*
D02*
G37*
G36*
X775615Y739464D02*
X774787Y737464D01*
X772684D01*
X770837Y738004D01*
Y739496D01*
X770266Y740874D01*
X769211Y741929D01*
X767833Y742500D01*
X766341D01*
X764962Y741929D01*
X763907Y740874D01*
X763337Y739496D01*
Y738004D01*
X763907Y736626D01*
X764962Y735571D01*
X766341Y735000D01*
X767833D01*
X768161Y735136D01*
X769096Y734200D01*
X769717Y733786D01*
X770448Y733640D01*
X809970D01*
X810335Y733106D01*
X810170Y732610D01*
X809174Y731259D01*
X808230D01*
X806852Y730688D01*
X806430Y730265D01*
X805024Y729918D01*
X803920Y730327D01*
X803411Y730835D01*
X802033Y731406D01*
X800541D01*
X799163Y730835D01*
X798108Y729781D01*
X797537Y728402D01*
Y726910D01*
X798108Y725532D01*
X799163Y724477D01*
X800541Y723906D01*
X802033D01*
X802087Y723929D01*
X810569Y715446D01*
X811189Y715032D01*
X811921Y714886D01*
X823870D01*
X825621Y713887D01*
Y712395D01*
X826192Y711017D01*
X827247Y709962D01*
X828625Y709391D01*
X830117D01*
X831495Y709962D01*
X832550Y711017D01*
X833121Y712395D01*
Y713460D01*
X834214Y714300D01*
X834969Y714585D01*
X835588Y714132D01*
Y706792D01*
X833458Y704662D01*
X833246Y704750D01*
X831754D01*
X830376Y704179D01*
X829321Y703124D01*
X828750Y701746D01*
Y700254D01*
X829321Y698876D01*
X830376Y697821D01*
X831754Y697250D01*
X832903D01*
X833653Y696778D01*
X834620Y695654D01*
Y694676D01*
X834749Y694365D01*
X833511Y692365D01*
X803339D01*
X758037Y737667D01*
Y739858D01*
X758249Y739946D01*
X759304Y741001D01*
X759875Y742379D01*
Y742890D01*
X760254Y743285D01*
X761780Y744101D01*
X762627Y743750D01*
X764119D01*
X765498Y744321D01*
X766552Y745376D01*
X766647Y745604D01*
X768971Y746108D01*
X775615Y739464D01*
D02*
G37*
G36*
X849750Y730250D02*
X850905D01*
X851974Y728250D01*
X851741Y727902D01*
X821802D01*
X814465Y735238D01*
X815294Y737238D01*
X849750D01*
Y730250D01*
D02*
G37*
G36*
X864750Y729750D02*
Y720784D01*
X842776Y698811D01*
X840494Y698601D01*
X839116Y699172D01*
X837967D01*
X837217Y699644D01*
X836250Y700768D01*
Y701746D01*
X836162Y701958D01*
X838852Y704648D01*
X839266Y705268D01*
X839412Y706000D01*
Y715500D01*
X839266Y716232D01*
X838852Y716852D01*
X833625Y722078D01*
X834454Y724078D01*
X853990D01*
X854721Y724224D01*
X855342Y724638D01*
X858852Y728148D01*
X859266Y728768D01*
X859412Y729500D01*
Y730250D01*
X862957D01*
X864750Y729750D01*
D02*
G37*
%LPC*%
G36*
X792230Y784040D02*
X789460D01*
Y779770D01*
X792230D01*
Y784040D01*
D02*
G37*
%LPD*%
G36*
X944750Y761750D02*
X944750D01*
Y761250D01*
X944750D01*
Y759330D01*
X942902Y758565D01*
X932921Y768546D01*
X932234Y769005D01*
X931425Y769166D01*
X927750D01*
Y773250D01*
X924546D01*
X923274Y775250D01*
X923379Y775504D01*
Y775719D01*
X925298Y777638D01*
X926299D01*
X927274Y777832D01*
X928102Y778384D01*
X928130Y778413D01*
X944750D01*
Y761750D01*
D02*
G37*
G36*
X807000Y653487D02*
X801487D01*
X793316Y644093D01*
X781093D01*
X778000Y641000D01*
Y634573D01*
X770471D01*
Y646471D01*
X772000Y648000D01*
Y652736D01*
X772708Y653029D01*
X773270Y653149D01*
X774025Y652645D01*
X775000Y652451D01*
X775975Y652645D01*
X776802Y653198D01*
X777355Y654025D01*
X777549Y655000D01*
X777355Y655975D01*
X776802Y656802D01*
X775799Y657806D01*
Y658698D01*
X775703Y659183D01*
X776387Y660278D01*
X776612Y660452D01*
X807000D01*
Y653487D01*
D02*
G37*
G36*
X876521Y659535D02*
X876424Y652905D01*
X835000D01*
Y645000D01*
X817540D01*
Y647460D01*
X811000Y653568D01*
Y660440D01*
X875630D01*
X876521Y659535D01*
D02*
G37*
G36*
X791000Y602000D02*
X772000D01*
X765000Y609000D01*
Y615000D01*
X768402D01*
X770000Y616598D01*
X770000Y624000D01*
Y631497D01*
X791000D01*
Y602000D01*
D02*
G37*
D12*
X736166Y623935D02*
X736384Y623717D01*
X745036D01*
X745254Y623500D01*
X744000Y641250D02*
Y655000D01*
X744250Y641000D02*
X745254D01*
X744000Y641250D02*
X744250Y641000D01*
X919629Y776250D02*
X919815Y776065D01*
Y767235D02*
Y776065D01*
X924242Y780187D02*
X926299D01*
X927074Y780962D01*
X919815Y767235D02*
X920000Y767050D01*
X920306Y776250D02*
X924242Y780187D01*
X919629Y776250D02*
X920306D01*
X828500Y770500D02*
Y780500D01*
Y760500D02*
Y770500D01*
X815000Y668003D02*
X821997Y675000D01*
X815000Y667500D02*
Y668003D01*
X821997Y675000D02*
X869000D01*
X814000Y755500D02*
X818500Y760000D01*
Y760500D02*
Y770500D01*
X808500Y755500D02*
X814000D01*
X867517Y727983D02*
X870000Y725500D01*
X867517Y727983D02*
Y735483D01*
X818500Y760000D02*
Y760500D01*
X773250Y656750D02*
X775000Y655000D01*
X767948Y664000D02*
X773250Y658698D01*
X751000Y664000D02*
X767948D01*
X773250Y656750D02*
Y658698D01*
X867385Y735614D02*
X867447Y735553D01*
X867385Y735614D02*
Y741189D01*
X861074Y747500D02*
X867385Y741189D01*
X845500Y747500D02*
X861074D01*
X838250D02*
X845500D01*
X831000D02*
X838250D01*
Y773143D01*
X927074Y780962D02*
X948038D01*
X956000Y773000D01*
X810250Y771750D02*
X817250D01*
X818500Y770500D01*
X810000Y772000D02*
X810250Y771750D01*
X818500Y770500D02*
Y780500D01*
Y760000D02*
X831000Y747500D01*
X842993Y695422D02*
X867384Y719813D01*
X838370Y695422D02*
X842993D01*
X867384Y723384D02*
X869000Y725000D01*
X867384Y719813D02*
Y723384D01*
D20*
X744000Y655000D02*
D03*
X754000D02*
D03*
X818500Y760500D02*
D03*
X828500D02*
D03*
X818500Y780500D02*
D03*
X828500D02*
D03*
X818500Y770500D02*
D03*
X828500D02*
D03*
X869000Y725000D02*
D03*
X879000D02*
D03*
X766000Y612000D02*
D03*
X756000D02*
D03*
X775000Y655000D02*
D03*
X765000D02*
D03*
X804000Y657000D02*
D03*
X814000D02*
D03*
D23*
X925000Y750950D02*
D03*
X920000D02*
D03*
X915000D02*
D03*
Y767050D02*
D03*
X920000D02*
D03*
X925000D02*
D03*
D25*
X767500Y807500D02*
D03*
Y817500D02*
D03*
X752500Y792500D02*
D03*
Y802500D02*
D03*
X737500Y792500D02*
D03*
Y802500D02*
D03*
X745000Y737500D02*
D03*
Y747500D02*
D03*
X821000Y638000D02*
D03*
Y648000D02*
D03*
X776000Y595000D02*
D03*
Y605000D02*
D03*
X787000Y595000D02*
D03*
Y605000D02*
D03*
X885000Y741000D02*
D03*
Y751000D02*
D03*
X790000Y647000D02*
D03*
Y637000D02*
D03*
X789000Y656000D02*
D03*
Y666000D02*
D03*
X831000Y648000D02*
D03*
Y638000D02*
D03*
X865000Y605000D02*
D03*
Y615000D02*
D03*
X837500Y605000D02*
D03*
Y615000D02*
D03*
D53*
X956000Y750000D02*
D03*
Y773000D02*
D03*
Y819000D02*
D03*
Y796000D02*
D03*
D61*
X745000Y728785D02*
Y737500D01*
Y728785D02*
X750502Y723284D01*
X915003Y784930D02*
X926072Y796000D01*
X915003Y767053D02*
Y784930D01*
X745000Y747500D02*
X763373D01*
X745000Y747500D02*
X745000Y747500D01*
X763779Y753895D02*
Y773850D01*
X778601Y739074D02*
X850582D01*
X763779Y753895D02*
X778601Y739074D01*
X763779Y773850D02*
X770902Y780972D01*
X752500Y792500D02*
X767906D01*
X771298Y781268D02*
Y789108D01*
X767906Y792500D02*
X771298Y789108D01*
X770902Y780972D02*
X777826D01*
X786798Y772000D01*
X752806Y808236D02*
X762070Y817500D01*
X752500Y802500D02*
X752806Y802806D01*
Y808236D01*
X762070Y817500D02*
X767076D01*
Y817924D02*
X767500Y817500D01*
X737500Y802500D02*
X752500D01*
X767076Y824388D02*
X767506Y824818D01*
X767076Y817924D02*
Y824388D01*
X767530Y802398D02*
X771411Y798517D01*
X774496D02*
X774788Y798224D01*
X771411Y798517D02*
X774496D01*
X767530Y802398D02*
Y807500D01*
X737500Y786918D02*
Y792500D01*
X743260Y781159D02*
X764376D01*
X737500Y786918D02*
X743260Y781159D01*
X767348Y756058D02*
Y767681D01*
X772167Y772500D01*
X767348Y756058D02*
X780906Y742500D01*
X786798Y772000D02*
X792000D01*
X850582Y739074D02*
X850706Y738950D01*
X851550D02*
X852500Y738000D01*
X850706Y738950D02*
X851550D01*
X852500Y735500D02*
Y738000D01*
X780906Y742500D02*
X845500D01*
X772500Y772500D02*
X778000Y767000D01*
X792000D01*
X804193Y788124D02*
X808614Y783703D01*
X780231Y788124D02*
X804193D01*
X771987Y757500D02*
X780641Y748846D01*
X801848D02*
X803496Y750493D01*
X780641Y748846D02*
X801848D01*
X803496Y750493D02*
Y755496D01*
X808614Y778614D02*
Y783703D01*
X808500Y778500D02*
X808614Y778614D01*
X915000Y743201D02*
Y750950D01*
X912693Y740894D02*
X915000Y743201D01*
X912693Y739838D02*
Y740894D01*
X925000Y750950D02*
X925717Y750233D01*
Y740373D02*
X926433Y739656D01*
X925717Y740373D02*
Y750233D01*
X926072Y796000D02*
X956000D01*
X864993Y615007D02*
Y625117D01*
Y615007D02*
X865000Y615000D01*
X837500D02*
Y625000D01*
D63*
X821010Y725990D02*
X853990D01*
X857500Y729500D01*
X811448Y735552D02*
X821010Y725990D01*
X808976Y727509D02*
X814485Y722000D01*
X831000D02*
X837500Y715500D01*
X814485Y722000D02*
X831000D01*
X872432Y794548D02*
X904958D01*
X906589Y792917D01*
X907565D01*
X756125Y736875D02*
Y743125D01*
X767250Y738750D02*
X770448Y735552D01*
X811448D01*
X811921Y716798D02*
X826369D01*
X801287Y727432D02*
X811921Y716798D01*
X801287Y727432D02*
Y727656D01*
X837500Y706000D02*
Y715500D01*
X785601Y794007D02*
X805783D01*
X810296Y789494D02*
X867378D01*
X872432Y794548D01*
X805783Y794007D02*
X810296Y789494D01*
X875731Y714176D02*
X957991D01*
X802547Y690453D02*
X852008D01*
X875731Y714176D01*
X778000Y667000D02*
X786221Y675221D01*
Y677041D02*
X793725Y684545D01*
X786221Y675221D02*
Y677041D01*
X793725Y684545D02*
X868659D01*
X756125Y736875D02*
X802547Y690453D01*
X832500Y701000D02*
X837500Y706000D01*
X767087Y738750D02*
X767250D01*
X883500Y752500D02*
X885000Y751000D01*
X874500Y752500D02*
X883500D01*
X857500Y729500D02*
Y735500D01*
X826369Y716798D02*
X829371Y713796D01*
Y713141D02*
Y713796D01*
D66*
X879000Y626000D02*
D03*
X821000D02*
D03*
D67*
X806750Y631000D02*
D03*
X893250D02*
D03*
D68*
Y589000D02*
D03*
X806750D02*
D03*
D69*
X860699Y724435D02*
D03*
X856068Y621510D02*
D03*
X840651Y702164D02*
D03*
X829654Y731839D02*
D03*
X736166Y623935D02*
D03*
X756000Y627000D02*
D03*
X764000D02*
D03*
Y638000D02*
D03*
X756000D02*
D03*
X734977Y616068D02*
D03*
Y606068D02*
D03*
X750502Y723284D02*
D03*
X743977Y705068D02*
D03*
Y716068D02*
D03*
X757415Y719675D02*
D03*
X745209Y786306D02*
D03*
X744980Y796748D02*
D03*
X786000Y835000D02*
D03*
X771976Y838068D02*
D03*
X843000Y796000D02*
D03*
Y804000D02*
D03*
X843977Y819068D02*
D03*
Y829068D02*
D03*
X833977Y806068D02*
D03*
Y814068D02*
D03*
X829180Y840097D02*
D03*
X793000Y806000D02*
D03*
X861888Y754406D02*
D03*
X874000Y782000D02*
D03*
X908888Y772406D02*
D03*
X909000Y766000D02*
D03*
X919629Y776250D02*
D03*
X907565Y792917D02*
D03*
X908704Y799063D02*
D03*
X909000Y745000D02*
D03*
Y752000D02*
D03*
Y759000D02*
D03*
X900330Y735401D02*
D03*
X906663Y726936D02*
D03*
X763373Y747500D02*
D03*
X756125Y743125D02*
D03*
X759364Y752424D02*
D03*
X765935Y787781D02*
D03*
X771684Y780972D02*
D03*
X764964Y797366D02*
D03*
X767506Y824818D02*
D03*
X774788Y798224D02*
D03*
X764376Y781159D02*
D03*
X772246Y772500D02*
D03*
X801287Y727656D02*
D03*
X808976Y727509D02*
D03*
X780231Y788124D02*
D03*
X785601Y794007D02*
D03*
X903000Y782000D02*
D03*
X881000D02*
D03*
X889000D02*
D03*
X896000D02*
D03*
X771987Y757500D02*
D03*
X737500Y817500D02*
D03*
X893653Y759143D02*
D03*
X892056Y731862D02*
D03*
X899899Y720088D02*
D03*
X919809Y740812D02*
D03*
X800185Y828731D02*
D03*
X897500Y842500D02*
D03*
X907500D02*
D03*
X917500D02*
D03*
X841680Y842597D02*
D03*
X821680D02*
D03*
X814180D02*
D03*
X857842Y807250D02*
D03*
X737500Y722500D02*
D03*
X930342Y704750D02*
D03*
X950342Y679750D02*
D03*
X950000Y667500D02*
D03*
X927882Y729270D02*
D03*
X950342Y729750D02*
D03*
Y699750D02*
D03*
Y689750D02*
D03*
X940342Y697250D02*
D03*
X880342Y707250D02*
D03*
X905342D02*
D03*
X892842Y662250D02*
D03*
X910342D02*
D03*
Y649750D02*
D03*
Y637250D02*
D03*
Y624750D02*
D03*
X962842Y637250D02*
D03*
Y647250D02*
D03*
X949832Y650642D02*
D03*
X950015Y634897D02*
D03*
X950381Y617869D02*
D03*
X936649Y605786D02*
D03*
X965000Y585000D02*
D03*
X945000D02*
D03*
X832500Y680000D02*
D03*
X932798Y772177D02*
D03*
X902842Y807250D02*
D03*
X880342D02*
D03*
X902842Y822250D02*
D03*
X880342D02*
D03*
X857500Y822500D02*
D03*
X887500Y842500D02*
D03*
X875000D02*
D03*
X862500D02*
D03*
X852500D02*
D03*
X832500Y832500D02*
D03*
X869720Y586750D02*
D03*
X827842Y587250D02*
D03*
X895342Y609750D02*
D03*
X880342D02*
D03*
X850000Y610000D02*
D03*
X815000D02*
D03*
X797842Y609750D02*
D03*
X747842Y584750D02*
D03*
X735000Y585000D02*
D03*
Y595000D02*
D03*
X734000Y647000D02*
D03*
Y663000D02*
D03*
Y677000D02*
D03*
X737500Y690000D02*
D03*
Y710000D02*
D03*
Y757500D02*
D03*
Y767500D02*
D03*
Y700000D02*
D03*
Y777500D02*
D03*
X750000Y817500D02*
D03*
X737500Y827500D02*
D03*
X760000D02*
D03*
X779000Y835000D02*
D03*
X795000Y842500D02*
D03*
Y835000D02*
D03*
X750000Y827500D02*
D03*
X743271Y665627D02*
D03*
X912500Y720000D02*
D03*
X932500Y757500D02*
D03*
X892500Y675000D02*
D03*
Y685000D02*
D03*
Y695000D02*
D03*
X887500Y720000D02*
D03*
X862500Y707500D02*
D03*
X787500Y692500D02*
D03*
X766153Y711643D02*
D03*
X838000Y782000D02*
D03*
X802500Y667500D02*
D03*
X815000D02*
D03*
X822500D02*
D03*
X812652Y749848D02*
D03*
X801153Y764143D02*
D03*
X801000Y771886D02*
D03*
X780000Y692500D02*
D03*
X840000Y665000D02*
D03*
X812500Y817500D02*
D03*
Y825000D02*
D03*
X782750Y843000D02*
D03*
X874000Y665000D02*
D03*
X844000Y623000D02*
D03*
X770771Y668127D02*
D03*
X751000Y664000D02*
D03*
X778000Y667000D02*
D03*
X912693Y739838D02*
D03*
X926433Y739656D02*
D03*
X760837Y738750D02*
D03*
X838250Y773143D02*
D03*
X954000Y708000D02*
D03*
X838370Y695422D02*
D03*
X832500Y701000D02*
D03*
X767087Y738750D02*
D03*
X957991Y714176D02*
D03*
X865000Y670000D02*
D03*
X874000Y656000D02*
D03*
X868659Y684545D02*
D03*
X869000Y675000D02*
D03*
X830000Y667500D02*
D03*
X826000Y656000D02*
D03*
X865000Y690000D02*
D03*
X788000Y627000D02*
D03*
X782000D02*
D03*
X795000D02*
D03*
X734000Y630000D02*
D03*
X794916Y618525D02*
D03*
X829371Y713141D02*
D03*
X864993Y625117D02*
D03*
X837500Y625000D02*
D03*
D75*
X774254Y641000D02*
D03*
Y629350D02*
D03*
Y623500D02*
D03*
X745254D02*
D03*
Y629350D02*
D03*
Y635150D02*
D03*
Y641000D02*
D03*
X774254Y635150D02*
D03*
D76*
X759754Y632250D02*
D03*
D77*
X852500Y735500D02*
D03*
X857500D02*
D03*
X862500D02*
D03*
X867500D02*
D03*
Y764500D02*
D03*
X862500D02*
D03*
X857500D02*
D03*
X852500D02*
D03*
D78*
X874500Y742500D02*
D03*
Y747500D02*
D03*
Y752500D02*
D03*
Y757500D02*
D03*
X845500D02*
D03*
Y752500D02*
D03*
Y747500D02*
D03*
Y742500D02*
D03*
D79*
X792000Y772000D02*
D03*
Y767000D02*
D03*
Y762000D02*
D03*
X810000D02*
D03*
Y767000D02*
D03*
Y772000D02*
D03*
D80*
X793500Y755500D02*
D03*
X798500D02*
D03*
X803500D02*
D03*
X808500D02*
D03*
Y778500D02*
D03*
X803500D02*
D03*
X798500D02*
D03*
X793500D02*
D03*
D81*
X944492Y753983D02*
X952017D01*
X931425Y767050D02*
X944492Y753983D01*
X925000Y767050D02*
X931425D01*
X952017Y753983D02*
X956000Y750000D01*
M02*
