M48
;Layer_Color=9474304
;FILE_FORMAT=4:4
METRIC,LZ
;TYPE=PLATED
T1F00S00C0.2500
;TYPE=NON_PLATED
T3F00S00C0.6000
%
T01
X00797842Y0060975
X00794916Y00618525
X00795Y00627
X00815Y0061
X0085
X00856068Y0062151
X00864993Y00625117
X00844Y00623
X008375Y00625
X0084Y00665
X0083Y006675
X008225
X00815
X008025
X00826Y00656
X008325Y0068
X008325Y00701
X00840651Y00702164
X0083837Y00695422
X00829371Y00713141
X00829654Y00731839
X00808976Y00727509
X00801287Y00727656
X00812652Y00749848
X00801153Y00764143
X00801Y00771886
X0083825Y00773143
X00838Y00782
X00874
X00881
X00889
X00896
X00903
X00908888Y00772406
X00909Y00766
Y00759
Y00752
Y00745
X00912693Y00739838
X00919809Y00740812
X00926433Y00739656
X00927882Y0072927
X00950342Y0072975
X00957991Y00714176
X00954Y00708
X00950342Y0069975
Y0068975
Y0067975
X0095Y006675
X00949832Y00650642
X00950015Y00634897
X00962842Y0063725
Y0064725
X00950381Y00617869
X00936649Y00605786
X00945Y00585
X00965
X00910342Y0062475
Y0063725
Y0064975
Y0066225
X00892842
X008925Y00675
Y00685
Y00695
X00880342Y0070725
X008625Y007075
X00860699Y00724435
X00861888Y00754406
X00893653Y00759143
X00892056Y00731862
X0090033Y00735401
X00906663Y00726936
X009125Y0072
X00899899Y00720088
X008875Y0072
X00905342Y0070725
X00930342Y0070475
X00940342Y0069725
X009325Y007575
X00932798Y00772177
X00919629Y0077625
X00907565Y00792917
X00865Y0069
X00868659Y00684545
X00869Y00675
X00865Y0067
X00874Y00665
Y00656
X00880342Y0060975
X00895342
X0086972Y0058675
X00827842Y0058725
X00788Y00627
X00782
X00764
X00756
Y00638
X00764
X00770771Y00668127
X00778Y00667
X0078Y006925
X007875
X00766153Y00711643
X00757415Y00719675
X00750502Y00723284
X00743977Y00716068
Y00705068
X007375Y0071
Y007
Y0069
X00734Y00677
Y00663
X00743271Y00665627
X00751Y00664
X00734Y00647
Y0063
X00736166Y00623935
X00734977Y00616068
Y00606068
X00735Y00595
Y00585
X00747842Y0058475
X007375Y007225
Y007575
Y007675
Y007775
X00745209Y00786306
X00765935Y00787781
X00764376Y00781159
X00771684Y00780972
X00772246Y007725
X00771987Y007575
X00759364Y00752424
X00763373Y007475
X00760837Y0073875
X00767087
X00756125Y00743125
X00780231Y00788124
X00785601Y00794007
X00774788Y00798224
X00764964Y00797366
X0074498Y00796748
X0075Y008175
Y008275
X0076
X00767506Y00824818
X00771976Y00838068
X00779Y00835
X00786
X0078275Y00843
X00793Y00806
X007375Y008175
Y008275
X00800185Y00828731
X00795Y00835
Y008425
X0081418Y00842597
X0082168
X0082918Y00840097
X008325Y008325
X00843977Y00829068
Y00819068
X00833977Y00814068
Y00806068
X00843Y00804
Y00796
X00857842Y0080725
X008575Y008225
X00880342Y0082225
Y0080725
X00902842
X00908704Y00799063
X00902842Y0082225
X009075Y008425
X008975
X008875
X00875
X008625
X008525
X0084168Y00842597
X008125Y00825
Y008175
X009175Y008425
T03
X00821Y00626
X00879
M30
