M48
;Layer_Color=9474304
;FILE_FORMAT=4:4
METRIC,LZ
;TYPE=PLATED
T01F00S00C0.2500
;TYPE=NON_PLATED
T03F00S00C0.6000
%
T01
X00801Y00601
X00797842Y0060975
X00794916Y00618525
X00795Y00627
X00815Y0061
X00821Y00601
X00827842Y0058725
X00831Y00621
X008375Y00625
X00844Y00623
X00856068Y0062151
X00864993Y00625117
X00871Y00621
X00880342Y0060975
X00881Y00601
X00901001
X00895342Y0060975
X00910342Y0062475
Y0063725
Y0064975
Y0066225
X00892842
X008925Y00675
Y00685
Y00695
X00889Y00707
X00894Y00712
X009Y00722
X00895778Y00729052
X009Y00737
X00891001Y00741
X00881Y00721
X00858Y00726
X00862399Y00732317
X00849Y00733
X00851633Y00739828
X00842Y00737
X00841Y00721
X00851Y00701
X00871
X00868Y00681
X00863Y00686
X00868Y00671
X00874Y00665
Y00656
X00826
X008225Y00666
X00815Y006675
X008025
X00831Y00665
X00821Y00681
X00841
X00831Y00701
X00801Y00721
X00805Y00728
X00809908Y00733502
X00811567Y00752943
X00811255Y00760061
X00794Y00769
X00861Y00761
X00871Y00781
X00902708Y00790553
X00933492Y0077218
X0094Y00769
X00931001Y00741
X00950342Y0072975
X00957991Y00714176
X00954Y00708
X00950342Y0069975
Y0068975
Y0067975
X0095Y006675
X00951001Y00661
X00949832Y00650642
X00950015Y00634897
X00962842Y0063725
Y0064725
X00950381Y00617869
X00931001Y00621
X00936649Y00605786
X00945Y00585
X00965
X0086972Y0058675
X0085Y0061
X00921001Y00641
X00931001Y00661
X00930342Y0070475
X00940342Y0069725
X00791Y00701
X00787Y00686
X00786921Y00677756
X00778Y00667
X00770771Y00668127
X00751Y00664
X00743271Y00665627
X00734Y00663
Y00677
Y00647
Y0063
X00736166Y00623935
X00734977Y00616068
Y00606068
X00735Y00595
Y00585
X00747842Y0058475
X00741Y00601
X00754Y00626
X00764
Y00638
X00754
X00782Y00627
X00788
X00771Y00701
X00768Y00714
X00761Y00716
X00751Y00701
X00781Y00721
X00791Y00741
Y00781
X0077Y00779
X00764Y00782
X00765Y00774
X00757Y00773
X00761Y00768
X00758Y00788
X00781Y00801
X00791Y00821
X00753492Y0082018
X00753318Y00826541
X00811Y00821
X00831
X00851
X00871
X00891001
X00931001
X00931492Y0080018
X00928Y00794
X00941001Y00801
X00870622Y00797766
X00862492Y0080118
X00841Y00801
X00821
X00801
T03
X00821Y00626
X00879
M30
