M48
;Layer_Color=9474304
;FILE_FORMAT=4:4
METRIC,LZ
;TYPE=PLATED
T1F00S00C0.2500
;TYPE=NON_PLATED
T3F00S00C0.6000
%
T01
X00797842Y0060975
X00794916Y00618525
X00795Y00627
X00815Y0061
X0085
X00856Y00622
X00864993Y00625117
X00844Y00623
X008375Y00625
X0084Y00665
X0083Y006675
X008225
X00815
X008025
X00826Y00656
X008325Y0068
X008325Y00701
X00841Y00702
X0083837Y00695422
X00841153Y00719143
X00829371Y00713141
X00829778Y00735393
X00818698Y00752231
X00812652Y00749848
X00801153Y00764143
X00801Y00771886
X0083825Y00773143
X008375Y0078
X00893653Y00759143
X00912693Y00739838
X00919809Y00740812
X00926433Y00739656
X00927882Y0072927
X00950342Y0072975
X00957991Y00714176
X00954Y00708
X00950342Y0069975
Y0068975
Y0067975
X0095Y006675
X00949832Y00650642
X00950015Y00634897
X00962842Y0063725
Y0064725
X00950381Y00617869
X00936649Y00605786
X00945Y00585
X00965
X00910342Y0062475
Y0063725
Y0064975
Y0066225
X00892842
X008925Y00675
Y00685
Y00695
X00880342Y0070725
X008675Y007125
X008625Y007075
X00865Y0069
X00868659Y00684545
X00869Y00675
X00865Y0067
X00874Y00665
Y00656
X00880342Y0060975
X00895342
X0086972Y0058675
X00827842Y0058725
X00808976Y00727509
X00801287Y00727656
X008875Y0072
X009025
X00905342Y0070725
X00930342Y0070475
X00940342Y0069725
X009325Y007575
X00932798Y00772177
X00916Y00777
X00907859Y00791516
X00782783Y00791243
X0077174Y007775
X00770223Y00759855
X00763262Y00756546
X00764331Y00750389
X00758219Y00749014
X00756125Y00743125
X00760837Y0073875
X00767087
X00766153Y00711643
X0074Y0071
Y0073
Y0075
Y0077
X0075Y0078
X0074Y0079
Y0069
X007325Y006775
Y006625
X00743271Y00665627
X00751Y00664
X00770771Y00668127
X00778Y00667
X0078Y006925
X007875
X00788Y00627
X00782
X00764Y00624
X00754
Y00642
X00764
X007325Y006475
X00734Y0063
X0073586Y00623729
X00735Y00595
Y00585
X00747842Y0058475
X0075Y008
Y0082
X0076Y0083
X0074
Y0081
X0077125Y0080575
X00775885Y00794099
X00792806Y00793777
X00789085Y00800756
X00780771Y00833127
X0078275Y00843
X00793271Y00840627
X00795Y008325
X00812816Y00823043
Y00815543
X00835342Y0083725
X008575Y008375
Y008225
X00857842Y0080725
X00880342
Y0082225
X0088Y008375
X009025
X00902842Y0082225
Y0080725
X00908331Y00798389
X00925Y008375
T03
X00821Y00626
X00879
M30
