G04*
G04 #@! TF.GenerationSoftware,Altium Limited,Altium Designer,22.10.1 (41)*
G04*
G04 Layer_Color=65535*
%FSLAX44Y44*%
%MOMM*%
G71*
G04*
G04 #@! TF.SameCoordinates,4435170C-8FAF-4430-8920-974BABAA59A2*
G04*
G04*
G04 #@! TF.FilePolarity,Positive*
G04*
G01*
G75*
%ADD10C,0.1000*%
%ADD11C,0.2200*%
%ADD12C,0.2500*%
%ADD13C,0.3000*%
%ADD14C,0.2000*%
%ADD15C,0.1750*%
G36*
X930000Y802500D02*
X918070D01*
Y829990D01*
X930000D01*
Y802500D01*
D02*
G37*
G36*
X927500Y617500D02*
X915570D01*
Y668899D01*
X927500D01*
Y617500D01*
D02*
G37*
G36*
Y685000D02*
X915570D01*
Y723737D01*
X927500D01*
Y685000D01*
D02*
G37*
G36*
X955313Y588801D02*
X932686D01*
Y597199D01*
X955313D01*
Y588801D01*
D02*
G37*
G36*
X767280Y587801D02*
X742720D01*
Y596199D01*
X767280D01*
Y587801D01*
D02*
G37*
%LPC*%
G36*
X928833Y828990D02*
X919237D01*
Y821390D01*
X920374D01*
Y824552D01*
X928833D01*
Y825828D01*
X920374D01*
Y828990D01*
X928833D01*
D02*
G37*
G36*
X929000Y820364D02*
X919070D01*
X926143D01*
X925866Y820350D01*
X925602Y820309D01*
X925366Y820239D01*
X925172Y820170D01*
X925006Y820087D01*
X924881Y820031D01*
X924812Y819976D01*
X924784Y819962D01*
X924576Y819795D01*
X924382Y819601D01*
X924215Y819393D01*
X924063Y819185D01*
X923952Y819005D01*
X923869Y818852D01*
X923841Y818797D01*
X923813Y818755D01*
X923799Y818727D01*
Y818714D01*
X923744Y818603D01*
X923702Y818464D01*
X923647Y818311D01*
X923591Y818145D01*
X923494Y817798D01*
X923397Y817438D01*
X923355Y817271D01*
X923314Y817119D01*
X923272Y816966D01*
X923245Y816841D01*
X923217Y816744D01*
X923203Y816661D01*
X923189Y816606D01*
Y816592D01*
X923120Y816314D01*
X923064Y816065D01*
X922995Y815843D01*
X922940Y815649D01*
X922870Y815468D01*
X922815Y815316D01*
X922759Y815177D01*
X922718Y815052D01*
X922662Y814955D01*
X922620Y814872D01*
X922593Y814817D01*
X922551Y814761D01*
X922510Y814692D01*
X922496Y814678D01*
X922357Y814553D01*
X922218Y814470D01*
X922080Y814400D01*
X921941Y814359D01*
X921830Y814331D01*
X921733Y814317D01*
X921677D01*
X921650D01*
X921428Y814345D01*
X921234Y814400D01*
X921067Y814484D01*
X920915Y814581D01*
X920804Y814664D01*
X920707Y814747D01*
X920651Y814803D01*
X920637Y814830D01*
X920568Y814941D01*
X920499Y815052D01*
X920388Y815316D01*
X920318Y815593D01*
X920263Y815871D01*
X920235Y816120D01*
X920221Y816231D01*
X920207Y816314D01*
Y816508D01*
X920221Y816897D01*
X920277Y817244D01*
X920360Y817521D01*
X920443Y817757D01*
X920526Y817937D01*
X920610Y818076D01*
X920665Y818145D01*
X920679Y818173D01*
X920873Y818367D01*
X921081Y818519D01*
X921303Y818644D01*
X921525Y818727D01*
X921733Y818783D01*
X921886Y818824D01*
X921955Y818838D01*
X921996Y818852D01*
X922024D01*
X922038D01*
X921941Y820073D01*
X921636Y820045D01*
X921358Y819976D01*
X921095Y819906D01*
X920873Y819809D01*
X920693Y819726D01*
X920554Y819657D01*
X920512Y819629D01*
X920471Y819601D01*
X920457Y819587D01*
X920443D01*
X920207Y819407D01*
X919999Y819213D01*
X919819Y819005D01*
X919680Y818797D01*
X919556Y818616D01*
X919486Y818478D01*
X919458Y818422D01*
X919431Y818381D01*
X919417Y818353D01*
Y818339D01*
X919306Y818034D01*
X919223Y817701D01*
X919153Y817396D01*
X919112Y817105D01*
X919084Y816841D01*
Y816744D01*
X919070Y816647D01*
Y816758D01*
Y816467D01*
X919084Y816106D01*
X919126Y815787D01*
X919181Y815482D01*
X919237Y815219D01*
X919292Y815011D01*
X919320Y814914D01*
X919348Y814844D01*
X919375Y814789D01*
X919389Y814747D01*
X919403Y814719D01*
Y814706D01*
X919542Y814428D01*
X919694Y814179D01*
X919861Y813971D01*
X920013Y813804D01*
X920152Y813679D01*
X920263Y813582D01*
X920346Y813513D01*
X920360Y813499D01*
X920374D01*
X920610Y813360D01*
X920845Y813263D01*
X921081Y813194D01*
X921289Y813152D01*
X921469Y813125D01*
X921608Y813097D01*
X921664D01*
X921705D01*
X921719D01*
X921733D01*
X921969Y813111D01*
X922191Y813152D01*
X922399Y813208D01*
X922579Y813263D01*
X922718Y813319D01*
X922829Y813374D01*
X922898Y813416D01*
X922926Y813430D01*
X923120Y813568D01*
X923300Y813735D01*
X923453Y813901D01*
X923577Y814068D01*
X923688Y814206D01*
X923758Y814331D01*
X923813Y814414D01*
X923827Y814428D01*
Y814442D01*
X923883Y814553D01*
X923938Y814678D01*
X924035Y814955D01*
X924132Y815274D01*
X924229Y815579D01*
X924313Y815857D01*
X924340Y815982D01*
X924368Y816093D01*
X924396Y816176D01*
X924409Y816245D01*
X924423Y816287D01*
Y816301D01*
X924479Y816536D01*
X924534Y816758D01*
X924590Y816952D01*
X924631Y817119D01*
X924673Y817285D01*
X924715Y817424D01*
X924742Y817549D01*
X924784Y817646D01*
X924812Y817743D01*
X924826Y817812D01*
X924867Y817923D01*
X924881Y817992D01*
X924895Y818006D01*
X924978Y818214D01*
X925075Y818395D01*
X925172Y818547D01*
X925256Y818658D01*
X925339Y818755D01*
X925394Y818811D01*
X925436Y818852D01*
X925450Y818866D01*
X925574Y818963D01*
X925713Y819033D01*
X925852Y819074D01*
X925963Y819116D01*
X926074Y819130D01*
X926157Y819144D01*
X926226D01*
X926240D01*
X926407Y819130D01*
X926559Y819102D01*
X926698Y819060D01*
X926809Y819005D01*
X926920Y818949D01*
X926989Y818908D01*
X927045Y818880D01*
X927058Y818866D01*
X927197Y818755D01*
X927308Y818616D01*
X927405Y818478D01*
X927502Y818353D01*
X927558Y818228D01*
X927613Y818131D01*
X927641Y818062D01*
X927655Y818034D01*
X927724Y817826D01*
X927780Y817604D01*
X927807Y817382D01*
X927835Y817188D01*
X927849Y817022D01*
X927863Y816883D01*
Y816758D01*
X927849Y816453D01*
X927821Y816176D01*
X927780Y815926D01*
X927724Y815704D01*
X927669Y815524D01*
X927627Y815385D01*
X927613Y815344D01*
X927599Y815302D01*
X927585Y815288D01*
Y815274D01*
X927474Y815052D01*
X927350Y814844D01*
X927225Y814692D01*
X927100Y814553D01*
X927003Y814442D01*
X926906Y814373D01*
X926850Y814331D01*
X926836Y814317D01*
X926656Y814220D01*
X926462Y814123D01*
X926254Y814068D01*
X926074Y814012D01*
X925893Y813971D01*
X925769Y813943D01*
X925713D01*
X925672Y813929D01*
X925658D01*
X925644D01*
X925755Y812736D01*
D01*
X926102Y812764D01*
X926434Y812820D01*
X926726Y812903D01*
X926989Y813000D01*
X927197Y813097D01*
X927280Y813139D01*
X927350Y813166D01*
X927405Y813208D01*
X927447Y813222D01*
X927474Y813250D01*
X927488D01*
X927752Y813457D01*
X927988Y813679D01*
X928182Y813915D01*
X928348Y814137D01*
X928473Y814331D01*
X928556Y814498D01*
X928584Y814553D01*
X928612Y814595D01*
X928625Y814622D01*
Y814636D01*
X928750Y814983D01*
X928847Y815344D01*
X928903Y815704D01*
X928958Y816051D01*
X928972Y816217D01*
X928986Y816356D01*
Y816481D01*
X929000Y816592D01*
Y816814D01*
X928986Y817188D01*
X928944Y817535D01*
X928875Y817854D01*
X928806Y818117D01*
X928750Y818339D01*
X928709Y818436D01*
X928681Y818519D01*
X928653Y818575D01*
X928639Y818616D01*
X928625Y818644D01*
Y818658D01*
X928473Y818949D01*
X928307Y819199D01*
X928126Y819421D01*
X927960Y819601D01*
X927821Y819740D01*
X927696Y819837D01*
X927613Y819906D01*
X927599Y819920D01*
X927585D01*
X927322Y820073D01*
X927072Y820184D01*
X926836Y820253D01*
X926615Y820309D01*
X926420Y820336D01*
X926268Y820364D01*
X929000D01*
D02*
G37*
G36*
X928833Y811932D02*
X926226Y810282D01*
X925949Y810088D01*
X925699Y809907D01*
X925491Y809727D01*
X925297Y809574D01*
X925158Y809436D01*
X925048Y809325D01*
X924978Y809255D01*
X924950Y809228D01*
X924867Y809117D01*
X924770Y808992D01*
X924618Y808742D01*
X924562Y808631D01*
X924507Y808548D01*
X924479Y808493D01*
X924465Y808465D01*
X924423Y808715D01*
X924382Y808950D01*
X924313Y809158D01*
X924257Y809366D01*
X924188Y809547D01*
X924104Y809713D01*
X924035Y809866D01*
X923966Y810004D01*
X923883Y810115D01*
X923813Y810226D01*
X923758Y810309D01*
X923702Y810379D01*
X923661Y810434D01*
X923619Y810476D01*
X923605Y810490D01*
X923591Y810503D01*
X923453Y810614D01*
X923314Y810725D01*
X923023Y810892D01*
X922731Y811003D01*
X922454Y811086D01*
X922218Y811142D01*
X922121Y811155D01*
X922024D01*
X921955Y811169D01*
X921899D01*
X921872D01*
X921858D01*
X921566Y811155D01*
X921303Y811114D01*
X921053Y811044D01*
X920845Y810975D01*
X920665Y810892D01*
X920526Y810836D01*
X920443Y810781D01*
X920429Y810767D01*
X920415D01*
X920193Y810601D01*
X919999Y810434D01*
X919833Y810254D01*
X919708Y810088D01*
X919611Y809935D01*
X919556Y809810D01*
X919514Y809727D01*
X919500Y809713D01*
Y809699D01*
X919458Y809574D01*
X919417Y809422D01*
X919348Y809117D01*
X919306Y808784D01*
X919264Y808479D01*
X919250Y808187D01*
Y808063D01*
X919237Y807952D01*
Y803500D01*
X928833D01*
Y806842D01*
Y804776D01*
X924576D01*
Y806412D01*
X924590Y806565D01*
Y806676D01*
X924604Y806773D01*
X924618Y806842D01*
Y806898D01*
X924631Y806926D01*
Y806939D01*
X924701Y807161D01*
X924742Y807258D01*
X924784Y807342D01*
X924826Y807425D01*
X924853Y807480D01*
X924867Y807508D01*
X924881Y807522D01*
X924964Y807633D01*
X925061Y807744D01*
X925269Y807952D01*
X925366Y808049D01*
X925450Y808118D01*
X925505Y808160D01*
X925519Y808174D01*
X925713Y808312D01*
X925921Y808465D01*
X926143Y808617D01*
X926351Y808770D01*
X926545Y808895D01*
X926698Y808992D01*
X926753Y809034D01*
X926795Y809061D01*
X926823Y809089D01*
X926836D01*
X928833Y810351D01*
Y811932D01*
D02*
G37*
%LPD*%
G36*
X922038Y809852D02*
X922205Y809824D01*
X922343Y809782D01*
X922468Y809741D01*
X922579Y809685D01*
X922662Y809644D01*
X922718Y809616D01*
X922731Y809602D01*
X922870Y809505D01*
X922995Y809380D01*
X923092Y809255D01*
X923175Y809130D01*
X923231Y809020D01*
X923272Y808936D01*
X923300Y808881D01*
X923314Y808853D01*
X923369Y808659D01*
X923411Y808437D01*
X923439Y808215D01*
X923453Y807993D01*
X923466Y807799D01*
X923480Y807633D01*
Y804776D01*
X920304D01*
Y807799D01*
X920318Y808174D01*
X920374Y808493D01*
X920443Y808770D01*
X920526Y808978D01*
X920610Y809158D01*
X920679Y809269D01*
X920734Y809339D01*
X920748Y809366D01*
X920929Y809533D01*
X921109Y809658D01*
X921303Y809741D01*
X921469Y809810D01*
X921636Y809838D01*
X921761Y809852D01*
X921844Y809866D01*
X921858D01*
X921872D01*
X922038Y809852D01*
D02*
G37*
%LPC*%
G36*
X926334Y667899D02*
X916737D01*
Y661409D01*
X926334D01*
Y662685D01*
X921979D01*
Y667192D01*
X920842D01*
Y662685D01*
X917874D01*
Y667899D01*
X926334D01*
D02*
G37*
G36*
Y659703D02*
X916737D01*
Y653213D01*
X926334D01*
Y654489D01*
X921979D01*
Y658996D01*
X920842D01*
Y654489D01*
X917874D01*
Y659703D01*
X926334D01*
D02*
G37*
G36*
X926500Y651521D02*
X916570D01*
Y642340D01*
D01*
Y646930D01*
X916584Y646556D01*
X916626Y646209D01*
X916695Y645876D01*
X916778Y645557D01*
X916889Y645266D01*
X917000Y644989D01*
X917125Y644739D01*
X917250Y644517D01*
X917375Y644309D01*
X917499Y644129D01*
X917610Y643976D01*
X917721Y643851D01*
X917804Y643754D01*
X917874Y643671D01*
X917915Y643630D01*
X917929Y643616D01*
X918193Y643394D01*
X918470Y643200D01*
X918775Y643019D01*
X919080Y642881D01*
X919399Y642756D01*
X919705Y642645D01*
X920010Y642562D01*
X920301Y642506D01*
X920578Y642451D01*
X920842Y642409D01*
X921077Y642381D01*
X921272Y642354D01*
X921438D01*
X921563Y642340D01*
X926500D01*
X921674D01*
X922145Y642367D01*
X922575Y642423D01*
X922991Y642506D01*
X923172Y642562D01*
X923352Y642617D01*
X923504Y642659D01*
X923643Y642714D01*
X923768Y642756D01*
X923879Y642797D01*
X923962Y642825D01*
X924018Y642853D01*
X924059Y642881D01*
X924073D01*
X924475Y643116D01*
X924822Y643366D01*
X925127Y643643D01*
X925377Y643907D01*
X925585Y644143D01*
X925668Y644240D01*
X925723Y644323D01*
X925779Y644406D01*
X925820Y644462D01*
X925834Y644489D01*
X925848Y644503D01*
X925959Y644711D01*
X926056Y644919D01*
X926223Y645335D01*
X926334Y645738D01*
X926417Y646112D01*
X926444Y646292D01*
X926458Y646445D01*
X926486Y646583D01*
Y646708D01*
X926500Y646792D01*
Y646930D01*
X926472Y647388D01*
X926403Y647818D01*
X926320Y648220D01*
X926264Y648400D01*
X926209Y648567D01*
X926153Y648719D01*
X926098Y648858D01*
X926056Y648969D01*
X926015Y649066D01*
X925973Y649149D01*
X925945Y649219D01*
X925918Y649246D01*
Y649260D01*
X925668Y649648D01*
X925390Y649981D01*
X925099Y650259D01*
X924822Y650494D01*
X924558Y650689D01*
X924461Y650758D01*
X924364Y650813D01*
X924281Y650869D01*
X924226Y650897D01*
X924184Y650924D01*
X924170D01*
X923948Y651035D01*
X923726Y651118D01*
X923282Y651271D01*
X922839Y651382D01*
X922437Y651451D01*
X922256Y651465D01*
X922090Y651493D01*
X921937Y651507D01*
X921813D01*
X921702Y651521D01*
X926500D01*
D02*
G37*
G36*
Y641688D02*
X916570D01*
Y637957D01*
D01*
Y640745D01*
X926500Y637957D01*
Y638900D01*
X916570Y641688D01*
X926500D01*
D02*
G37*
G36*
X926334Y636862D02*
X916737D01*
Y629304D01*
X926334D01*
Y636862D01*
D02*
G37*
G36*
X926500Y627681D02*
X916570D01*
Y618500D01*
D01*
Y623090D01*
X916584Y622716D01*
X916626Y622369D01*
X916695Y622036D01*
X916778Y621717D01*
X916889Y621426D01*
X917000Y621149D01*
X917125Y620899D01*
X917250Y620677D01*
X917375Y620469D01*
X917499Y620289D01*
X917610Y620136D01*
X917721Y620012D01*
X917804Y619915D01*
X917874Y619831D01*
X917915Y619790D01*
X917929Y619776D01*
X918193Y619554D01*
X918470Y619360D01*
X918775Y619180D01*
X919080Y619041D01*
X919399Y618916D01*
X919705Y618805D01*
X920010Y618722D01*
X920301Y618666D01*
X920578Y618611D01*
X920842Y618569D01*
X921077Y618542D01*
X921272Y618514D01*
X921438D01*
X921563Y618500D01*
X926500D01*
X921674D01*
X922145Y618528D01*
X922575Y618583D01*
X922991Y618666D01*
X923172Y618722D01*
X923352Y618777D01*
X923504Y618819D01*
X923643Y618875D01*
X923768Y618916D01*
X923879Y618958D01*
X923962Y618985D01*
X924018Y619013D01*
X924059Y619041D01*
X924073D01*
X924475Y619277D01*
X924822Y619526D01*
X925127Y619804D01*
X925377Y620067D01*
X925585Y620303D01*
X925668Y620400D01*
X925723Y620483D01*
X925779Y620566D01*
X925820Y620622D01*
X925834Y620650D01*
X925848Y620663D01*
X925959Y620872D01*
X926056Y621079D01*
X926223Y621496D01*
X926334Y621898D01*
X926417Y622272D01*
X926444Y622453D01*
X926458Y622605D01*
X926486Y622744D01*
Y622869D01*
X926500Y622952D01*
Y623090D01*
X926472Y623548D01*
X926403Y623978D01*
X926320Y624380D01*
X926264Y624561D01*
X926209Y624727D01*
X926153Y624879D01*
X926098Y625018D01*
X926056Y625129D01*
X926015Y625226D01*
X925973Y625309D01*
X925945Y625379D01*
X925918Y625406D01*
Y625420D01*
X925668Y625809D01*
X925390Y626142D01*
X925099Y626419D01*
X924822Y626655D01*
X924558Y626849D01*
X924461Y626918D01*
X924364Y626974D01*
X924281Y627029D01*
X924226Y627057D01*
X924184Y627085D01*
X924170D01*
X923948Y627196D01*
X923726Y627279D01*
X923282Y627431D01*
X922839Y627542D01*
X922437Y627612D01*
X922256Y627625D01*
X922090Y627653D01*
X921937Y627667D01*
X921813D01*
X921702Y627681D01*
X926500D01*
D02*
G37*
%LPD*%
G36*
X921036Y651493D02*
X920551Y651438D01*
X920329Y651396D01*
X920107Y651340D01*
X919912Y651285D01*
X919732Y651243D01*
X919566Y651188D01*
X919413Y651132D01*
X919288Y651091D01*
X919177Y651035D01*
X919094Y651008D01*
X919039Y650980D01*
X918997Y650952D01*
X918983D01*
X918581Y650730D01*
X918221Y650467D01*
X917915Y650189D01*
X917666Y649940D01*
X917472Y649704D01*
X917389Y649593D01*
X917319Y649510D01*
X917278Y649426D01*
X917236Y649371D01*
X917222Y649343D01*
X917208Y649330D01*
X917097Y649121D01*
X917000Y648913D01*
X916834Y648511D01*
X916723Y648095D01*
X916653Y647735D01*
X916626Y647568D01*
X916598Y647402D01*
X916584Y647277D01*
Y647152D01*
X916570Y647055D01*
Y651521D01*
X921563D01*
X921036Y651493D01*
D02*
G37*
G36*
X921882Y650203D02*
X922201Y650175D01*
X922506Y650134D01*
X922783Y650078D01*
X923033Y649995D01*
X923269Y649926D01*
X923491Y649843D01*
X923685Y649759D01*
X923851Y649662D01*
X924004Y649579D01*
X924128Y649510D01*
X924226Y649440D01*
X924309Y649371D01*
X924378Y649330D01*
X924406Y649302D01*
X924420Y649288D01*
X924600Y649108D01*
X924753Y648913D01*
X924877Y648719D01*
X925002Y648525D01*
X925099Y648331D01*
X925169Y648123D01*
X925238Y647943D01*
X925294Y647748D01*
X925335Y647582D01*
X925363Y647416D01*
X925390Y647277D01*
X925404Y647152D01*
Y647055D01*
X925418Y646986D01*
Y646916D01*
X925404Y646653D01*
X925377Y646403D01*
X925321Y646181D01*
X925266Y645959D01*
X925182Y645751D01*
X925099Y645557D01*
X925016Y645377D01*
X924919Y645210D01*
X924822Y645072D01*
X924739Y644947D01*
X924656Y644836D01*
X924572Y644739D01*
X924517Y644670D01*
X924461Y644614D01*
X924434Y644586D01*
X924420Y644573D01*
X924226Y644406D01*
X924018Y644268D01*
X923796Y644143D01*
X923574Y644032D01*
X923338Y643949D01*
X923116Y643865D01*
X922672Y643754D01*
X922478Y643727D01*
X922284Y643699D01*
X922118Y643671D01*
X921979Y643657D01*
X921854Y643643D01*
X921757D01*
X921702D01*
X921688D01*
X921299Y643657D01*
X920939Y643685D01*
X920592Y643727D01*
X920287Y643796D01*
X920010Y643865D01*
X919760Y643949D01*
X919524Y644046D01*
X919330Y644129D01*
X919150Y644226D01*
X918997Y644309D01*
X918872Y644392D01*
X918775Y644462D01*
X918692Y644531D01*
X918637Y644573D01*
X918609Y644600D01*
X918595Y644614D01*
X918429Y644794D01*
X918290Y644989D01*
X918165Y645183D01*
X918054Y645391D01*
X917971Y645585D01*
X917888Y645779D01*
X917777Y646140D01*
X917749Y646306D01*
X917721Y646459D01*
X917694Y646583D01*
X917680Y646708D01*
X917666Y646805D01*
Y646930D01*
X917680Y647277D01*
X917735Y647610D01*
X917818Y647901D01*
X917902Y648151D01*
X917999Y648359D01*
X918040Y648442D01*
X918068Y648511D01*
X918110Y648581D01*
X918123Y648622D01*
X918151Y648636D01*
Y648650D01*
X918345Y648913D01*
X918567Y649149D01*
X918789Y649357D01*
X919011Y649524D01*
X919205Y649648D01*
X919372Y649745D01*
X919427Y649773D01*
X919469Y649801D01*
X919497Y649815D01*
X919510D01*
X919843Y649954D01*
X920204Y650051D01*
X920537Y650120D01*
X920856Y650162D01*
X921008Y650189D01*
X921133Y650203D01*
X921258D01*
X921355Y650217D01*
X921438D01*
X921494D01*
X921535D01*
X921549D01*
X921882Y650203D01*
D02*
G37*
G36*
X916737Y630607D02*
Y635641D01*
X924281D01*
X916737Y630607D01*
D02*
G37*
G36*
X926334Y630524D02*
X918803D01*
X926334Y635544D01*
Y630524D01*
D02*
G37*
G36*
X921036Y627653D02*
X920551Y627598D01*
X920329Y627556D01*
X920107Y627501D01*
X919912Y627445D01*
X919732Y627403D01*
X919566Y627348D01*
X919413Y627293D01*
X919288Y627251D01*
X919177Y627196D01*
X919094Y627168D01*
X919039Y627140D01*
X918997Y627112D01*
X918983D01*
X918581Y626890D01*
X918221Y626627D01*
X917915Y626349D01*
X917666Y626100D01*
X917472Y625864D01*
X917389Y625753D01*
X917319Y625670D01*
X917278Y625587D01*
X917236Y625531D01*
X917222Y625504D01*
X917208Y625490D01*
X917097Y625282D01*
X917000Y625074D01*
X916834Y624671D01*
X916723Y624255D01*
X916653Y623895D01*
X916626Y623728D01*
X916598Y623562D01*
X916584Y623437D01*
Y623312D01*
X916570Y623215D01*
Y627681D01*
X921563D01*
X921036Y627653D01*
D02*
G37*
G36*
X921882Y626363D02*
X922201Y626336D01*
X922506Y626294D01*
X922783Y626239D01*
X923033Y626155D01*
X923269Y626086D01*
X923491Y626003D01*
X923685Y625920D01*
X923851Y625822D01*
X924004Y625739D01*
X924128Y625670D01*
X924226Y625601D01*
X924309Y625531D01*
X924378Y625490D01*
X924406Y625462D01*
X924420Y625448D01*
X924600Y625268D01*
X924753Y625074D01*
X924877Y624879D01*
X925002Y624685D01*
X925099Y624491D01*
X925169Y624283D01*
X925238Y624103D01*
X925294Y623909D01*
X925335Y623742D01*
X925363Y623576D01*
X925390Y623437D01*
X925404Y623312D01*
Y623215D01*
X925418Y623146D01*
Y623077D01*
X925404Y622813D01*
X925377Y622563D01*
X925321Y622342D01*
X925266Y622120D01*
X925182Y621912D01*
X925099Y621717D01*
X925016Y621537D01*
X924919Y621371D01*
X924822Y621232D01*
X924739Y621107D01*
X924656Y620996D01*
X924572Y620899D01*
X924517Y620830D01*
X924461Y620774D01*
X924434Y620747D01*
X924420Y620733D01*
X924226Y620566D01*
X924018Y620428D01*
X923796Y620303D01*
X923574Y620192D01*
X923338Y620109D01*
X923116Y620025D01*
X922672Y619915D01*
X922478Y619887D01*
X922284Y619859D01*
X922118Y619831D01*
X921979Y619818D01*
X921854Y619804D01*
X921757D01*
X921702D01*
X921688D01*
X921299Y619818D01*
X920939Y619845D01*
X920592Y619887D01*
X920287Y619956D01*
X920010Y620025D01*
X919760Y620109D01*
X919524Y620206D01*
X919330Y620289D01*
X919150Y620386D01*
X918997Y620469D01*
X918872Y620552D01*
X918775Y620622D01*
X918692Y620691D01*
X918637Y620733D01*
X918609Y620761D01*
X918595Y620774D01*
X918429Y620955D01*
X918290Y621149D01*
X918165Y621343D01*
X918054Y621551D01*
X917971Y621745D01*
X917888Y621939D01*
X917777Y622300D01*
X917749Y622466D01*
X917721Y622619D01*
X917694Y622744D01*
X917680Y622869D01*
X917666Y622966D01*
Y623090D01*
X917680Y623437D01*
X917735Y623770D01*
X917818Y624061D01*
X917902Y624311D01*
X917999Y624519D01*
X918040Y624602D01*
X918068Y624671D01*
X918110Y624741D01*
X918123Y624782D01*
X918151Y624796D01*
Y624810D01*
X918345Y625074D01*
X918567Y625309D01*
X918789Y625517D01*
X919011Y625684D01*
X919205Y625809D01*
X919372Y625906D01*
X919427Y625933D01*
X919469Y625961D01*
X919497Y625975D01*
X919510D01*
X919843Y626114D01*
X920204Y626211D01*
X920537Y626280D01*
X920856Y626322D01*
X921008Y626349D01*
X921133Y626363D01*
X921258D01*
X921355Y626377D01*
X921438D01*
X921494D01*
X921535D01*
X921549D01*
X921882Y626363D01*
D02*
G37*
%LPC*%
G36*
X926334Y722737D02*
Y719575D01*
X917874D01*
Y722737D01*
X926334D01*
X916737D01*
Y715137D01*
X917874D01*
Y718299D01*
X926334D01*
Y722737D01*
D02*
G37*
G36*
X926500Y714222D02*
X916570D01*
Y705041D01*
D01*
Y709632D01*
X916584Y709257D01*
X916626Y708911D01*
X916695Y708578D01*
X916778Y708259D01*
X916889Y707968D01*
X917000Y707690D01*
X917125Y707440D01*
X917250Y707219D01*
X917375Y707011D01*
X917499Y706830D01*
X917610Y706678D01*
X917721Y706553D01*
X917804Y706456D01*
X917874Y706373D01*
X917915Y706331D01*
X917929Y706317D01*
X918193Y706095D01*
X918470Y705901D01*
X918775Y705721D01*
X919080Y705582D01*
X919399Y705457D01*
X919705Y705346D01*
X920010Y705263D01*
X920301Y705208D01*
X920578Y705152D01*
X920842Y705111D01*
X921077Y705083D01*
X921272Y705055D01*
X921438D01*
X921563Y705041D01*
X926500D01*
X921674D01*
X922145Y705069D01*
X922575Y705125D01*
X922991Y705208D01*
X923172Y705263D01*
X923352Y705319D01*
X923504Y705360D01*
X923643Y705416D01*
X923768Y705457D01*
X923879Y705499D01*
X923962Y705527D01*
X924018Y705554D01*
X924059Y705582D01*
X924073D01*
X924475Y705818D01*
X924822Y706068D01*
X925127Y706345D01*
X925377Y706608D01*
X925585Y706844D01*
X925668Y706941D01*
X925723Y707025D01*
X925779Y707108D01*
X925820Y707163D01*
X925834Y707191D01*
X925848Y707205D01*
X925959Y707413D01*
X926056Y707621D01*
X926223Y708037D01*
X926334Y708439D01*
X926417Y708813D01*
X926444Y708994D01*
X926458Y709146D01*
X926486Y709285D01*
Y709410D01*
X926500Y709493D01*
Y709632D01*
X926472Y710089D01*
X926403Y710519D01*
X926320Y710921D01*
X926264Y711102D01*
X926209Y711268D01*
X926153Y711421D01*
X926098Y711560D01*
X926056Y711670D01*
X926015Y711768D01*
X925973Y711851D01*
X925945Y711920D01*
X925918Y711948D01*
Y711962D01*
X925668Y712350D01*
X925390Y712683D01*
X925099Y712960D01*
X924822Y713196D01*
X924558Y713390D01*
X924461Y713459D01*
X924364Y713515D01*
X924281Y713570D01*
X924226Y713598D01*
X924184Y713626D01*
X924170D01*
X923948Y713737D01*
X923726Y713820D01*
X923282Y713973D01*
X922839Y714083D01*
X922437Y714153D01*
X922256Y714167D01*
X922090Y714194D01*
X921937Y714208D01*
X921813D01*
X921702Y714222D01*
X926500D01*
D02*
G37*
G36*
Y703793D02*
X916570D01*
X921563D01*
X921036Y703765D01*
X920551Y703710D01*
X920329Y703668D01*
X920107Y703613D01*
X919912Y703557D01*
X919732Y703516D01*
X919566Y703460D01*
X919413Y703405D01*
X919288Y703363D01*
X919177Y703308D01*
X919094Y703280D01*
X919039Y703252D01*
X918997Y703225D01*
X918983D01*
X918581Y703003D01*
X918221Y702739D01*
X917915Y702462D01*
X917666Y702212D01*
X917472Y701976D01*
X917389Y701865D01*
X917319Y701782D01*
X917278Y701699D01*
X917236Y701644D01*
X917222Y701616D01*
X917208Y701602D01*
X917097Y701394D01*
X917000Y701186D01*
X916834Y700784D01*
X916723Y700368D01*
X916653Y700007D01*
X916626Y699841D01*
X916598Y699674D01*
X916584Y699549D01*
Y699425D01*
X916570Y699327D01*
Y699425D01*
Y699203D01*
X916584Y698828D01*
X916626Y698482D01*
X916695Y698149D01*
X916778Y697830D01*
X916889Y697539D01*
X917000Y697261D01*
X917125Y697011D01*
X917250Y696790D01*
X917375Y696582D01*
X917499Y696401D01*
X917610Y696249D01*
X917721Y696124D01*
X917804Y696027D01*
X917874Y695944D01*
X917915Y695902D01*
X917929Y695888D01*
X918193Y695666D01*
X918470Y695472D01*
X918775Y695292D01*
X919080Y695153D01*
X919399Y695028D01*
X919705Y694917D01*
X920010Y694834D01*
X920301Y694779D01*
X920578Y694723D01*
X920842Y694682D01*
X921077Y694654D01*
X921272Y694626D01*
X921438D01*
X921563Y694612D01*
X926500D01*
X921674D01*
X922145Y694640D01*
X922575Y694696D01*
X922991Y694779D01*
X923172Y694834D01*
X923352Y694890D01*
X923504Y694931D01*
X923643Y694987D01*
X923768Y695028D01*
X923879Y695070D01*
X923962Y695098D01*
X924018Y695125D01*
X924059Y695153D01*
X924073D01*
X924475Y695389D01*
X924822Y695639D01*
X925127Y695916D01*
X925377Y696179D01*
X925585Y696415D01*
X925668Y696512D01*
X925723Y696596D01*
X925779Y696679D01*
X925820Y696734D01*
X925834Y696762D01*
X925848Y696776D01*
X925959Y696984D01*
X926056Y697192D01*
X926223Y697608D01*
X926334Y698010D01*
X926417Y698384D01*
X926444Y698565D01*
X926458Y698717D01*
X926486Y698856D01*
Y698981D01*
X926500Y699064D01*
Y699203D01*
X926472Y699660D01*
X926403Y700090D01*
X926320Y700492D01*
X926264Y700673D01*
X926209Y700839D01*
X926153Y700992D01*
X926098Y701130D01*
X926056Y701241D01*
X926015Y701338D01*
X925973Y701422D01*
X925945Y701491D01*
X925918Y701519D01*
Y701533D01*
X925668Y701921D01*
X925390Y702254D01*
X925099Y702531D01*
X924822Y702767D01*
X924558Y702961D01*
X924461Y703030D01*
X924364Y703086D01*
X924281Y703141D01*
X924226Y703169D01*
X924184Y703197D01*
X924170D01*
X923948Y703308D01*
X923726Y703391D01*
X923282Y703543D01*
X922839Y703654D01*
X922437Y703724D01*
X922256Y703738D01*
X922090Y703765D01*
X921937Y703779D01*
X921813D01*
X921702Y703793D01*
X926500D01*
D02*
G37*
G36*
X923657Y693253D02*
X923546D01*
X923241Y693239D01*
X922964Y693184D01*
X922728Y693101D01*
X922506Y693017D01*
X922339Y692934D01*
X922215Y692851D01*
X922132Y692795D01*
X922104Y692782D01*
X921882Y692588D01*
X921702Y692380D01*
X921549Y692144D01*
X921424Y691936D01*
X921327Y691741D01*
X921272Y691575D01*
X921244Y691520D01*
X921230Y691478D01*
X921216Y691450D01*
Y691436D01*
X921077Y691672D01*
X920939Y691880D01*
X920786Y692047D01*
X920648Y692185D01*
X920537Y692296D01*
X920426Y692380D01*
X920370Y692421D01*
X920342Y692435D01*
X920134Y692546D01*
X919940Y692629D01*
X919746Y692698D01*
X919566Y692740D01*
X919413Y692768D01*
X919288Y692782D01*
X919219D01*
X919191D01*
X918956Y692768D01*
X918720Y692726D01*
X918512Y692657D01*
X918318Y692588D01*
X918151Y692518D01*
X918040Y692449D01*
X917957Y692407D01*
X917929Y692393D01*
X917721Y692241D01*
X917527Y692074D01*
X917375Y691894D01*
X917250Y691728D01*
X917153Y691589D01*
X917083Y691464D01*
X917042Y691381D01*
X917028Y691367D01*
Y691353D01*
X916931Y691090D01*
X916861Y690798D01*
X916806Y690507D01*
X916778Y690230D01*
X916750Y689980D01*
Y689869D01*
X916737Y689772D01*
Y686000D01*
X926334D01*
Y689661D01*
X926320Y689994D01*
X926306Y690285D01*
X926278Y690549D01*
X926250Y690771D01*
X926223Y690951D01*
X926209Y691090D01*
X926181Y691173D01*
Y691201D01*
X926112Y691436D01*
X926042Y691631D01*
X925959Y691811D01*
X925876Y691963D01*
X925820Y692088D01*
X925765Y692185D01*
X925723Y692241D01*
X925710Y692255D01*
X925585Y692407D01*
X925432Y692546D01*
X925280Y692657D01*
X925141Y692768D01*
X925002Y692851D01*
X924905Y692906D01*
X924836Y692948D01*
X924808Y692962D01*
X924586Y693059D01*
X924364Y693128D01*
X924156Y693184D01*
X923962Y693212D01*
X923796Y693239D01*
X923657Y693253D01*
D02*
G37*
%LPD*%
G36*
X921036Y714194D02*
X920551Y714139D01*
X920329Y714097D01*
X920107Y714042D01*
X919912Y713986D01*
X919732Y713945D01*
X919566Y713889D01*
X919413Y713834D01*
X919288Y713792D01*
X919177Y713737D01*
X919094Y713709D01*
X919039Y713681D01*
X918997Y713654D01*
X918983D01*
X918581Y713432D01*
X918221Y713168D01*
X917915Y712891D01*
X917666Y712641D01*
X917472Y712405D01*
X917389Y712294D01*
X917319Y712211D01*
X917278Y712128D01*
X917236Y712073D01*
X917222Y712045D01*
X917208Y712031D01*
X917097Y711823D01*
X917000Y711615D01*
X916834Y711213D01*
X916723Y710797D01*
X916653Y710436D01*
X916626Y710270D01*
X916598Y710103D01*
X916584Y709978D01*
Y709854D01*
X916570Y709757D01*
Y714222D01*
X921563D01*
X921036Y714194D01*
D02*
G37*
G36*
X921882Y712905D02*
X922201Y712877D01*
X922506Y712835D01*
X922783Y712780D01*
X923033Y712697D01*
X923269Y712627D01*
X923491Y712544D01*
X923685Y712461D01*
X923851Y712364D01*
X924004Y712281D01*
X924128Y712211D01*
X924226Y712142D01*
X924309Y712073D01*
X924378Y712031D01*
X924406Y712003D01*
X924420Y711989D01*
X924600Y711809D01*
X924753Y711615D01*
X924877Y711421D01*
X925002Y711227D01*
X925099Y711032D01*
X925169Y710824D01*
X925238Y710644D01*
X925294Y710450D01*
X925335Y710284D01*
X925363Y710117D01*
X925390Y709978D01*
X925404Y709854D01*
Y709757D01*
X925418Y709687D01*
Y709618D01*
X925404Y709354D01*
X925377Y709105D01*
X925321Y708883D01*
X925266Y708661D01*
X925182Y708453D01*
X925099Y708259D01*
X925016Y708079D01*
X924919Y707912D01*
X924822Y707773D01*
X924739Y707649D01*
X924656Y707538D01*
X924572Y707440D01*
X924517Y707371D01*
X924461Y707316D01*
X924434Y707288D01*
X924420Y707274D01*
X924226Y707108D01*
X924018Y706969D01*
X923796Y706844D01*
X923574Y706733D01*
X923338Y706650D01*
X923116Y706567D01*
X922672Y706456D01*
X922478Y706428D01*
X922284Y706400D01*
X922118Y706373D01*
X921979Y706359D01*
X921854Y706345D01*
X921757D01*
X921702D01*
X921688D01*
X921299Y706359D01*
X920939Y706386D01*
X920592Y706428D01*
X920287Y706497D01*
X920010Y706567D01*
X919760Y706650D01*
X919524Y706747D01*
X919330Y706830D01*
X919150Y706927D01*
X918997Y707011D01*
X918872Y707094D01*
X918775Y707163D01*
X918692Y707233D01*
X918637Y707274D01*
X918609Y707302D01*
X918595Y707316D01*
X918429Y707496D01*
X918290Y707690D01*
X918165Y707884D01*
X918054Y708092D01*
X917971Y708287D01*
X917888Y708481D01*
X917777Y708841D01*
X917749Y709008D01*
X917721Y709160D01*
X917694Y709285D01*
X917680Y709410D01*
X917666Y709507D01*
Y709632D01*
X917680Y709978D01*
X917735Y710311D01*
X917818Y710602D01*
X917902Y710852D01*
X917999Y711060D01*
X918040Y711143D01*
X918068Y711213D01*
X918110Y711282D01*
X918123Y711324D01*
X918151Y711338D01*
Y711351D01*
X918345Y711615D01*
X918567Y711851D01*
X918789Y712059D01*
X919011Y712225D01*
X919205Y712350D01*
X919372Y712447D01*
X919427Y712475D01*
X919469Y712503D01*
X919497Y712516D01*
X919510D01*
X919843Y712655D01*
X920204Y712752D01*
X920537Y712822D01*
X920856Y712863D01*
X921008Y712891D01*
X921133Y712905D01*
X921258D01*
X921355Y712919D01*
X921438D01*
X921494D01*
X921535D01*
X921549D01*
X921882Y712905D01*
D02*
G37*
G36*
Y702476D02*
X922201Y702448D01*
X922506Y702406D01*
X922783Y702351D01*
X923033Y702268D01*
X923269Y702198D01*
X923491Y702115D01*
X923685Y702032D01*
X923851Y701935D01*
X924004Y701852D01*
X924128Y701782D01*
X924226Y701713D01*
X924309Y701644D01*
X924378Y701602D01*
X924406Y701574D01*
X924420Y701560D01*
X924600Y701380D01*
X924753Y701186D01*
X924877Y700992D01*
X925002Y700798D01*
X925099Y700603D01*
X925169Y700395D01*
X925238Y700215D01*
X925294Y700021D01*
X925335Y699855D01*
X925363Y699688D01*
X925390Y699549D01*
X925404Y699425D01*
Y699327D01*
X925418Y699258D01*
Y699189D01*
X925404Y698925D01*
X925377Y698676D01*
X925321Y698454D01*
X925266Y698232D01*
X925182Y698024D01*
X925099Y697830D01*
X925016Y697650D01*
X924919Y697483D01*
X924822Y697344D01*
X924739Y697219D01*
X924656Y697109D01*
X924572Y697011D01*
X924517Y696942D01*
X924461Y696887D01*
X924434Y696859D01*
X924420Y696845D01*
X924226Y696679D01*
X924018Y696540D01*
X923796Y696415D01*
X923574Y696304D01*
X923338Y696221D01*
X923116Y696138D01*
X922672Y696027D01*
X922478Y695999D01*
X922284Y695971D01*
X922118Y695944D01*
X921979Y695930D01*
X921854Y695916D01*
X921757D01*
X921702D01*
X921688D01*
X921299Y695930D01*
X920939Y695957D01*
X920592Y695999D01*
X920287Y696068D01*
X920010Y696138D01*
X919760Y696221D01*
X919524Y696318D01*
X919330Y696401D01*
X919150Y696498D01*
X918997Y696582D01*
X918872Y696665D01*
X918775Y696734D01*
X918692Y696804D01*
X918637Y696845D01*
X918609Y696873D01*
X918595Y696887D01*
X918429Y697067D01*
X918290Y697261D01*
X918165Y697455D01*
X918054Y697663D01*
X917971Y697858D01*
X917888Y698052D01*
X917777Y698412D01*
X917749Y698579D01*
X917721Y698731D01*
X917694Y698856D01*
X917680Y698981D01*
X917666Y699078D01*
Y699203D01*
X917680Y699549D01*
X917735Y699882D01*
X917818Y700173D01*
X917902Y700423D01*
X917999Y700631D01*
X918040Y700714D01*
X918068Y700784D01*
X918110Y700853D01*
X918123Y700895D01*
X918151Y700909D01*
Y700922D01*
X918345Y701186D01*
X918567Y701422D01*
X918789Y701630D01*
X919011Y701796D01*
X919205Y701921D01*
X919372Y702018D01*
X919427Y702046D01*
X919469Y702074D01*
X919497Y702087D01*
X919510D01*
X919843Y702226D01*
X920204Y702323D01*
X920537Y702392D01*
X920856Y702434D01*
X921008Y702462D01*
X921133Y702476D01*
X921258D01*
X921355Y702489D01*
X921438D01*
X921494D01*
X921535D01*
X921549D01*
X921882Y702476D01*
D02*
G37*
G36*
X923712Y691936D02*
X923879Y691922D01*
X924018Y691894D01*
X924128Y691852D01*
X924226Y691811D01*
X924309Y691783D01*
X924350Y691769D01*
X924364Y691755D01*
X924489Y691672D01*
X924600Y691603D01*
X924683Y691506D01*
X924766Y691436D01*
X924822Y691367D01*
X924864Y691312D01*
X924891Y691270D01*
X924905Y691256D01*
X925016Y691020D01*
X925099Y690785D01*
X925127Y690687D01*
X925141Y690604D01*
X925155Y690549D01*
Y690535D01*
X925169Y690424D01*
X925182Y690299D01*
X925196Y690008D01*
Y687276D01*
X921896D01*
Y689800D01*
X921923Y690091D01*
X921951Y690327D01*
X921979Y690521D01*
X922007Y690674D01*
X922034Y690798D01*
X922048Y690854D01*
X922062Y690882D01*
X922132Y691062D01*
X922215Y691215D01*
X922312Y691353D01*
X922409Y691464D01*
X922492Y691547D01*
X922561Y691603D01*
X922617Y691644D01*
X922631Y691658D01*
X922783Y691755D01*
X922936Y691825D01*
X923088Y691880D01*
X923227Y691908D01*
X923352Y691936D01*
X923463Y691949D01*
X923518D01*
X923546D01*
X923712Y691936D01*
D02*
G37*
G36*
X919524Y691520D02*
X919691Y691492D01*
X919829Y691450D01*
X919940Y691409D01*
X920037Y691367D01*
X920120Y691326D01*
X920162Y691298D01*
X920176Y691284D01*
X920287Y691187D01*
X920398Y691062D01*
X920481Y690937D01*
X920537Y690826D01*
X920592Y690715D01*
X920634Y690632D01*
X920648Y690577D01*
X920661Y690549D01*
X920689Y690396D01*
X920717Y690202D01*
X920731Y690008D01*
X920745Y689814D01*
X920759Y689633D01*
Y687276D01*
X917874D01*
Y689550D01*
X917902Y689855D01*
X917915Y690091D01*
X917943Y690299D01*
X917971Y690452D01*
X917985Y690549D01*
X918012Y690618D01*
Y690632D01*
X918068Y690785D01*
X918151Y690923D01*
X918234Y691034D01*
X918318Y691131D01*
X918387Y691201D01*
X918456Y691256D01*
X918498Y691284D01*
X918512Y691298D01*
X918651Y691381D01*
X918789Y691436D01*
X918928Y691478D01*
X919066Y691506D01*
X919177Y691520D01*
X919261Y691534D01*
X919316D01*
X919344D01*
X919524Y691520D01*
D02*
G37*
%LPC*%
G36*
X954314Y592741D02*
X951900D01*
Y591511D01*
X954314D01*
Y592741D01*
D02*
G37*
G36*
X951216Y596199D02*
X946140D01*
Y595117D01*
X948036D01*
Y589801D01*
X949330D01*
Y595117D01*
X951216D01*
Y596199D01*
D02*
G37*
G36*
X943330D02*
X941961D01*
X939483Y589801D01*
X940852D01*
X941379Y591253D01*
X943949D01*
X944504Y589801D01*
X945900D01*
X943330Y596199D01*
D02*
G37*
G36*
X936497D02*
X933687D01*
Y589801D01*
X936460D01*
X936617Y589810D01*
X936895D01*
X937006Y589819D01*
X937181D01*
X937246Y589829D01*
X937338D01*
X937375Y589838D01*
X937412D01*
X937597Y589866D01*
X937764Y589912D01*
X937912Y589958D01*
X938041Y590014D01*
X938143Y590060D01*
X938217Y590106D01*
X938263Y590134D01*
X938282Y590143D01*
X938411Y590245D01*
X938513Y590356D01*
X938614Y590457D01*
X938688Y590568D01*
X938753Y590661D01*
X938799Y590735D01*
X938827Y590781D01*
X938836Y590800D01*
X938901Y590957D01*
X938957Y591105D01*
X938994Y591253D01*
X939012Y591382D01*
X939031Y591493D01*
X939040Y591576D01*
Y591650D01*
X939031Y591854D01*
X938994Y592038D01*
X938938Y592196D01*
X938883Y592344D01*
X938827Y592454D01*
X938772Y592538D01*
X938735Y592593D01*
X938725Y592612D01*
X938596Y592760D01*
X938457Y592880D01*
X938300Y592981D01*
X938161Y593055D01*
X938032Y593120D01*
X937921Y593166D01*
X937884Y593176D01*
X937856Y593185D01*
X937838Y593194D01*
X937829D01*
X937977Y593277D01*
X938106Y593361D01*
X938217Y593462D01*
X938309Y593545D01*
X938374Y593629D01*
X938429Y593693D01*
X938466Y593740D01*
X938476Y593758D01*
X938559Y593906D01*
X938624Y594045D01*
X938661Y594183D01*
X938698Y594313D01*
X938716Y594424D01*
X938725Y594507D01*
Y594562D01*
Y594572D01*
Y594581D01*
X938716Y594729D01*
X938698Y594877D01*
X938661Y594997D01*
X938624Y595108D01*
X938587Y595201D01*
X938550Y595274D01*
X938531Y595311D01*
X938522Y595330D01*
X938448Y595450D01*
X938365Y595552D01*
X938282Y595644D01*
X938208Y595728D01*
X938134Y595783D01*
X938078Y595829D01*
X938041Y595857D01*
X938032Y595866D01*
X937921Y595940D01*
X937801Y595996D01*
X937690Y596042D01*
X937588Y596079D01*
X937496Y596106D01*
X937431Y596125D01*
X937385Y596134D01*
X937366D01*
X937209Y596153D01*
X937033Y596171D01*
X936849Y596180D01*
X936664Y596190D01*
X936497Y596199D01*
D02*
G37*
%LPD*%
G36*
X943533Y592334D02*
X941767D01*
X942636Y594710D01*
X943533Y592334D01*
D02*
G37*
G36*
X936368Y595126D02*
X936608D01*
X936664Y595117D01*
X936765D01*
X936802Y595108D01*
X936812D01*
X936923Y595089D01*
X937024Y595062D01*
X937107Y595025D01*
X937181Y594988D01*
X937228Y594951D01*
X937274Y594914D01*
X937292Y594895D01*
X937302Y594886D01*
X937357Y594812D01*
X937394Y594729D01*
X937431Y594655D01*
X937449Y594581D01*
X937459Y594507D01*
X937468Y594452D01*
Y594415D01*
Y594405D01*
X937459Y594294D01*
X937440Y594193D01*
X937403Y594109D01*
X937375Y594035D01*
X937338Y593971D01*
X937302Y593934D01*
X937283Y593906D01*
X937274Y593897D01*
X937200Y593832D01*
X937117Y593786D01*
X937033Y593749D01*
X936950Y593721D01*
X936867Y593693D01*
X936812Y593684D01*
X936775Y593675D01*
X936719D01*
X936664Y593666D01*
X936377D01*
X936220Y593656D01*
X934981D01*
Y595136D01*
X936266D01*
X936368Y595126D01*
D02*
G37*
G36*
X936451Y592584D02*
X936562Y592575D01*
X936673D01*
X936765Y592565D01*
X936849Y592556D01*
X936913Y592547D01*
X936978Y592538D01*
X937024Y592528D01*
X937098Y592519D01*
X937144Y592501D01*
X937154D01*
X937246Y592464D01*
X937329Y592417D01*
X937403Y592371D01*
X937459Y592316D01*
X937505Y592279D01*
X937533Y592242D01*
X937551Y592214D01*
X937560Y592205D01*
X937607Y592122D01*
X937644Y592038D01*
X937671Y591964D01*
X937690Y591881D01*
X937699Y591817D01*
X937708Y591761D01*
Y591724D01*
Y591715D01*
X937699Y591595D01*
X937681Y591484D01*
X937653Y591391D01*
X937616Y591317D01*
X937579Y591253D01*
X937551Y591206D01*
X937533Y591179D01*
X937523Y591169D01*
X937449Y591105D01*
X937375Y591049D01*
X937292Y591003D01*
X937218Y590966D01*
X937154Y590947D01*
X937098Y590929D01*
X937061Y590920D01*
X937052D01*
X937015Y590910D01*
X936960D01*
X936839Y590901D01*
X936691Y590892D01*
X936543D01*
X936405Y590883D01*
X934981D01*
Y592593D01*
X936321D01*
X936451Y592584D01*
D02*
G37*
%LPC*%
G36*
X764597Y594182D02*
X763478D01*
Y592527D01*
X761805D01*
Y591381D01*
X763478D01*
Y589726D01*
X764597D01*
Y591381D01*
X766280D01*
Y592527D01*
X764597D01*
Y594182D01*
D02*
G37*
G36*
X761250Y595199D02*
X756174D01*
Y594117D01*
X758070D01*
Y588801D01*
X759364D01*
Y594117D01*
X761250D01*
Y595199D01*
D02*
G37*
G36*
X753363D02*
X751995D01*
X749517Y588801D01*
X750886D01*
X751413Y590253D01*
X753983D01*
X754538Y588801D01*
X755934D01*
X753363Y595199D01*
D02*
G37*
G36*
X746531D02*
X743720D01*
Y588801D01*
X746494D01*
X746651Y588810D01*
X746929D01*
X747039Y588820D01*
X747215D01*
X747280Y588829D01*
X747372D01*
X747409Y588838D01*
X747446D01*
X747631Y588866D01*
X747798Y588912D01*
X747946Y588958D01*
X748075Y589014D01*
X748177Y589060D01*
X748251Y589106D01*
X748297Y589134D01*
X748315Y589143D01*
X748445Y589245D01*
X748547Y589356D01*
X748648Y589458D01*
X748722Y589568D01*
X748787Y589661D01*
X748833Y589735D01*
X748861Y589781D01*
X748870Y589800D01*
X748935Y589957D01*
X748990Y590105D01*
X749027Y590253D01*
X749046Y590382D01*
X749064Y590493D01*
X749074Y590576D01*
Y590650D01*
X749064Y590854D01*
X749027Y591039D01*
X748972Y591196D01*
X748916Y591344D01*
X748861Y591455D01*
X748805Y591538D01*
X748768Y591593D01*
X748759Y591612D01*
X748630Y591760D01*
X748491Y591880D01*
X748334Y591982D01*
X748195Y592056D01*
X748066Y592120D01*
X747955Y592166D01*
X747918Y592176D01*
X747890Y592185D01*
X747872Y592194D01*
X747862D01*
X748010Y592277D01*
X748140Y592361D01*
X748251Y592462D01*
X748343Y592546D01*
X748408Y592629D01*
X748463Y592693D01*
X748500Y592740D01*
X748510Y592758D01*
X748593Y592906D01*
X748658Y593045D01*
X748695Y593183D01*
X748732Y593313D01*
X748750Y593424D01*
X748759Y593507D01*
Y593563D01*
Y593572D01*
Y593581D01*
X748750Y593729D01*
X748732Y593877D01*
X748695Y593997D01*
X748658Y594108D01*
X748621Y594201D01*
X748584Y594274D01*
X748565Y594311D01*
X748556Y594330D01*
X748482Y594450D01*
X748399Y594552D01*
X748315Y594644D01*
X748242Y594728D01*
X748167Y594783D01*
X748112Y594829D01*
X748075Y594857D01*
X748066Y594866D01*
X747955Y594940D01*
X747835Y594996D01*
X747724Y595042D01*
X747622Y595079D01*
X747530Y595107D01*
X747465Y595125D01*
X747419Y595134D01*
X747400D01*
X747243Y595153D01*
X747067Y595171D01*
X746882Y595181D01*
X746697Y595190D01*
X746531Y595199D01*
D02*
G37*
%LPD*%
G36*
X753567Y591334D02*
X751801D01*
X752670Y593710D01*
X753567Y591334D01*
D02*
G37*
G36*
X746402Y594127D02*
X746642D01*
X746697Y594117D01*
X746799D01*
X746836Y594108D01*
X746845D01*
X746956Y594090D01*
X747058Y594062D01*
X747141Y594025D01*
X747215Y593988D01*
X747261Y593951D01*
X747308Y593914D01*
X747326Y593895D01*
X747335Y593886D01*
X747391Y593812D01*
X747428Y593729D01*
X747465Y593655D01*
X747483Y593581D01*
X747493Y593507D01*
X747502Y593452D01*
Y593415D01*
Y593405D01*
X747493Y593294D01*
X747474Y593193D01*
X747437Y593110D01*
X747409Y593036D01*
X747372Y592971D01*
X747335Y592934D01*
X747317Y592906D01*
X747308Y592897D01*
X747234Y592832D01*
X747150Y592786D01*
X747067Y592749D01*
X746984Y592721D01*
X746901Y592693D01*
X746845Y592684D01*
X746808Y592675D01*
X746753D01*
X746697Y592666D01*
X746411D01*
X746254Y592656D01*
X745015D01*
Y594136D01*
X746300D01*
X746402Y594127D01*
D02*
G37*
G36*
X746485Y591584D02*
X746596Y591575D01*
X746707D01*
X746799Y591566D01*
X746882Y591556D01*
X746947Y591547D01*
X747012Y591538D01*
X747058Y591529D01*
X747132Y591519D01*
X747178Y591501D01*
X747188D01*
X747280Y591464D01*
X747363Y591418D01*
X747437Y591371D01*
X747493Y591316D01*
X747539Y591279D01*
X747567Y591242D01*
X747585Y591214D01*
X747594Y591205D01*
X747641Y591122D01*
X747678Y591039D01*
X747705Y590965D01*
X747724Y590881D01*
X747733Y590817D01*
X747742Y590761D01*
Y590724D01*
Y590715D01*
X747733Y590595D01*
X747714Y590484D01*
X747687Y590391D01*
X747650Y590317D01*
X747613Y590253D01*
X747585Y590206D01*
X747567Y590179D01*
X747557Y590169D01*
X747483Y590105D01*
X747409Y590049D01*
X747326Y590003D01*
X747252Y589966D01*
X747188Y589948D01*
X747132Y589929D01*
X747095Y589920D01*
X747086D01*
X747049Y589911D01*
X746993D01*
X746873Y589901D01*
X746725Y589892D01*
X746577D01*
X746439Y589883D01*
X745015D01*
Y591593D01*
X746355D01*
X746485Y591584D01*
D02*
G37*
D10*
X857000Y698000D02*
G03*
X856000Y698000I-500J0D01*
G01*
D02*
G03*
X857000Y698000I500J0D01*
G01*
X850000Y612499D02*
X848334D01*
X849167D01*
Y608334D01*
X848334Y607501D01*
X847501D01*
X846668Y608334D01*
X851666Y607501D02*
X853332D01*
X852499D01*
Y612499D01*
X851666Y611666D01*
X861001Y675752D02*
Y677418D01*
Y676585D01*
X865999D01*
Y675752D01*
Y677418D01*
X861834Y683250D02*
X861001Y682417D01*
Y680751D01*
X861834Y679917D01*
X865166D01*
X865999Y680751D01*
Y682417D01*
X865166Y683250D01*
X865999Y687415D02*
X861001D01*
X863500Y684916D01*
Y688248D01*
X880668Y784499D02*
X884000Y779501D01*
Y784499D02*
X880668Y779501D01*
X885666D02*
X887332D01*
X886499D01*
Y784499D01*
X885666Y783666D01*
X835835Y713499D02*
Y709334D01*
X836668Y708501D01*
X838334D01*
X839167Y709334D01*
Y713499D01*
X844165Y708501D02*
X840833D01*
X844165Y711833D01*
Y712666D01*
X843332Y713499D01*
X841666D01*
X840833Y712666D01*
X838668Y738499D02*
Y734334D01*
X839501Y733501D01*
X841167D01*
X842000Y734334D01*
Y738499D01*
X843666Y733501D02*
X845332D01*
X844499D01*
Y738499D01*
X843666Y737666D01*
X757499Y622835D02*
X752501D01*
Y625334D01*
X753334Y626167D01*
X755000D01*
X755833Y625334D01*
Y622835D01*
Y624501D02*
X757499Y626167D01*
X752501Y631165D02*
X753334Y629499D01*
X755000Y627833D01*
X756666D01*
X757499Y628666D01*
Y630332D01*
X756666Y631165D01*
X755833D01*
X755000Y630332D01*
Y627833D01*
X744835Y683501D02*
Y688499D01*
X747334D01*
X748167Y687666D01*
Y686000D01*
X747334Y685167D01*
X744835D01*
X746501D02*
X748167Y683501D01*
X752332D02*
Y688499D01*
X749833Y686000D01*
X753165D01*
X928335Y737501D02*
Y742499D01*
X930834D01*
X931667Y741666D01*
Y740000D01*
X930834Y739167D01*
X928335D01*
X930001D02*
X931667Y737501D01*
X933333Y741666D02*
X934166Y742499D01*
X935832D01*
X936665Y741666D01*
Y740833D01*
X935832Y740000D01*
X934999D01*
X935832D01*
X936665Y739167D01*
Y738334D01*
X935832Y737501D01*
X934166D01*
X933333Y738334D01*
X917499Y760835D02*
X912501D01*
Y763334D01*
X913334Y764167D01*
X915000D01*
X915833Y763334D01*
Y760835D01*
Y762501D02*
X917499Y764167D01*
Y769165D02*
Y765833D01*
X914167Y769165D01*
X913334D01*
X912501Y768332D01*
Y766666D01*
X913334Y765833D01*
X855668Y754501D02*
Y759499D01*
X858167D01*
X859000Y758666D01*
Y757000D01*
X858167Y756167D01*
X855668D01*
X857334D02*
X859000Y754501D01*
X860666D02*
X862332D01*
X861499D01*
Y759499D01*
X860666Y758666D01*
X808835Y819499D02*
Y814501D01*
X812167D01*
X817165D02*
X813833D01*
X817165Y817833D01*
Y818666D01*
X816332Y819499D01*
X814666D01*
X813833Y818666D01*
X831668Y817499D02*
Y812501D01*
X835000D01*
X836666D02*
X838332D01*
X837499D01*
Y817499D01*
X836666Y816666D01*
X887252Y709499D02*
X888918D01*
X888085D01*
Y704501D01*
X887252D01*
X888918D01*
X894750Y708666D02*
X893916Y709499D01*
X892250D01*
X891417Y708666D01*
Y705334D01*
X892250Y704501D01*
X893916D01*
X894750Y705334D01*
X899748Y704501D02*
X896416D01*
X899748Y707833D01*
Y708666D01*
X898915Y709499D01*
X897249D01*
X896416Y708666D01*
X771501Y647585D02*
Y649251D01*
Y648418D01*
X776499D01*
Y647585D01*
Y649251D01*
X772334Y655083D02*
X771501Y654250D01*
Y652583D01*
X772334Y651750D01*
X775666D01*
X776499Y652583D01*
Y654250D01*
X775666Y655083D01*
X776499Y656749D02*
Y658415D01*
Y657582D01*
X771501D01*
X772334Y656749D01*
X766668Y630499D02*
X763335D01*
Y628000D01*
X765002D01*
X763335D01*
Y625501D01*
X768334Y630499D02*
Y625501D01*
X770833D01*
X771666Y626334D01*
Y627167D01*
X770833Y628000D01*
X768334D01*
X770833D01*
X771666Y628833D01*
Y629666D01*
X770833Y630499D01*
X768334D01*
X776665Y625501D02*
X773332D01*
X776665Y628833D01*
Y629666D01*
X775831Y630499D01*
X774165D01*
X773332Y629666D01*
X762499Y657165D02*
X757501D01*
Y654666D01*
X758334Y653833D01*
X761666D01*
X762499Y654666D01*
Y657165D01*
X757501Y648835D02*
Y652167D01*
X760833Y648835D01*
X761666D01*
X762499Y649668D01*
Y651334D01*
X761666Y652167D01*
X782668Y678499D02*
Y673501D01*
X785167D01*
X786000Y674334D01*
Y677666D01*
X785167Y678499D01*
X782668D01*
X787666Y673501D02*
X789332D01*
X788499D01*
Y678499D01*
X787666Y677666D01*
X731334Y604668D02*
X730501Y603835D01*
Y602169D01*
X731334Y601335D01*
X734666D01*
X735499Y602169D01*
Y603835D01*
X734666Y604668D01*
X731334Y606334D02*
X730501Y607167D01*
Y608833D01*
X731334Y609666D01*
X732167D01*
X733000Y608833D01*
Y608000D01*
Y608833D01*
X733833Y609666D01*
X734666D01*
X735499Y608833D01*
Y607167D01*
X734666Y606334D01*
X730501Y611332D02*
Y614664D01*
X731334D01*
X734666Y611332D01*
X735499D01*
X740334Y604668D02*
X739501Y603835D01*
Y602169D01*
X740334Y601335D01*
X743666D01*
X744499Y602169D01*
Y603835D01*
X743666Y604668D01*
X740334Y606334D02*
X739501Y607167D01*
Y608833D01*
X740334Y609666D01*
X741167D01*
X742000Y608833D01*
Y608000D01*
Y608833D01*
X742833Y609666D01*
X743666D01*
X744499Y608833D01*
Y607167D01*
X743666Y606334D01*
X739501Y614664D02*
Y611332D01*
X742000D01*
X741167Y612998D01*
Y613831D01*
X742000Y614664D01*
X743666D01*
X744499Y613831D01*
Y612165D01*
X743666Y611332D01*
X966666Y605832D02*
X967499Y606665D01*
Y608331D01*
X966666Y609164D01*
X963334D01*
X962501Y608331D01*
Y606665D01*
X963334Y605832D01*
X962501Y600834D02*
Y604166D01*
X965833Y600834D01*
X966666D01*
X967499Y601667D01*
Y603333D01*
X966666Y604166D01*
Y599168D02*
X967499Y598335D01*
Y596669D01*
X966666Y595835D01*
X963334D01*
X962501Y596669D01*
Y598335D01*
X963334Y599168D01*
X966666D01*
X818084Y678666D02*
X817251Y679499D01*
X815585D01*
X814752Y678666D01*
Y675334D01*
X815585Y674501D01*
X817251D01*
X818084Y675334D01*
X819750Y674501D02*
X821416D01*
X820583D01*
Y679499D01*
X819750Y678666D01*
X823916Y675334D02*
X824749Y674501D01*
X826415D01*
X827248Y675334D01*
Y678666D01*
X826415Y679499D01*
X824749D01*
X823916Y678666D01*
Y677833D01*
X824749Y677000D01*
X827248D01*
X762084Y639666D02*
X761251Y640499D01*
X759585D01*
X758752Y639666D01*
Y636334D01*
X759585Y635501D01*
X761251D01*
X762084Y636334D01*
X763750Y635501D02*
X765416D01*
X764584D01*
Y640499D01*
X763750Y639666D01*
X767916D02*
X768749Y640499D01*
X770415D01*
X771248Y639666D01*
Y638833D01*
X770415Y638000D01*
X771248Y637167D01*
Y636334D01*
X770415Y635501D01*
X768749D01*
X767916Y636334D01*
Y637167D01*
X768749Y638000D01*
X767916Y638833D01*
Y639666D01*
X768749Y638000D02*
X770415D01*
X947084Y764166D02*
X946251Y764999D01*
X944585D01*
X943752Y764166D01*
Y760834D01*
X944585Y760001D01*
X946251D01*
X947084Y760834D01*
X948750Y760001D02*
X950416D01*
X949584D01*
Y764999D01*
X948750Y764166D01*
X955415Y760001D02*
Y764999D01*
X952916Y762500D01*
X956248D01*
X913334Y784584D02*
X912501Y783751D01*
Y782085D01*
X913334Y781252D01*
X916666D01*
X917499Y782085D01*
Y783751D01*
X916666Y784584D01*
X917499Y786250D02*
Y787916D01*
Y787083D01*
X912501D01*
X913334Y786250D01*
Y790416D02*
X912501Y791249D01*
Y792915D01*
X913334Y793748D01*
X914167D01*
X915000Y792915D01*
Y792082D01*
Y792915D01*
X915833Y793748D01*
X916666D01*
X917499Y792915D01*
Y791249D01*
X916666Y790416D01*
X748084Y702666D02*
X747251Y703499D01*
X745585D01*
X744752Y702666D01*
Y699334D01*
X745585Y698501D01*
X747251D01*
X748084Y699334D01*
X749750Y698501D02*
X751416D01*
X750583D01*
Y703499D01*
X749750Y702666D01*
X757248Y698501D02*
X753916D01*
X757248Y701833D01*
Y702666D01*
X756415Y703499D01*
X754749D01*
X753916Y702666D01*
X863917Y798666D02*
X863084Y799499D01*
X861418D01*
X860585Y798666D01*
Y795334D01*
X861418Y794501D01*
X863084D01*
X863917Y795334D01*
X865583Y794501D02*
X867250D01*
X866416D01*
Y799499D01*
X865583Y798666D01*
X869749Y794501D02*
X871415D01*
X870582D01*
Y799499D01*
X869749Y798666D01*
X847084D02*
X846251Y799499D01*
X844585D01*
X843752Y798666D01*
Y795334D01*
X844585Y794501D01*
X846251D01*
X847084Y795334D01*
X848750Y794501D02*
X850416D01*
X849583D01*
Y799499D01*
X848750Y798666D01*
X852916D02*
X853749Y799499D01*
X855415D01*
X856248Y798666D01*
Y795334D01*
X855415Y794501D01*
X853749D01*
X852916Y795334D01*
Y798666D01*
X791167D02*
X790334Y799499D01*
X788668D01*
X787835Y798666D01*
Y795334D01*
X788668Y794501D01*
X790334D01*
X791167Y795334D01*
X792833D02*
X793666Y794501D01*
X795332D01*
X796165Y795334D01*
Y798666D01*
X795332Y799499D01*
X793666D01*
X792833Y798666D01*
Y797833D01*
X793666Y797000D01*
X796165D01*
X792167Y828666D02*
X791334Y829499D01*
X789668D01*
X788835Y828666D01*
Y825334D01*
X789668Y824501D01*
X791334D01*
X792167Y825334D01*
X793833Y828666D02*
X794666Y829499D01*
X796332D01*
X797165Y828666D01*
Y827833D01*
X796332Y827000D01*
X797165Y826167D01*
Y825334D01*
X796332Y824501D01*
X794666D01*
X793833Y825334D01*
Y826167D01*
X794666Y827000D01*
X793833Y827833D01*
Y828666D01*
X794666Y827000D02*
X796332D01*
X779167Y798666D02*
X778334Y799499D01*
X776668D01*
X775835Y798666D01*
Y795334D01*
X776668Y794501D01*
X778334D01*
X779167Y795334D01*
X780833Y799499D02*
X784165D01*
Y798666D01*
X780833Y795334D01*
Y794501D01*
X763167Y721666D02*
X762334Y722499D01*
X760668D01*
X759835Y721666D01*
Y718334D01*
X760668Y717501D01*
X762334D01*
X763167Y718334D01*
X768165Y722499D02*
X766499Y721666D01*
X764833Y720000D01*
Y718334D01*
X765666Y717501D01*
X767332D01*
X768165Y718334D01*
Y719167D01*
X767332Y720000D01*
X764833D01*
X754047Y778286D02*
X753214Y779119D01*
X751548D01*
X750715Y778286D01*
Y774954D01*
X751548Y774121D01*
X753214D01*
X754047Y774954D01*
X759046Y779119D02*
X755714D01*
Y776620D01*
X757380Y777453D01*
X758213D01*
X759046Y776620D01*
Y774954D01*
X758213Y774121D01*
X756547D01*
X755714Y774954D01*
X835167Y807666D02*
X834334Y808499D01*
X832668D01*
X831835Y807666D01*
Y804334D01*
X832668Y803501D01*
X834334D01*
X835167Y804334D01*
X839332Y803501D02*
Y808499D01*
X836833Y806000D01*
X840165D01*
X844167Y825666D02*
X843334Y826499D01*
X841668D01*
X840835Y825666D01*
Y822334D01*
X841668Y821501D01*
X843334D01*
X844167Y822334D01*
X845833Y825666D02*
X846666Y826499D01*
X848332D01*
X849165Y825666D01*
Y824833D01*
X848332Y824000D01*
X847499D01*
X848332D01*
X849165Y823167D01*
Y822334D01*
X848332Y821501D01*
X846666D01*
X845833Y822334D01*
X871167Y783666D02*
X870334Y784499D01*
X868668D01*
X867835Y783666D01*
Y780334D01*
X868668Y779501D01*
X870334D01*
X871167Y780334D01*
X876165Y779501D02*
X872833D01*
X876165Y782833D01*
Y783666D01*
X875332Y784499D01*
X873666D01*
X872833Y783666D01*
X872000Y737666D02*
X871167Y738499D01*
X869501D01*
X868668Y737666D01*
Y734334D01*
X869501Y733501D01*
X871167D01*
X872000Y734334D01*
X873666Y733501D02*
X875332D01*
X874499D01*
Y738499D01*
X873666Y737666D01*
D11*
X829500Y696000D02*
G03*
X829500Y696000I-1000J0D01*
G01*
D12*
X796250Y662500D02*
G03*
X796250Y662500I-1250J0D01*
G01*
D13*
X805000Y650000D02*
X895000D01*
X797500Y642500D02*
X805000Y650000D01*
X895000D02*
X902500Y642500D01*
Y577500D02*
Y642500D01*
X797500Y577500D02*
Y642500D01*
X827500Y787500D02*
X832500D01*
Y782500D02*
Y787500D01*
D14*
X878750Y775000D02*
X888365D01*
X878750Y764443D02*
Y775000D01*
X791000Y721000D02*
X821000D01*
X791000Y696000D02*
X821000D01*
X948500Y781000D02*
X956500D01*
X948500D02*
Y787000D01*
X938500D02*
X948500D01*
X938500D02*
Y813000D01*
X948500D01*
Y819000D01*
X956500D01*
Y813000D02*
Y819000D01*
Y813000D02*
X966500D01*
Y787000D02*
Y813000D01*
X956500Y787000D02*
X966500D01*
X956500Y781000D02*
Y787000D01*
X946000Y686000D02*
X954000D01*
X946000D02*
Y692000D01*
X936000D02*
X946000D01*
X936000D02*
Y718000D01*
X946000D01*
Y724000D01*
X954000D01*
Y718000D02*
Y724000D01*
Y718000D02*
X964000D01*
Y692000D02*
Y718000D01*
X954000Y692000D02*
X964000D01*
X954000Y686000D02*
Y692000D01*
X946000Y661000D02*
X954000D01*
Y655000D02*
Y661000D01*
Y655000D02*
X964000D01*
Y629000D02*
Y655000D01*
X954000Y629000D02*
X964000D01*
X954000Y623000D02*
Y629000D01*
X946000Y623000D02*
X954000D01*
X946000D02*
Y629000D01*
X936000D02*
X946000D01*
X936000D02*
Y655000D01*
X946000D01*
Y661000D01*
X888750Y670500D02*
X896250D01*
X888750D02*
Y699500D01*
X896250D01*
Y670500D02*
Y699500D01*
X899750Y669250D02*
X910250D01*
D15*
X760500Y682971D02*
X773028D01*
X760500Y670029D02*
Y682971D01*
Y670029D02*
X773028D01*
X738028Y640500D02*
Y653028D01*
Y640500D02*
X750972D01*
Y653028D01*
M02*
