G04*
G04 #@! TF.GenerationSoftware,Altium Limited,Altium Designer,22.10.1 (41)*
G04*
G04 Layer_Color=16711935*
%FSLAX44Y44*%
%MOMM*%
G71*
G04*
G04 #@! TF.SameCoordinates,4435170C-8FAF-4430-8920-974BABAA59A2*
G04*
G04*
G04 #@! TF.FilePolarity,Negative*
G04*
G01*
G75*
%ADD35R,0.4524X1.1424*%
%ADD36R,0.8524X0.7524*%
%ADD37R,0.7524X0.8524*%
%ADD45R,2.1524X2.1524*%
%ADD48C,1.2000*%
%ADD49O,1.1000X2.3000*%
%ADD50O,1.1000X2.0000*%
%ADD79R,0.4000X0.9000*%
%ADD80R,0.9000X0.4000*%
%ADD81R,1.8024X2.6024*%
%ADD82R,1.0024X0.5024*%
%ADD83R,0.7524X0.4524*%
%ADD84R,0.4524X0.7524*%
D35*
X925000Y750950D02*
D03*
X920000D02*
D03*
X915000D02*
D03*
Y767050D02*
D03*
X920000D02*
D03*
X925000D02*
D03*
D36*
X821000Y638000D02*
D03*
Y648000D02*
D03*
X776000Y595000D02*
D03*
Y605000D02*
D03*
X787000Y595000D02*
D03*
Y605000D02*
D03*
X885000Y741000D02*
D03*
Y751000D02*
D03*
X790000Y647000D02*
D03*
Y637000D02*
D03*
X789000Y656000D02*
D03*
Y666000D02*
D03*
X831000Y648000D02*
D03*
Y638000D02*
D03*
X865000Y605000D02*
D03*
Y615000D02*
D03*
X837500Y605000D02*
D03*
Y615000D02*
D03*
D37*
X744000Y655000D02*
D03*
X754000D02*
D03*
X818500Y760500D02*
D03*
X828500D02*
D03*
X818500Y780500D02*
D03*
X828500D02*
D03*
X818500Y770500D02*
D03*
X828500D02*
D03*
X869000Y725000D02*
D03*
X879000D02*
D03*
X766000Y612000D02*
D03*
X756000D02*
D03*
X775000Y655000D02*
D03*
X765000D02*
D03*
X804000Y657000D02*
D03*
X814000D02*
D03*
D45*
X956000Y819000D02*
D03*
X956000Y796000D02*
D03*
Y773000D02*
D03*
X955000Y750000D02*
D03*
D48*
X879000Y626000D02*
D03*
X821000D02*
D03*
D49*
X806750Y631000D02*
D03*
X893250D02*
D03*
D50*
Y589000D02*
D03*
X806750D02*
D03*
D79*
X852500Y735500D02*
D03*
X857500D02*
D03*
X862500D02*
D03*
X867500D02*
D03*
Y764500D02*
D03*
X862500D02*
D03*
X857500D02*
D03*
X852500D02*
D03*
D80*
X874500Y742500D02*
D03*
Y747500D02*
D03*
Y752500D02*
D03*
Y757500D02*
D03*
X845500D02*
D03*
Y752500D02*
D03*
Y747500D02*
D03*
Y742500D02*
D03*
D81*
X759000Y633000D02*
D03*
D82*
X744500Y642750D02*
D03*
Y636250D02*
D03*
Y629750D02*
D03*
Y623250D02*
D03*
X773500D02*
D03*
Y629750D02*
D03*
Y636250D02*
D03*
Y642750D02*
D03*
D83*
X792000Y772000D02*
D03*
Y767000D02*
D03*
Y762000D02*
D03*
X810000D02*
D03*
Y767000D02*
D03*
Y772000D02*
D03*
D84*
X793500Y755500D02*
D03*
X798500D02*
D03*
X803500D02*
D03*
X808500D02*
D03*
Y778500D02*
D03*
X803500D02*
D03*
X798500D02*
D03*
X793500D02*
D03*
M02*
