G04*
G04 #@! TF.GenerationSoftware,Altium Limited,Altium Designer,22.10.1 (41)*
G04*
G04 Layer_Color=16711935*
%FSLAX44Y44*%
%MOMM*%
G71*
G04*
G04 #@! TF.SameCoordinates,4435170C-8FAF-4430-8920-974BABAA59A2*
G04*
G04*
G04 #@! TF.FilePolarity,Positive*
G04*
G01*
G75*
%ADD10C,0.1000*%
%ADD12C,0.2500*%
%ADD13C,0.3000*%
%ADD14C,0.2000*%
%ADD15C,0.1750*%
%ADD85C,0.1500*%
D10*
X766500Y648000D02*
X774000Y640500D01*
Y618000D02*
Y648000D01*
X744000Y618000D02*
X774000D01*
X744000D02*
Y648000D01*
X774000D01*
X884500Y670500D02*
X900500D01*
X884500D02*
Y699500D01*
X900500D01*
Y670500D02*
Y699500D01*
X891000Y670500D02*
X900500Y680000D01*
X791000Y647000D02*
Y659000D01*
X779000Y647000D02*
X791000D01*
X779000D02*
Y659000D01*
X791000D01*
X788000D02*
X791000Y656000D01*
X754500Y667166D02*
Y663834D01*
X756166Y665500D02*
X752834D01*
X787166Y666500D02*
X783834D01*
X785500Y664834D02*
Y668166D01*
D12*
X900304Y749487D02*
G03*
X900304Y749487I-1000J0D01*
G01*
D13*
X902500Y560000D02*
Y642500D01*
X895000Y650000D02*
X902500Y642500D01*
X805000Y650000D02*
X895000D01*
X797500Y642500D02*
X805000Y650000D01*
X797500Y637500D02*
Y642500D01*
Y560000D02*
X902500D01*
X797500D02*
Y637500D01*
X787500Y790000D02*
X825000D01*
X835000Y780000D01*
Y730000D02*
Y780000D01*
X775000Y790000D02*
X787500D01*
X775000Y730000D02*
Y790000D01*
Y730000D02*
X835000D01*
D14*
X834500Y701000D02*
G03*
X834500Y701000I-1000J0D01*
G01*
X843000Y676000D02*
X859000D01*
X843000D02*
Y688000D01*
X859000D01*
Y676000D02*
Y688000D01*
X878750Y775000D02*
X905250D01*
X878750Y743000D02*
Y775000D01*
Y743000D02*
X905250D01*
Y775000D01*
X840000Y770000D02*
X862500D01*
X880000Y730000D02*
Y770000D01*
X862500D02*
X880000D01*
X847500Y730000D02*
X880000D01*
X840000Y737500D02*
X847500Y730000D01*
X840000Y737500D02*
Y770000D01*
X788500Y782000D02*
X813500D01*
Y752000D02*
Y782000D01*
X788500Y752000D02*
X813500D01*
X788500D02*
Y782000D01*
X786000Y721000D02*
X828500D01*
X786000Y696000D02*
X828500D01*
X786000D02*
Y721000D01*
X828500Y696000D02*
Y721000D01*
X932500Y770000D02*
Y830000D01*
X972500D01*
Y770000D02*
Y830000D01*
X932500Y770000D02*
X972500D01*
X930000Y675000D02*
Y735000D01*
X970000D01*
Y675000D02*
Y735000D01*
X930000Y675000D02*
X970000D01*
Y612000D02*
Y672000D01*
X930000Y612000D02*
X970000D01*
X930000D02*
Y672000D01*
X970000D01*
X912000Y765000D02*
X928000D01*
X912000Y753000D02*
Y765000D01*
Y753000D02*
X928000D01*
Y765000D01*
D15*
X817000Y821500D02*
X831000D01*
Y798500D02*
Y821500D01*
X817000Y798500D02*
X831000D01*
X817000D02*
Y821500D01*
X918000Y753500D02*
Y776500D01*
Y753500D02*
X932000D01*
Y776500D01*
X918000D02*
X932000D01*
X748380Y774620D02*
X771380D01*
X748380Y760620D02*
Y774620D01*
Y760620D02*
X771380D01*
Y774620D01*
X783000Y669500D02*
Y683500D01*
X760000Y669500D02*
X783000D01*
X760000D02*
Y683500D01*
X783000D01*
X814000Y631500D02*
Y654500D01*
X828000D01*
Y631500D02*
Y654500D01*
X814000Y631500D02*
X828000D01*
X737500Y663000D02*
X751500D01*
Y640000D02*
Y663000D01*
X737500Y640000D02*
X751500D01*
X737500D02*
Y663000D01*
Y618000D02*
Y641000D01*
Y618000D02*
X751500D01*
Y641000D01*
X737500D02*
X751500D01*
X737500Y662000D02*
X760500D01*
Y648000D02*
Y662000D01*
X737500Y648000D02*
X760500D01*
X737500D02*
Y662000D01*
X769000Y588500D02*
Y611500D01*
X783000D01*
Y588500D02*
Y611500D01*
X769000Y588500D02*
X783000D01*
X780000D02*
Y611500D01*
X794000D01*
Y588500D02*
Y611500D01*
X780000Y588500D02*
X794000D01*
X760000Y595500D02*
Y618500D01*
X746000D02*
X760000D01*
X746000Y595500D02*
Y618500D01*
Y595500D02*
X760000D01*
X770000D02*
Y618500D01*
X756000D02*
X770000D01*
X756000Y595500D02*
Y618500D01*
Y595500D02*
X770000D01*
X765500Y611000D02*
X788500D01*
Y625000D01*
X765500D02*
X788500D01*
X765500Y611000D02*
Y625000D01*
X878000Y757500D02*
X892000D01*
X878000Y734500D02*
Y757500D01*
Y734500D02*
X892000D01*
Y757500D01*
X795500Y789000D02*
X818500D01*
Y803000D01*
X795500D02*
X818500D01*
X795500Y789000D02*
Y803000D01*
X835000Y753500D02*
Y767500D01*
X812000D02*
X835000D01*
X812000Y753500D02*
Y767500D01*
Y753500D02*
X835000D01*
Y773500D02*
Y787500D01*
X812000D02*
X835000D01*
X812000Y773500D02*
Y787500D01*
Y773500D02*
X835000D01*
Y763500D02*
Y777500D01*
X812000D02*
X835000D01*
X812000Y763500D02*
Y777500D01*
Y763500D02*
X835000D01*
X885500Y718000D02*
Y732000D01*
X862500D02*
X885500D01*
X862500Y718000D02*
Y732000D01*
Y718000D02*
X885500D01*
X865000Y756500D02*
X879000D01*
X865000D02*
Y779500D01*
X879000D01*
Y756500D02*
Y779500D01*
X865000Y761500D02*
X879000D01*
Y738500D02*
Y761500D01*
X865000Y738500D02*
X879000D01*
X865000D02*
Y761500D01*
X840000Y770500D02*
Y793500D01*
Y770500D02*
X854000D01*
Y793500D01*
X840000D02*
X854000D01*
X851000Y770500D02*
X865000D01*
X851000D02*
Y793500D01*
X865000D01*
Y770500D02*
Y793500D01*
X842500Y759000D02*
Y773000D01*
X865500D01*
Y759000D02*
Y773000D01*
X842500Y759000D02*
X865500D01*
X817500Y803000D02*
X840500D01*
X817500Y789000D02*
Y803000D01*
Y789000D02*
X840500D01*
Y803000D01*
X789000Y800500D02*
Y823500D01*
X775000D02*
X789000D01*
X775000Y800500D02*
Y823500D01*
Y800500D02*
X789000D01*
X817500Y831000D02*
X840500D01*
X817500Y817000D02*
Y831000D01*
Y817000D02*
X840500D01*
Y831000D01*
X785500Y810000D02*
X808500D01*
Y824000D01*
X785500D02*
X808500D01*
X785500Y810000D02*
Y824000D01*
X795500Y800000D02*
X818500D01*
Y814000D01*
X795500D02*
X818500D01*
X795500Y800000D02*
Y814000D01*
X755500Y722000D02*
Y736000D01*
X778500D01*
Y722000D02*
Y736000D01*
X755500Y722000D02*
X778500D01*
X756500Y694000D02*
X779500D01*
Y708000D01*
X756500D02*
X779500D01*
X756500Y694000D02*
Y708000D01*
X749500Y605000D02*
Y619000D01*
Y605000D02*
X772500D01*
Y619000D01*
X749500D02*
X772500D01*
X783000Y630500D02*
X797000D01*
Y653500D01*
X783000D02*
X797000D01*
X783000Y630500D02*
Y653500D01*
X782000Y672500D02*
X796000D01*
X782000Y649500D02*
Y672500D01*
Y649500D02*
X796000D01*
Y672500D01*
X758500Y648000D02*
Y662000D01*
Y648000D02*
X781500D01*
Y662000D01*
X758500D02*
X781500D01*
X824000Y631500D02*
X838000D01*
Y654500D01*
X824000D02*
X838000D01*
X824000Y631500D02*
Y654500D01*
X918000Y776000D02*
X932000D01*
X918000D02*
Y799000D01*
X932000D01*
Y776000D02*
Y799000D01*
X961500Y733000D02*
Y747000D01*
X938500Y733000D02*
X961500D01*
X938500D02*
Y747000D01*
X961500D01*
Y745500D02*
Y759500D01*
X938500Y745500D02*
X961500D01*
X938500D02*
Y759500D01*
X961500D01*
X761000Y669500D02*
Y683500D01*
X738000Y669500D02*
X761000D01*
X738000D02*
Y683500D01*
X761000D01*
X938500Y600500D02*
Y614500D01*
X961500D01*
Y600500D02*
Y614500D01*
X938500Y600500D02*
X961500D01*
X820500Y650000D02*
Y664000D01*
X797500D02*
X820500D01*
X797500Y650000D02*
Y664000D01*
Y650000D02*
X820500D01*
X858000Y621500D02*
X872000D01*
X858000Y598500D02*
Y621500D01*
Y598500D02*
X872000D01*
Y621500D01*
X830500D02*
X844500D01*
X830500Y598500D02*
Y621500D01*
Y598500D02*
X844500D01*
Y621500D01*
X791500Y684000D02*
X814500D01*
X791500Y670000D02*
Y684000D01*
Y670000D02*
X814500D01*
Y684000D01*
X770500Y630000D02*
X793500D01*
Y644000D01*
X770500D02*
X793500D01*
X770500Y630000D02*
Y644000D01*
X896998Y765665D02*
X887002Y759000D01*
X896998D02*
X887002Y765665D01*
Y755668D02*
Y752335D01*
Y754001D01*
X896998D01*
X895332Y755668D01*
X809998Y768331D02*
X801668D01*
X800002Y766665D01*
Y763332D01*
X801668Y761666D01*
X809998D01*
X800002Y751669D02*
Y758334D01*
X806666Y751669D01*
X808332D01*
X809998Y753335D01*
Y756668D01*
X808332Y758334D01*
D85*
X953332Y648665D02*
X954998Y650331D01*
Y653663D01*
X953332Y655329D01*
X951666D01*
X950000Y653663D01*
Y650331D01*
X948334Y648665D01*
X946668D01*
X945002Y650331D01*
Y653663D01*
X946668Y655329D01*
X954998Y645332D02*
X945002D01*
X948334Y642000D01*
X945002Y638668D01*
X954998D01*
X953332Y635336D02*
X954998Y633669D01*
Y630337D01*
X953332Y628671D01*
X951666D01*
X950000Y630337D01*
Y632003D01*
Y630337D01*
X948334Y628671D01*
X946668D01*
X945002Y630337D01*
Y633669D01*
X946668Y635336D01*
X850000Y614998D02*
X846668D01*
X848334D01*
Y606668D01*
X846668Y605002D01*
X845002D01*
X843335Y606668D01*
X853332Y605002D02*
X856665D01*
X854998D01*
Y614998D01*
X853332Y613332D01*
X949168Y795002D02*
X947502Y793335D01*
Y790003D01*
X949168Y788337D01*
X950834D01*
X952500Y790003D01*
Y793335D01*
X954166Y795002D01*
X955832D01*
X957498Y793335D01*
Y790003D01*
X955832Y788337D01*
X947502Y798334D02*
X957498D01*
X954166Y801666D01*
X957498Y804998D01*
X947502D01*
X957498Y808331D02*
Y811663D01*
Y809997D01*
X947502D01*
X949168Y808331D01*
X812664Y703502D02*
Y711832D01*
X810998Y713498D01*
X807666D01*
X806000Y711832D01*
Y703502D01*
X802668Y713498D02*
X799335D01*
X801002D01*
Y703502D01*
X802668Y705168D01*
X946668Y698335D02*
X945002Y696669D01*
Y693337D01*
X946668Y691671D01*
X948334D01*
X950000Y693337D01*
Y696669D01*
X951666Y698335D01*
X953332D01*
X954998Y696669D01*
Y693337D01*
X953332Y691671D01*
X945002Y701668D02*
X954998D01*
X951666Y705000D01*
X954998Y708332D01*
X945002D01*
X954998Y718329D02*
Y711665D01*
X948334Y718329D01*
X946668D01*
X945002Y716663D01*
Y713331D01*
X946668Y711665D01*
X828998Y816665D02*
X819002D01*
Y810000D01*
Y806668D02*
Y803335D01*
Y805002D01*
X828998D01*
X827332Y806668D01*
X920002Y773331D02*
X929998D01*
Y768332D01*
X928332Y766666D01*
X925000D01*
X923334Y768332D01*
Y773331D01*
Y769998D02*
X920002Y766666D01*
Y756669D02*
Y763334D01*
X926666Y756669D01*
X928332D01*
X929998Y758335D01*
Y761668D01*
X928332Y763334D01*
X761546Y763018D02*
X763213Y761351D01*
X766545D01*
X768211Y763018D01*
Y769682D01*
X766545Y771348D01*
X763213D01*
X761546Y769682D01*
X751550Y761351D02*
X758214D01*
Y766350D01*
X754882Y764684D01*
X753216D01*
X751550Y766350D01*
Y769682D01*
X753216Y771348D01*
X756548D01*
X758214Y769682D01*
X943335Y612102D02*
X941669Y613768D01*
X938337D01*
X936671Y612102D01*
Y605438D01*
X938337Y603772D01*
X941669D01*
X943335Y605438D01*
X953332Y603772D02*
X946668D01*
X953332Y610436D01*
Y612102D01*
X951666Y613768D01*
X948334D01*
X946668Y612102D01*
X956665D02*
X958331Y613768D01*
X961663D01*
X963329Y612102D01*
Y605438D01*
X961663Y603772D01*
X958331D01*
X956665Y605438D01*
Y612102D01*
X778165Y670232D02*
Y680228D01*
X773166D01*
X771500Y678562D01*
Y671898D01*
X773166Y670232D01*
X778165D01*
X768168Y680228D02*
X764836D01*
X766502D01*
Y670232D01*
X768168Y671898D01*
X825602Y636335D02*
X827268Y634669D01*
Y631337D01*
X825602Y629671D01*
X818938D01*
X817272Y631337D01*
Y634669D01*
X818938Y636335D01*
X817272Y646332D02*
Y639668D01*
X823936Y646332D01*
X825602D01*
X827268Y644666D01*
Y641334D01*
X825602Y639668D01*
X827268Y656329D02*
Y649665D01*
X822270D01*
X823936Y652997D01*
Y654663D01*
X822270Y656329D01*
X818938D01*
X817272Y654663D01*
Y651331D01*
X818938Y649665D01*
X748398Y600336D02*
X746732Y598669D01*
Y595337D01*
X748398Y593671D01*
X755062D01*
X756728Y595337D01*
Y598669D01*
X755062Y600336D01*
X748398Y603668D02*
X746732Y605334D01*
Y608666D01*
X748398Y610332D01*
X750064D01*
X751730Y608666D01*
Y607000D01*
Y608666D01*
X753396Y610332D01*
X755062D01*
X756728Y608666D01*
Y605334D01*
X755062Y603668D01*
X746732Y613665D02*
Y620329D01*
X748398D01*
X755062Y613665D01*
X756728D01*
X750768Y659831D02*
X740772D01*
Y654832D01*
X742438Y653166D01*
X749102D01*
X750768Y654832D01*
Y659831D01*
X740772Y643169D02*
Y649834D01*
X747436Y643169D01*
X749102D01*
X750768Y644835D01*
Y648168D01*
X749102Y649834D01*
X739502Y637831D02*
X749498D01*
Y632832D01*
X747832Y631166D01*
X744500D01*
X742834Y632832D01*
Y637831D01*
Y634498D02*
X739502Y631166D01*
X749498Y621169D02*
X747832Y624502D01*
X744500Y627834D01*
X741168D01*
X739502Y626168D01*
Y622835D01*
X741168Y621169D01*
X742834D01*
X744500Y622835D01*
Y627834D01*
X740669Y659998D02*
Y650002D01*
X745668D01*
X747334Y651668D01*
Y655000D01*
X745668Y656666D01*
X740669D01*
X744002D02*
X747334Y659998D01*
X757331Y650002D02*
X750666D01*
Y655000D01*
X753998Y653334D01*
X755665D01*
X757331Y655000D01*
Y658332D01*
X755665Y659998D01*
X752332D01*
X750666Y658332D01*
X780602Y593335D02*
X782268Y591669D01*
Y588337D01*
X780602Y586671D01*
X773938D01*
X772272Y588337D01*
Y591669D01*
X773938Y593335D01*
X772272Y601666D02*
X782268D01*
X777270Y596668D01*
Y603332D01*
X772272Y611663D02*
X782268D01*
X777270Y606665D01*
Y613329D01*
X791602Y593335D02*
X793268Y591669D01*
Y588337D01*
X791602Y586671D01*
X784938D01*
X783272Y588337D01*
Y591669D01*
X784938Y593335D01*
X783272Y601666D02*
X793268D01*
X788270Y596668D01*
Y603332D01*
X783272Y613329D02*
Y606665D01*
X789936Y613329D01*
X791602D01*
X793268Y611663D01*
Y608331D01*
X791602Y606665D01*
X758398Y600335D02*
X756732Y598669D01*
Y595337D01*
X758398Y593671D01*
X765062D01*
X766728Y595337D01*
Y598669D01*
X765062Y600335D01*
X758398Y603668D02*
X756732Y605334D01*
Y608666D01*
X758398Y610332D01*
X760064D01*
X761730Y608666D01*
Y607000D01*
Y608666D01*
X763396Y610332D01*
X765062D01*
X766728Y608666D01*
Y605334D01*
X765062Y603668D01*
X756732Y620329D02*
Y613665D01*
X761730D01*
X760064Y616997D01*
Y618663D01*
X761730Y620329D01*
X765062D01*
X766728Y618663D01*
Y615331D01*
X765062Y613665D01*
X770335Y622998D02*
X763671D01*
Y618000D01*
X767003D01*
X763671D01*
Y613002D01*
X773668Y622998D02*
Y613002D01*
X778666D01*
X780332Y614668D01*
Y616334D01*
X778666Y618000D01*
X773668D01*
X778666D01*
X780332Y619666D01*
Y621332D01*
X778666Y622998D01*
X773668D01*
X790329Y613002D02*
X783664D01*
X790329Y619666D01*
Y621332D01*
X788663Y622998D01*
X785331D01*
X783664Y621332D01*
X880398Y752664D02*
X878732Y754331D01*
Y757663D01*
X880398Y759329D01*
X887062D01*
X888728Y757663D01*
Y754331D01*
X887062Y752664D01*
X888728Y742668D02*
Y749332D01*
X882064Y742668D01*
X880398D01*
X878732Y744334D01*
Y747666D01*
X880398Y749332D01*
X888728Y734337D02*
X878732D01*
X883730Y739335D01*
Y732671D01*
X805334Y800602D02*
X803668Y802268D01*
X800335D01*
X798669Y800602D01*
Y793938D01*
X800335Y792272D01*
X803668D01*
X805334Y793938D01*
X808666D02*
X810332Y792272D01*
X813664D01*
X815331Y793938D01*
Y800602D01*
X813664Y802268D01*
X810332D01*
X808666Y800602D01*
Y798936D01*
X810332Y797270D01*
X815331D01*
X829331Y765102D02*
X830997Y766768D01*
X834330D01*
X835996Y765102D01*
Y758438D01*
X834330Y756772D01*
X830997D01*
X829331Y758438D01*
X825999Y756772D02*
X822667D01*
X824333D01*
Y766768D01*
X825999Y765102D01*
X817669Y766768D02*
X811004D01*
Y765102D01*
X817669Y758438D01*
Y756772D01*
X829331Y785102D02*
X830997Y786768D01*
X834330D01*
X835996Y785102D01*
Y778438D01*
X834330Y776772D01*
X830997D01*
X829331Y778438D01*
X825999Y776772D02*
X822667D01*
X824333D01*
Y786768D01*
X825999Y785102D01*
X811004Y786768D02*
X817669D01*
Y781770D01*
X814336Y783436D01*
X812670D01*
X811004Y781770D01*
Y778438D01*
X812670Y776772D01*
X816002D01*
X817669Y778438D01*
X829331Y775102D02*
X830997Y776768D01*
X834330D01*
X835996Y775102D01*
Y768438D01*
X834330Y766772D01*
X830997D01*
X829331Y768438D01*
X825999Y766772D02*
X822667D01*
X824333D01*
Y776768D01*
X825999Y775102D01*
X811004Y776768D02*
X814336Y775102D01*
X817669Y771770D01*
Y768438D01*
X816002Y766772D01*
X812670D01*
X811004Y768438D01*
Y770104D01*
X812670Y771770D01*
X817669D01*
X880665Y729602D02*
X882331Y731268D01*
X885663D01*
X887329Y729602D01*
Y722938D01*
X885663Y721272D01*
X882331D01*
X880665Y722938D01*
X870668Y721272D02*
X877332D01*
X870668Y727936D01*
Y729602D01*
X872334Y731268D01*
X875666D01*
X877332Y729602D01*
X867336D02*
X865669Y731268D01*
X862337D01*
X860671Y729602D01*
Y727936D01*
X862337Y726270D01*
X864003D01*
X862337D01*
X860671Y724604D01*
Y722938D01*
X862337Y721272D01*
X865669D01*
X867336Y722938D01*
X867398Y768000D02*
X865732Y766334D01*
Y763002D01*
X867398Y761336D01*
X874062D01*
X875728Y763002D01*
Y766334D01*
X874062Y768000D01*
X875728Y771332D02*
Y774665D01*
Y772998D01*
X865732D01*
X867398Y771332D01*
X876602Y751666D02*
X878268Y753332D01*
Y756665D01*
X876602Y758331D01*
X869938D01*
X868272Y756665D01*
Y753332D01*
X869938Y751666D01*
X868272Y741669D02*
Y748334D01*
X874936Y741669D01*
X876602D01*
X878268Y743335D01*
Y746668D01*
X876602Y748334D01*
X851602Y787831D02*
X853268Y789498D01*
Y792830D01*
X851602Y794496D01*
X844938D01*
X843272Y792830D01*
Y789498D01*
X844938Y787831D01*
X843272Y784499D02*
Y781167D01*
Y782833D01*
X853268D01*
X851602Y784499D01*
Y776169D02*
X853268Y774502D01*
Y771170D01*
X851602Y769504D01*
X844938D01*
X843272Y771170D01*
Y774502D01*
X844938Y776169D01*
X851602D01*
X853398Y777835D02*
X851732Y776169D01*
Y772836D01*
X853398Y771170D01*
X860062D01*
X861728Y772836D01*
Y776169D01*
X860062Y777835D01*
X861728Y781167D02*
Y784499D01*
Y782833D01*
X851732D01*
X853398Y781167D01*
X861728Y789498D02*
Y792830D01*
Y791164D01*
X851732D01*
X853398Y789498D01*
X847336Y761002D02*
Y770998D01*
X852334D01*
X854000Y769332D01*
Y766000D01*
X852334Y764334D01*
X847336D01*
X850668D02*
X854000Y761002D01*
X857332D02*
X860665D01*
X858998D01*
Y770998D01*
X857332Y769332D01*
X830666Y791398D02*
X832332Y789732D01*
X835665D01*
X837331Y791398D01*
Y798062D01*
X835665Y799728D01*
X832332D01*
X830666Y798062D01*
X822335Y799728D02*
Y789732D01*
X827334Y794730D01*
X820669D01*
X777398Y810334D02*
X775732Y808668D01*
Y805335D01*
X777398Y803669D01*
X784062D01*
X785728Y805335D01*
Y808668D01*
X784062Y810334D01*
X775732Y813666D02*
Y820331D01*
X777398D01*
X784062Y813666D01*
X785728D01*
X830666Y819398D02*
X832332Y817731D01*
X835665D01*
X837331Y819398D01*
Y826062D01*
X835665Y827728D01*
X832332D01*
X830666Y826062D01*
X827334Y819398D02*
X825668Y817731D01*
X822335D01*
X820669Y819398D01*
Y821064D01*
X822335Y822730D01*
X824002D01*
X822335D01*
X820669Y824396D01*
Y826062D01*
X822335Y827728D01*
X825668D01*
X827334Y826062D01*
X795334Y821602D02*
X793668Y823268D01*
X790335D01*
X788669Y821602D01*
Y814938D01*
X790335Y813272D01*
X793668D01*
X795334Y814938D01*
X798666Y821602D02*
X800332Y823268D01*
X803664D01*
X805331Y821602D01*
Y819936D01*
X803664Y818270D01*
X805331Y816604D01*
Y814938D01*
X803664Y813272D01*
X800332D01*
X798666Y814938D01*
Y816604D01*
X800332Y818270D01*
X798666Y819936D01*
Y821602D01*
X800332Y818270D02*
X803664D01*
X798669Y811998D02*
Y802002D01*
X805334D01*
X815331D02*
X808666D01*
X815331Y808666D01*
Y810332D01*
X813664Y811998D01*
X810332D01*
X808666Y810332D01*
X765334Y733602D02*
X763668Y735268D01*
X760335D01*
X758669Y733602D01*
Y726938D01*
X760335Y725272D01*
X763668D01*
X765334Y726938D01*
X775331Y735268D02*
X771998Y733602D01*
X768666Y730270D01*
Y726938D01*
X770332Y725272D01*
X773664D01*
X775331Y726938D01*
Y728604D01*
X773664Y730270D01*
X768666D01*
X762169Y705602D02*
X760502Y707268D01*
X757170D01*
X755504Y705602D01*
Y698938D01*
X757170Y697272D01*
X760502D01*
X762169Y698938D01*
X765501Y697272D02*
X768833D01*
X767167D01*
Y707268D01*
X765501Y705602D01*
X780496Y697272D02*
X773831D01*
X780496Y703936D01*
Y705602D01*
X778830Y707268D01*
X775498D01*
X773831Y705602D01*
X756002Y607398D02*
X754335Y605732D01*
X751003D01*
X749337Y607398D01*
Y614062D01*
X751003Y615728D01*
X754335D01*
X756002Y614062D01*
X765998Y615728D02*
X759334D01*
X765998Y609064D01*
Y607398D01*
X764332Y605732D01*
X761000D01*
X759334Y607398D01*
X769331Y615728D02*
X772663D01*
X770997D01*
Y605732D01*
X769331Y607398D01*
X794602Y635336D02*
X796268Y633669D01*
Y630337D01*
X794602Y628671D01*
X787938D01*
X786272Y630337D01*
Y633669D01*
X787938Y635336D01*
X786272Y645332D02*
Y638668D01*
X792936Y645332D01*
X794602D01*
X796268Y643666D01*
Y640334D01*
X794602Y638668D01*
X786272Y655329D02*
Y648664D01*
X792936Y655329D01*
X794602D01*
X796268Y653663D01*
Y650331D01*
X794602Y648664D01*
X784398Y667664D02*
X782732Y669331D01*
Y672663D01*
X784398Y674329D01*
X791062D01*
X792728Y672663D01*
Y669331D01*
X791062Y667664D01*
X784398Y664332D02*
X782732Y662666D01*
Y659334D01*
X784398Y657668D01*
X786064D01*
X787730Y659334D01*
Y661000D01*
Y659334D01*
X789396Y657668D01*
X791062D01*
X792728Y659334D01*
Y662666D01*
X791062Y664332D01*
X792728Y647671D02*
Y654335D01*
X786064Y647671D01*
X784398D01*
X782732Y649337D01*
Y652669D01*
X784398Y654335D01*
X763335Y650398D02*
X761669Y648732D01*
X758337D01*
X756671Y650398D01*
Y657062D01*
X758337Y658728D01*
X761669D01*
X763335Y657062D01*
X766668Y650398D02*
X768334Y648732D01*
X771666D01*
X773332Y650398D01*
Y652064D01*
X771666Y653730D01*
X770000D01*
X771666D01*
X773332Y655396D01*
Y657062D01*
X771666Y658728D01*
X768334D01*
X766668Y657062D01*
X781663Y658728D02*
Y648732D01*
X776665Y653730D01*
X783329D01*
X835602Y636335D02*
X837268Y634669D01*
Y631337D01*
X835602Y629671D01*
X828938D01*
X827272Y631337D01*
Y634669D01*
X828938Y636335D01*
X827272Y646332D02*
Y639668D01*
X833936Y646332D01*
X835602D01*
X837268Y644666D01*
Y641334D01*
X835602Y639668D01*
X837268Y649665D02*
Y656329D01*
X835602D01*
X828938Y649665D01*
X827272D01*
X920398Y781668D02*
X918732Y780002D01*
Y776670D01*
X920398Y775004D01*
X927062D01*
X928728Y776670D01*
Y780002D01*
X927062Y781668D01*
X928728Y785001D02*
Y788333D01*
Y786667D01*
X918732D01*
X920398Y785001D01*
Y793332D02*
X918732Y794998D01*
Y798330D01*
X920398Y799996D01*
X922064D01*
X923730Y798330D01*
Y796664D01*
Y798330D01*
X925396Y799996D01*
X927062D01*
X928728Y798330D01*
Y794998D01*
X927062Y793332D01*
X958331Y744998D02*
Y735002D01*
X953332D01*
X951666Y736668D01*
Y740000D01*
X953332Y741666D01*
X958331D01*
X954998D02*
X951666Y744998D01*
X948334Y736668D02*
X946668Y735002D01*
X943335D01*
X941669Y736668D01*
Y738334D01*
X943335Y740000D01*
X945002D01*
X943335D01*
X941669Y741666D01*
Y743332D01*
X943335Y744998D01*
X946668D01*
X948334Y743332D01*
X955832Y747898D02*
X957498Y746232D01*
X960830D01*
X962496Y747898D01*
Y754562D01*
X960830Y756228D01*
X957498D01*
X955832Y754562D01*
X952499Y756228D02*
X949167D01*
X950833D01*
Y746232D01*
X952499Y747898D01*
X939170Y756228D02*
Y746232D01*
X944168Y751230D01*
X937504D01*
X757831Y681498D02*
Y671502D01*
X752832D01*
X751166Y673168D01*
Y676500D01*
X752832Y678166D01*
X757831D01*
X754498D02*
X751166Y681498D01*
X742835D02*
Y671502D01*
X747834Y676500D01*
X741169D01*
X813998Y661998D02*
X820663D01*
Y657000D01*
X817331D01*
X820663D01*
Y652002D01*
X810666Y661998D02*
Y652002D01*
X805668D01*
X804002Y653668D01*
Y655334D01*
X805668Y657000D01*
X810666D01*
X805668D01*
X804002Y658666D01*
Y660332D01*
X805668Y661998D01*
X810666D01*
X800669Y652002D02*
X797337D01*
X799003D01*
Y661998D01*
X800669Y660332D01*
X869998Y618331D02*
X860002D01*
Y613332D01*
X861668Y611666D01*
X865000D01*
X866666Y613332D01*
Y618331D01*
Y614998D02*
X869998Y611666D01*
X861668Y608334D02*
X860002Y606668D01*
Y603335D01*
X861668Y601669D01*
X863334D01*
X865000Y603335D01*
X866666Y601669D01*
X868332D01*
X869998Y603335D01*
Y606668D01*
X868332Y608334D01*
X866666D01*
X865000Y606668D01*
X863334Y608334D01*
X861668D01*
X865000Y606668D02*
Y603335D01*
X842498Y618331D02*
X832502D01*
Y613332D01*
X834168Y611666D01*
X837500D01*
X839166Y613332D01*
Y618331D01*
Y614998D02*
X842498Y611666D01*
X832502Y608334D02*
Y601669D01*
X834168D01*
X840832Y608334D01*
X842498D01*
X808831Y672398D02*
X810498Y670732D01*
X813830D01*
X815496Y672398D01*
Y679062D01*
X813830Y680728D01*
X810498D01*
X808831Y679062D01*
X805499Y680728D02*
X802167D01*
X803833D01*
Y670732D01*
X805499Y672398D01*
X797169Y679062D02*
X795502Y680728D01*
X792170D01*
X790504Y679062D01*
Y672398D01*
X792170Y670732D01*
X795502D01*
X797169Y672398D01*
Y674064D01*
X795502Y675730D01*
X790504D01*
X776169Y641602D02*
X774502Y643268D01*
X771170D01*
X769504Y641602D01*
Y634938D01*
X771170Y633272D01*
X774502D01*
X776169Y634938D01*
X779501Y633272D02*
X782833D01*
X781167D01*
Y643268D01*
X779501Y641602D01*
X787831D02*
X789498Y643268D01*
X792830D01*
X794496Y641602D01*
Y639936D01*
X792830Y638270D01*
X794496Y636604D01*
Y634938D01*
X792830Y633272D01*
X789498D01*
X787831Y634938D01*
Y636604D01*
X789498Y638270D01*
X787831Y639936D01*
Y641602D01*
X789498Y638270D02*
X792830D01*
M02*
