G04*
G04 #@! TF.GenerationSoftware,Altium Limited,Altium Designer,22.10.1 (41)*
G04*
G04 Layer_Color=32896*
%FSLAX44Y44*%
%MOMM*%
G71*
G04*
G04 #@! TF.SameCoordinates,4435170C-8FAF-4430-8920-974BABAA59A2*
G04*
G04*
G04 #@! TF.FilePolarity,Positive*
G04*
G01*
G75*
%ADD10C,0.1000*%
%ADD12C,0.2500*%
G36*
X942699Y802575D02*
Y789425D01*
X934301D01*
Y802575D01*
X942699D01*
D02*
G37*
G36*
X941699Y743175D02*
X933301D01*
Y756825D01*
X941699D01*
Y743175D01*
D02*
G37*
G36*
X942810Y808542D02*
X934190D01*
Y829458D01*
X942810D01*
Y808542D01*
D02*
G37*
G36*
X942768Y780819D02*
Y765181D01*
X934232D01*
Y780819D01*
X942768D01*
D02*
G37*
%LPC*%
G36*
X941699Y801575D02*
Y799467D01*
X936059D01*
Y801575D01*
X941699D01*
X935301D01*
Y796508D01*
X936059D01*
Y798616D01*
X941699D01*
Y801575D01*
D02*
G37*
G36*
Y796287D02*
X938389Y793818D01*
X935301Y796000D01*
Y796287D01*
Y790425D01*
D01*
Y790601D01*
X938343Y792820D01*
X941699Y790425D01*
Y791470D01*
X939425Y793088D01*
X939415Y793097D01*
X939388Y793115D01*
X939351Y793134D01*
X939304Y793171D01*
X939175Y793254D01*
X939036Y793346D01*
X939045Y793356D01*
X939082Y793383D01*
X939138Y793420D01*
X939212Y793467D01*
X939360Y793568D01*
X939425Y793615D01*
X939480Y793652D01*
X941699Y795270D01*
Y796287D01*
D02*
G37*
%LPD*%
G36*
X936947Y793827D02*
X936956D01*
X936965Y793809D01*
X936993Y793790D01*
X937030Y793763D01*
X937122Y793707D01*
X937233Y793624D01*
X937363Y793541D01*
X937492Y793457D01*
X937612Y793383D01*
X937723Y793319D01*
X937705Y793310D01*
X937668Y793282D01*
X937594Y793236D01*
X937501Y793171D01*
X937400Y793097D01*
X937270Y793005D01*
X937141Y792912D01*
X937002Y792801D01*
X935301Y791525D01*
Y794992D01*
X936947Y793827D01*
D02*
G37*
%LPC*%
G36*
X940699Y755825D02*
X934301D01*
Y750203D01*
Y752857D01*
X934310Y752783D01*
Y752700D01*
X934320Y752506D01*
X934347Y752302D01*
X934375Y752080D01*
X934421Y751877D01*
X934449Y751775D01*
X934477Y751692D01*
Y751683D01*
X934486Y751674D01*
X934514Y751618D01*
X934551Y751535D01*
X934615Y751433D01*
X934698Y751322D01*
X934809Y751202D01*
X934939Y751091D01*
X935087Y750980D01*
X935096D01*
X935105Y750971D01*
X935161Y750934D01*
X935253Y750897D01*
X935374Y750841D01*
X935512Y750795D01*
X935679Y750749D01*
X935854Y750721D01*
X936048Y750712D01*
X936058D01*
X936076D01*
X936113D01*
X936159Y750721D01*
X936224D01*
X936289Y750730D01*
X936446Y750767D01*
X936631Y750823D01*
X936825Y750897D01*
X937019Y751008D01*
X937112Y751082D01*
X937204Y751156D01*
X937213Y751165D01*
X937223Y751174D01*
X937250Y751202D01*
X937278Y751239D01*
X937315Y751285D01*
X937352Y751341D01*
X937398Y751415D01*
X937454Y751489D01*
X937500Y751581D01*
X937546Y751683D01*
X937602Y751794D01*
X937648Y751914D01*
X937685Y752053D01*
X937731Y752191D01*
X937759Y752348D01*
X937787Y752515D01*
X937796Y752496D01*
X937814Y752459D01*
X937851Y752404D01*
X937888Y752330D01*
X937990Y752163D01*
X938055Y752080D01*
X938110Y752006D01*
X938129Y751988D01*
X938175Y751942D01*
X938249Y751868D01*
X938341Y751775D01*
X938471Y751674D01*
X938609Y751553D01*
X938776Y751433D01*
X938961Y751304D01*
X940699Y750203D01*
Y751257D01*
X939368Y752099D01*
X939358D01*
X939340Y752117D01*
X939312Y752136D01*
X939275Y752163D01*
X939173Y752228D01*
X939044Y752311D01*
X938905Y752413D01*
X938757Y752515D01*
X938619Y752617D01*
X938489Y752709D01*
X938480Y752718D01*
X938443Y752746D01*
X938388Y752792D01*
X938323Y752857D01*
X938184Y752996D01*
X938119Y753070D01*
X938064Y753143D01*
X938055Y753153D01*
X938045Y753171D01*
X938027Y753208D01*
X937999Y753264D01*
X937971Y753319D01*
X937944Y753384D01*
X937897Y753532D01*
Y753541D01*
X937888Y753560D01*
Y753597D01*
X937879Y753643D01*
X937870Y753708D01*
Y753782D01*
X937860Y753883D01*
Y754974D01*
X940699D01*
Y755825D01*
D02*
G37*
G36*
Y750037D02*
X934301D01*
Y744175D01*
D01*
Y744351D01*
X937343Y746570D01*
X940699Y744175D01*
Y745220D01*
X938425Y746838D01*
X938415Y746847D01*
X938388Y746866D01*
X938351Y746884D01*
X938304Y746921D01*
X938175Y747004D01*
X938036Y747097D01*
X938045Y747106D01*
X938082Y747134D01*
X938138Y747171D01*
X938212Y747217D01*
X938360Y747319D01*
X938425Y747365D01*
X938480Y747402D01*
X940699Y749020D01*
Y750037D01*
X937389Y747568D01*
X934301Y749750D01*
Y750037D01*
X940699D01*
D02*
G37*
%LPD*%
G36*
X937130Y753070D02*
X937121Y752959D01*
X937112Y752829D01*
X937102Y752681D01*
X937084Y752533D01*
X937056Y752385D01*
X937019Y752256D01*
X937010Y752237D01*
X936991Y752200D01*
X936964Y752145D01*
X936927Y752071D01*
X936871Y751988D01*
X936806Y751905D01*
X936723Y751821D01*
X936631Y751757D01*
X936622Y751747D01*
X936585Y751729D01*
X936529Y751701D01*
X936455Y751664D01*
X936372Y751637D01*
X936280Y751609D01*
X936169Y751590D01*
X936058Y751581D01*
X936048D01*
X936039D01*
X935984Y751590D01*
X935900Y751600D01*
X935789Y751618D01*
X935679Y751664D01*
X935549Y751720D01*
X935429Y751803D01*
X935309Y751914D01*
X935300Y751932D01*
X935263Y751979D01*
X935216Y752053D01*
X935161Y752173D01*
X935105Y752311D01*
X935059Y752496D01*
X935022Y752709D01*
X935013Y752959D01*
Y754974D01*
X937130D01*
Y753070D01*
D02*
G37*
G36*
X935947Y747578D02*
X935956D01*
X935965Y747559D01*
X935993Y747541D01*
X936030Y747513D01*
X936122Y747458D01*
X936233Y747374D01*
X936363Y747291D01*
X936492Y747208D01*
X936612Y747134D01*
X936723Y747069D01*
X936705Y747060D01*
X936668Y747032D01*
X936594Y746986D01*
X936501Y746921D01*
X936400Y746847D01*
X936270Y746755D01*
X936141Y746662D01*
X936002Y746551D01*
X934301Y745275D01*
Y748743D01*
X935947Y747578D01*
D02*
G37*
%LPC*%
G36*
X938537Y828458D02*
X935190D01*
Y822532D01*
Y825139D01*
X935199Y825084D01*
Y825010D01*
X935218Y824834D01*
X935246Y824640D01*
X935292Y824436D01*
X935347Y824214D01*
X935421Y824002D01*
Y823993D01*
X935430Y823974D01*
X935440Y823946D01*
X935458Y823909D01*
X935514Y823808D01*
X935578Y823678D01*
X935671Y823540D01*
X935782Y823392D01*
X935902Y823253D01*
X936050Y823123D01*
X936068Y823105D01*
X936124Y823068D01*
X936207Y823013D01*
X936327Y822939D01*
X936475Y822865D01*
X936660Y822781D01*
X936863Y822698D01*
X937095Y822634D01*
X937298Y823401D01*
X937289D01*
X937280Y823410D01*
X937252Y823419D01*
X937215Y823429D01*
X937132Y823456D01*
X937021Y823493D01*
X936891Y823549D01*
X936771Y823614D01*
X936642Y823678D01*
X936531Y823761D01*
X936521Y823771D01*
X936484Y823798D01*
X936438Y823854D01*
X936374Y823919D01*
X936300Y824002D01*
X936226Y824113D01*
X936152Y824233D01*
X936087Y824372D01*
X936078Y824390D01*
X936059Y824436D01*
X936031Y824520D01*
X935994Y824631D01*
X935967Y824760D01*
X935939Y824908D01*
X935920Y825074D01*
X935911Y825250D01*
Y825352D01*
X935920Y825398D01*
Y825453D01*
X935930Y825592D01*
X935957Y825749D01*
X935985Y825925D01*
X936031Y826091D01*
X936096Y826258D01*
X936105Y826276D01*
X936124Y826332D01*
X936170Y826406D01*
X936216Y826498D01*
X936290Y826609D01*
X936364Y826729D01*
X936457Y826840D01*
X936558Y826942D01*
X936568Y826951D01*
X936605Y826988D01*
X936669Y827034D01*
X936743Y827090D01*
X936836Y827155D01*
X936947Y827219D01*
X937067Y827284D01*
X937196Y827349D01*
X937206D01*
X937224Y827358D01*
X937252Y827367D01*
X937298Y827386D01*
X937354Y827404D01*
X937418Y827423D01*
X937492Y827450D01*
X937575Y827469D01*
X937770Y827515D01*
X937991Y827552D01*
X938223Y827580D01*
X938482Y827589D01*
X938491D01*
X938519D01*
X938565D01*
X938620Y827580D01*
X938694D01*
X938787Y827571D01*
X938879Y827561D01*
X938981Y827552D01*
X939212Y827515D01*
X939452Y827469D01*
X939693Y827395D01*
X939924Y827302D01*
X939933D01*
X939951Y827284D01*
X939979Y827275D01*
X940016Y827247D01*
X940118Y827182D01*
X940247Y827081D01*
X940386Y826960D01*
X940525Y826813D01*
X940654Y826637D01*
X940774Y826443D01*
Y826433D01*
X940784Y826415D01*
X940802Y826387D01*
X940821Y826341D01*
X940839Y826295D01*
X940858Y826230D01*
X940913Y826082D01*
X940959Y825897D01*
X941005Y825694D01*
X941042Y825472D01*
X941052Y825241D01*
Y825148D01*
X941042Y825093D01*
Y825037D01*
X941024Y824899D01*
X941005Y824732D01*
X940969Y824557D01*
X940913Y824362D01*
X940848Y824168D01*
Y824159D01*
X940839Y824140D01*
X940830Y824122D01*
X940811Y824085D01*
X940765Y823983D01*
X940710Y823872D01*
X940645Y823743D01*
X940571Y823604D01*
X940488Y823475D01*
X940395Y823364D01*
X939193D01*
Y825250D01*
X938435D01*
Y822532D01*
X940811D01*
X940821Y822541D01*
X940830Y822560D01*
X940858Y822597D01*
X940895Y822643D01*
X940932Y822698D01*
X940978Y822763D01*
X941033Y822846D01*
X941089Y822929D01*
X941209Y823123D01*
X941338Y823345D01*
X941459Y823577D01*
X941560Y823826D01*
Y823835D01*
X941570Y823854D01*
X941579Y823891D01*
X941597Y823937D01*
X941616Y824002D01*
X941644Y824076D01*
X941662Y824159D01*
X941681Y824242D01*
X941727Y824446D01*
X941773Y824677D01*
X941801Y824926D01*
X941810Y825185D01*
Y825278D01*
X941801Y825342D01*
Y825426D01*
X941791Y825527D01*
X941773Y825638D01*
X941764Y825759D01*
X941708Y826027D01*
X941644Y826313D01*
X941542Y826609D01*
X941486Y826757D01*
X941412Y826905D01*
X941403Y826914D01*
X941394Y826942D01*
X941366Y826979D01*
X941338Y827034D01*
X941292Y827099D01*
X941246Y827164D01*
X941116Y827339D01*
X940950Y827524D01*
X940747Y827719D01*
X940516Y827904D01*
X940247Y828070D01*
X940238D01*
X940210Y828088D01*
X940173Y828107D01*
X940109Y828135D01*
X940044Y828162D01*
X939951Y828190D01*
X939859Y828227D01*
X939748Y828264D01*
X939628Y828301D01*
X939489Y828338D01*
X939351Y828366D01*
X939203Y828393D01*
X938879Y828440D01*
X938537Y828458D01*
D02*
G37*
G36*
X941699Y821293D02*
X935301D01*
Y816254D01*
X941699D01*
Y817132D01*
X936679Y820479D01*
X941699D01*
Y821293D01*
D02*
G37*
G36*
Y814830D02*
X935301D01*
Y809542D01*
D01*
Y812371D01*
X935310Y812204D01*
X935320Y812020D01*
X935338Y811835D01*
X935366Y811650D01*
X935394Y811492D01*
Y811483D01*
X935403Y811465D01*
Y811437D01*
X935421Y811400D01*
X935449Y811298D01*
X935495Y811169D01*
X935560Y811021D01*
X935643Y810864D01*
X935735Y810707D01*
X935856Y810559D01*
X935865Y810549D01*
X935874Y810540D01*
X935902Y810512D01*
X935930Y810475D01*
X936022Y810383D01*
X936152Y810272D01*
X936309Y810152D01*
X936494Y810023D01*
X936706Y809902D01*
X936947Y809801D01*
X936956D01*
X936974Y809791D01*
X937011Y809773D01*
X937067Y809764D01*
X937132Y809736D01*
X937206Y809717D01*
X937289Y809699D01*
X937391Y809671D01*
X937492Y809643D01*
X937612Y809625D01*
X937871Y809579D01*
X938158Y809551D01*
X938472Y809542D01*
X938592D01*
X938657Y809551D01*
X938731D01*
X938907Y809560D01*
X939110Y809588D01*
X939323Y809616D01*
X939545Y809662D01*
X939767Y809717D01*
X939776D01*
X939794Y809727D01*
X939822Y809736D01*
X939859Y809745D01*
X939961Y809782D01*
X940090Y809838D01*
X940238Y809893D01*
X940386Y809967D01*
X940543Y810060D01*
X940691Y810152D01*
X940710Y810161D01*
X940756Y810198D01*
X940821Y810254D01*
X940904Y810328D01*
X940996Y810411D01*
X941089Y810512D01*
X941190Y810614D01*
X941274Y810734D01*
X941283Y810753D01*
X941311Y810790D01*
X941348Y810855D01*
X941394Y810947D01*
X941449Y811058D01*
X941496Y811187D01*
X941551Y811335D01*
X941597Y811502D01*
Y811520D01*
X941607Y811548D01*
X941616Y811576D01*
X941625Y811668D01*
X941644Y811798D01*
X941662Y811946D01*
X941681Y812121D01*
X941690Y812315D01*
X941699Y812528D01*
Y814830D01*
D02*
G37*
%LPD*%
G36*
X938380Y828449D02*
X938297D01*
X938195Y828440D01*
X938093Y828421D01*
X937973Y828412D01*
X937843Y828384D01*
X937705Y828366D01*
X937409Y828292D01*
X937104Y828199D01*
X936799Y828070D01*
X936789Y828061D01*
X936762Y828051D01*
X936725Y828033D01*
X936669Y827996D01*
X936595Y827959D01*
X936521Y827913D01*
X936346Y827783D01*
X936142Y827626D01*
X935948Y827432D01*
X935754Y827210D01*
X935671Y827081D01*
X935588Y826951D01*
X935578Y826942D01*
X935569Y826914D01*
X935551Y826877D01*
X935523Y826822D01*
X935495Y826748D01*
X935458Y826665D01*
X935421Y826572D01*
X935384Y826461D01*
X935347Y826341D01*
X935320Y826211D01*
X935283Y826073D01*
X935255Y825925D01*
X935209Y825601D01*
X935190Y825435D01*
Y828458D01*
X938445D01*
X938380Y828449D01*
D02*
G37*
G36*
X940331Y817068D02*
X935301D01*
Y820424D01*
X940331Y817068D01*
D02*
G37*
G36*
X940941Y812463D02*
X940932Y812399D01*
X940922Y812260D01*
X940913Y812103D01*
X940895Y811936D01*
X940867Y811770D01*
X940830Y811631D01*
X940821Y811613D01*
X940811Y811566D01*
X940784Y811502D01*
X940747Y811419D01*
X940691Y811326D01*
X940636Y811234D01*
X940571Y811141D01*
X940497Y811049D01*
X940479Y811040D01*
X940442Y811003D01*
X940377Y810947D01*
X940284Y810882D01*
X940164Y810808D01*
X940025Y810725D01*
X939868Y810651D01*
X939693Y810586D01*
X939683D01*
X939665Y810577D01*
X939637Y810568D01*
X939600Y810559D01*
X939554Y810549D01*
X939489Y810531D01*
X939425Y810512D01*
X939351Y810494D01*
X939166Y810466D01*
X938953Y810439D01*
X938713Y810420D01*
X938454Y810411D01*
X938445D01*
X938408D01*
X938361D01*
X938287Y810420D01*
X938204D01*
X938112Y810429D01*
X938001Y810439D01*
X937890Y810448D01*
X937640Y810494D01*
X937381Y810549D01*
X937141Y810633D01*
X937021Y810688D01*
X936919Y810744D01*
X936910D01*
X936891Y810762D01*
X936863Y810781D01*
X936826Y810799D01*
X936734Y810873D01*
X936623Y810965D01*
X936503Y811086D01*
X936383Y811224D01*
X936281Y811382D01*
X936198Y811548D01*
X936189Y811566D01*
X936179Y811613D01*
X936152Y811696D01*
X936124Y811816D01*
X936105Y811964D01*
X936078Y812149D01*
X936068Y812260D01*
Y812380D01*
X936059Y812500D01*
Y813980D01*
X940941D01*
Y812463D01*
D02*
G37*
%LPC*%
G36*
X939965Y779819D02*
D01*
X939864Y779033D01*
X939873D01*
X939891Y779024D01*
X939928Y779014D01*
X939975Y779005D01*
X940030Y778996D01*
X940095Y778977D01*
X940234Y778931D01*
X940400Y778866D01*
X940557Y778783D01*
X940705Y778691D01*
X940835Y778580D01*
X940844Y778561D01*
X940881Y778524D01*
X940927Y778450D01*
X940973Y778358D01*
X941029Y778247D01*
X941075Y778108D01*
X941112Y777951D01*
X941121Y777785D01*
Y777729D01*
X941112Y777692D01*
X941103Y777590D01*
X941075Y777461D01*
X941029Y777313D01*
X940964Y777156D01*
X940871Y776999D01*
X940742Y776851D01*
X940723Y776832D01*
X940668Y776786D01*
X940585Y776731D01*
X940474Y776657D01*
X940335Y776583D01*
X940178Y776527D01*
X939993Y776481D01*
X939790Y776462D01*
X939781D01*
X939762D01*
X939734D01*
X939697Y776472D01*
X939596Y776481D01*
X939475Y776509D01*
X939327Y776546D01*
X939180Y776610D01*
X939032Y776703D01*
X938893Y776823D01*
X938874Y776842D01*
X938837Y776888D01*
X938782Y776962D01*
X938717Y777064D01*
X938652Y777193D01*
X938597Y777350D01*
X938560Y777526D01*
X938542Y777720D01*
Y777803D01*
X938551Y777868D01*
X938560Y777951D01*
X938578Y778044D01*
X938597Y778155D01*
X938625Y778275D01*
X937931Y778182D01*
Y778136D01*
X937941Y778099D01*
Y777979D01*
X937922Y777877D01*
X937904Y777757D01*
X937876Y777618D01*
X937830Y777461D01*
X937765Y777313D01*
X937682Y777156D01*
Y777147D01*
X937673Y777137D01*
X937635Y777091D01*
X937571Y777027D01*
X937488Y776953D01*
X937367Y776879D01*
X937229Y776814D01*
X937072Y776768D01*
X936979Y776749D01*
X936877D01*
X936868D01*
X936859D01*
X936803D01*
X936729Y776768D01*
X936628Y776786D01*
X936517Y776823D01*
X936397Y776869D01*
X936276Y776943D01*
X936165Y777045D01*
X936156Y777054D01*
X936119Y777101D01*
X936073Y777165D01*
X936018Y777248D01*
X935971Y777359D01*
X935925Y777489D01*
X935888Y777637D01*
X935879Y777803D01*
Y777877D01*
X935897Y777960D01*
X935916Y778071D01*
X935953Y778191D01*
X935999Y778312D01*
X936073Y778441D01*
X936165Y778561D01*
X936175Y778570D01*
X936221Y778607D01*
X936286Y778663D01*
X936378Y778728D01*
X936498Y778792D01*
X936646Y778857D01*
X936822Y778913D01*
X937025Y778950D01*
X936887Y779735D01*
X936877D01*
X936850Y779726D01*
X936813Y779717D01*
X936757Y779708D01*
X936692Y779689D01*
X936618Y779661D01*
X936443Y779606D01*
X936239Y779514D01*
X936036Y779403D01*
X935842Y779264D01*
X935666Y779088D01*
X935657Y779079D01*
X935648Y779061D01*
X935629Y779033D01*
X935602Y778996D01*
X935564Y778950D01*
X935527Y778885D01*
X935490Y778820D01*
X935444Y778737D01*
X935370Y778552D01*
X935296Y778339D01*
X935250Y778090D01*
X935232Y777960D01*
Y779819D01*
X939965D01*
X935232D01*
Y775630D01*
Y777729D01*
X935241Y777627D01*
X935259Y777507D01*
X935287Y777359D01*
X935333Y777193D01*
X935389Y777027D01*
X935463Y776860D01*
Y776851D01*
X935472Y776842D01*
X935500Y776786D01*
X935555Y776703D01*
X935620Y776610D01*
X935712Y776499D01*
X935814Y776388D01*
X935934Y776278D01*
X936073Y776185D01*
X936092Y776176D01*
X936138Y776148D01*
X936221Y776111D01*
X936323Y776065D01*
X936443Y776019D01*
X936581Y775982D01*
X936739Y775954D01*
X936896Y775945D01*
X936914D01*
X936970D01*
X937044Y775954D01*
X937145Y775973D01*
X937266Y776000D01*
X937395Y776047D01*
X937524Y776102D01*
X937654Y776176D01*
X937673Y776185D01*
X937710Y776213D01*
X937774Y776268D01*
X937848Y776342D01*
X937931Y776435D01*
X938024Y776546D01*
X938107Y776675D01*
X938190Y776832D01*
Y776823D01*
X938199Y776805D01*
X938209Y776777D01*
X938218Y776740D01*
X938255Y776638D01*
X938310Y776509D01*
X938384Y776361D01*
X938477Y776213D01*
X938597Y776074D01*
X938736Y775945D01*
X938754Y775936D01*
X938810Y775899D01*
X938902Y775843D01*
X939022Y775788D01*
X939170Y775732D01*
X939346Y775677D01*
X939549Y775640D01*
X939771Y775630D01*
X939854D01*
X939910Y775640D01*
X939984Y775649D01*
X940067Y775667D01*
X940160Y775686D01*
X940261Y775704D01*
X940483Y775778D01*
X940603Y775834D01*
X940714Y775889D01*
X940835Y775963D01*
X940955Y776047D01*
X941075Y776139D01*
X941186Y776250D01*
X941195Y776259D01*
X941214Y776278D01*
X941241Y776315D01*
X941278Y776361D01*
X941324Y776416D01*
X941371Y776490D01*
X941426Y776573D01*
X941472Y776675D01*
X941528Y776777D01*
X941583Y776897D01*
X941630Y777017D01*
X941676Y777156D01*
X941713Y777304D01*
X941740Y777461D01*
X941759Y777618D01*
X941768Y777794D01*
Y777877D01*
X941759Y777933D01*
X941750Y778007D01*
X941740Y778090D01*
X941722Y778182D01*
X941704Y778284D01*
X941648Y778506D01*
X941556Y778737D01*
X941500Y778857D01*
X941435Y778968D01*
X941352Y779079D01*
X941269Y779190D01*
X941260Y779199D01*
X941241Y779218D01*
X941214Y779245D01*
X941177Y779273D01*
X941130Y779319D01*
X941066Y779366D01*
X941001Y779421D01*
X940918Y779477D01*
X940825Y779532D01*
X940733Y779587D01*
X940511Y779689D01*
X940252Y779772D01*
X940113Y779800D01*
X939965Y779819D01*
D02*
G37*
G36*
X941657Y775122D02*
X937016D01*
Y770860D01*
D01*
X941657Y772626D01*
Y773374D01*
X937016Y775122D01*
X941657D01*
D02*
G37*
G36*
X939965Y770370D02*
D01*
X939864Y769584D01*
X939873D01*
X939891Y769575D01*
X939928Y769565D01*
X939975Y769556D01*
X940030Y769547D01*
X940095Y769528D01*
X940234Y769482D01*
X940400Y769417D01*
X940557Y769334D01*
X940705Y769242D01*
X940835Y769131D01*
X940844Y769112D01*
X940881Y769075D01*
X940927Y769001D01*
X940973Y768909D01*
X941029Y768798D01*
X941075Y768659D01*
X941112Y768502D01*
X941121Y768336D01*
Y768280D01*
X941112Y768243D01*
X941103Y768141D01*
X941075Y768012D01*
X941029Y767864D01*
X940964Y767707D01*
X940871Y767550D01*
X940742Y767402D01*
X940723Y767383D01*
X940668Y767337D01*
X940585Y767282D01*
X940474Y767208D01*
X940335Y767134D01*
X940178Y767078D01*
X939993Y767032D01*
X939790Y767013D01*
X939781D01*
X939762D01*
X939734D01*
X939697Y767023D01*
X939596Y767032D01*
X939475Y767060D01*
X939327Y767097D01*
X939180Y767161D01*
X939032Y767254D01*
X938893Y767374D01*
X938874Y767393D01*
X938837Y767439D01*
X938782Y767513D01*
X938717Y767615D01*
X938652Y767744D01*
X938597Y767901D01*
X938560Y768077D01*
X938542Y768271D01*
Y768354D01*
X938551Y768419D01*
X938560Y768502D01*
X938578Y768595D01*
X938597Y768705D01*
X938625Y768826D01*
X937931Y768733D01*
Y768687D01*
X937941Y768650D01*
Y768530D01*
X937922Y768428D01*
X937904Y768308D01*
X937876Y768169D01*
X937830Y768012D01*
X937765Y767864D01*
X937682Y767707D01*
Y767698D01*
X937673Y767688D01*
X937635Y767642D01*
X937571Y767578D01*
X937488Y767504D01*
X937367Y767430D01*
X937229Y767365D01*
X937072Y767319D01*
X936979Y767300D01*
X936877D01*
X936868D01*
X936859D01*
X936803D01*
X936729Y767319D01*
X936628Y767337D01*
X936517Y767374D01*
X936397Y767420D01*
X936276Y767494D01*
X936165Y767596D01*
X936156Y767605D01*
X936119Y767651D01*
X936073Y767716D01*
X936018Y767799D01*
X935971Y767910D01*
X935925Y768040D01*
X935888Y768188D01*
X935879Y768354D01*
Y768428D01*
X935897Y768511D01*
X935916Y768622D01*
X935953Y768742D01*
X935999Y768863D01*
X936073Y768992D01*
X936165Y769112D01*
X936175Y769121D01*
X936221Y769158D01*
X936286Y769214D01*
X936378Y769279D01*
X936498Y769343D01*
X936646Y769408D01*
X936822Y769464D01*
X937025Y769501D01*
X936887Y770286D01*
X936877D01*
X936850Y770277D01*
X936813Y770268D01*
X936757Y770259D01*
X936692Y770240D01*
X936618Y770212D01*
X936443Y770157D01*
X936239Y770065D01*
X936036Y769954D01*
X935842Y769815D01*
X935666Y769639D01*
X935657Y769630D01*
X935648Y769612D01*
X935629Y769584D01*
X935602Y769547D01*
X935564Y769501D01*
X935527Y769436D01*
X935490Y769371D01*
X935444Y769288D01*
X935370Y769103D01*
X935296Y768890D01*
X935250Y768641D01*
X935232Y768511D01*
Y768530D01*
Y766181D01*
Y768280D01*
X935241Y768178D01*
X935259Y768058D01*
X935287Y767910D01*
X935333Y767744D01*
X935389Y767578D01*
X935463Y767411D01*
Y767402D01*
X935472Y767393D01*
X935500Y767337D01*
X935555Y767254D01*
X935620Y767161D01*
X935712Y767050D01*
X935814Y766939D01*
X935934Y766829D01*
X936073Y766736D01*
X936092Y766727D01*
X936138Y766699D01*
X936221Y766662D01*
X936323Y766616D01*
X936443Y766570D01*
X936581Y766533D01*
X936739Y766505D01*
X936896Y766496D01*
X936914D01*
X936970D01*
X937044Y766505D01*
X937145Y766524D01*
X937266Y766551D01*
X937395Y766598D01*
X937524Y766653D01*
X937654Y766727D01*
X937673Y766736D01*
X937710Y766764D01*
X937774Y766819D01*
X937848Y766893D01*
X937931Y766986D01*
X938024Y767097D01*
X938107Y767226D01*
X938190Y767383D01*
Y767374D01*
X938199Y767356D01*
X938209Y767328D01*
X938218Y767291D01*
X938255Y767189D01*
X938310Y767060D01*
X938384Y766912D01*
X938477Y766764D01*
X938597Y766625D01*
X938736Y766496D01*
X938754Y766487D01*
X938810Y766450D01*
X938902Y766394D01*
X939022Y766339D01*
X939170Y766283D01*
X939346Y766228D01*
X939549Y766191D01*
X939771Y766181D01*
X939854D01*
X939910Y766191D01*
X939984Y766200D01*
X940067Y766218D01*
X940160Y766237D01*
X940261Y766255D01*
X940483Y766329D01*
X940603Y766385D01*
X940714Y766440D01*
X940835Y766514D01*
X940955Y766598D01*
X941075Y766690D01*
X941186Y766801D01*
X941195Y766810D01*
X941214Y766829D01*
X941241Y766866D01*
X941278Y766912D01*
X941324Y766967D01*
X941371Y767041D01*
X941426Y767124D01*
X941472Y767226D01*
X941528Y767328D01*
X941583Y767448D01*
X941630Y767568D01*
X941676Y767707D01*
X941713Y767855D01*
X941740Y768012D01*
X941759Y768169D01*
X941768Y768345D01*
Y768040D01*
Y768345D01*
Y768428D01*
X941759Y768484D01*
X941750Y768558D01*
X941740Y768641D01*
X941722Y768733D01*
X941704Y768835D01*
X941648Y769057D01*
X941556Y769288D01*
X941500Y769408D01*
X941435Y769519D01*
X941352Y769630D01*
X941269Y769741D01*
X941260Y769750D01*
X941241Y769769D01*
X941214Y769796D01*
X941177Y769824D01*
X941130Y769870D01*
X941066Y769917D01*
X941001Y769972D01*
X940918Y770028D01*
X940825Y770083D01*
X940733Y770138D01*
X940511Y770240D01*
X940252Y770323D01*
X940113Y770351D01*
X939965Y770370D01*
D02*
G37*
%LPD*%
G36*
X939799Y773291D02*
X939808D01*
X939817Y773282D01*
X939845Y773273D01*
X939873Y773263D01*
X939965Y773236D01*
X940086Y773199D01*
X940224Y773153D01*
X940381Y773097D01*
X940557Y773051D01*
X940733Y772995D01*
X940714Y772986D01*
X940668Y772977D01*
X940594Y772949D01*
X940483Y772921D01*
X940363Y772875D01*
X940206Y772829D01*
X940039Y772764D01*
X939854Y772700D01*
X937016Y771673D01*
Y774290D01*
X939799Y773291D01*
D02*
G37*
D10*
X793000Y786000D02*
G03*
X794000Y786000I500J0D01*
G01*
D02*
G03*
X793000Y786000I-500J0D01*
G01*
X925000Y743000D02*
G03*
X926000Y743000I500J0D01*
G01*
D02*
G03*
X925000Y743000I-500J0D01*
G01*
X811000Y752000D02*
X813500D01*
Y759000D01*
Y775000D02*
Y782000D01*
X812000D02*
X813500D01*
X788500Y752000D02*
X791000D01*
X788500D02*
Y759000D01*
Y775000D02*
Y782000D01*
X791000D01*
X926248Y781499D02*
X924582D01*
X925415D01*
Y776501D01*
X926248D01*
X924582D01*
X918750Y780666D02*
X919584Y781499D01*
X921250D01*
X922083Y780666D01*
Y777334D01*
X921250Y776501D01*
X919584D01*
X918750Y777334D01*
X913752Y781499D02*
X917084D01*
Y779000D01*
X915418Y779833D01*
X914585D01*
X913752Y779000D01*
Y777334D01*
X914585Y776501D01*
X916251D01*
X917084Y777334D01*
X886665Y777499D02*
Y773334D01*
X885832Y772501D01*
X884166D01*
X883333Y773334D01*
Y777499D01*
X881667Y776666D02*
X880834Y777499D01*
X879168D01*
X878335Y776666D01*
Y775833D01*
X879168Y775000D01*
X880001D01*
X879168D01*
X878335Y774167D01*
Y773334D01*
X879168Y772501D01*
X880834D01*
X881667Y773334D01*
X872501Y605835D02*
X877499D01*
Y608334D01*
X876666Y609167D01*
X875000D01*
X874167Y608334D01*
Y605835D01*
Y607501D02*
X872501Y609167D01*
X876666Y610833D02*
X877499Y611666D01*
Y613332D01*
X876666Y614165D01*
X875833D01*
X875000Y613332D01*
X874167Y614165D01*
X873334D01*
X872501Y613332D01*
Y611666D01*
X873334Y610833D01*
X874167D01*
X875000Y611666D01*
X875833Y610833D01*
X876666D01*
X875000Y611666D02*
Y613332D01*
X829999Y614165D02*
X825001D01*
Y611666D01*
X825834Y610833D01*
X827500D01*
X828333Y611666D01*
Y614165D01*
Y612499D02*
X829999Y610833D01*
X825001Y609167D02*
Y605835D01*
X825834D01*
X829166Y609167D01*
X829999D01*
X747165Y665501D02*
Y670499D01*
X744666D01*
X743833Y669666D01*
Y668000D01*
X744666Y667167D01*
X747165D01*
X745499D02*
X743833Y665501D01*
X738835Y670499D02*
X742167D01*
Y668000D01*
X740501Y668833D01*
X739668D01*
X738835Y668000D01*
Y666334D01*
X739668Y665501D01*
X741334D01*
X742167Y666334D01*
X745248Y613499D02*
X743582D01*
X744415D01*
Y608501D01*
X745248D01*
X743582D01*
X737750Y612666D02*
X738584Y613499D01*
X740250D01*
X741083Y612666D01*
Y609334D01*
X740250Y608501D01*
X738584D01*
X737750Y609334D01*
X736084Y612666D02*
X735251Y613499D01*
X733585D01*
X732752Y612666D01*
Y611833D01*
X733585Y611000D01*
X734418D01*
X733585D01*
X732752Y610167D01*
Y609334D01*
X733585Y608501D01*
X735251D01*
X736084Y609334D01*
X815499Y671499D02*
X818831D01*
Y669000D01*
X817165D01*
X818831D01*
Y666501D01*
X813833Y671499D02*
Y666501D01*
X811334D01*
X810501Y667334D01*
Y668167D01*
X811334Y669000D01*
X813833D01*
X811334D01*
X810501Y669833D01*
Y670666D01*
X811334Y671499D01*
X813833D01*
X808835Y666501D02*
X807169D01*
X808002D01*
Y671499D01*
X808835Y670666D01*
X755666Y585668D02*
X756499Y584835D01*
Y583169D01*
X755666Y582336D01*
X752334D01*
X751501Y583169D01*
Y584835D01*
X752334Y585668D01*
X751501Y589833D02*
X756499D01*
X754000Y587334D01*
Y590666D01*
X751501Y594831D02*
X756499D01*
X754000Y592332D01*
Y595664D01*
X764666Y585668D02*
X765499Y584835D01*
Y583169D01*
X764666Y582336D01*
X761334D01*
X760501Y583169D01*
Y584835D01*
X761334Y585668D01*
X760501Y589833D02*
X765499D01*
X763000Y587334D01*
Y590666D01*
X760501Y595664D02*
Y592332D01*
X763833Y595664D01*
X764666D01*
X765499Y594831D01*
Y593165D01*
X764666Y592332D01*
X764332Y669666D02*
X765165Y670499D01*
X766831D01*
X767664Y669666D01*
Y666334D01*
X766831Y665501D01*
X765165D01*
X764332Y666334D01*
X762666Y669666D02*
X761833Y670499D01*
X760167D01*
X759334Y669666D01*
Y668833D01*
X760167Y668000D01*
X761000D01*
X760167D01*
X759334Y667167D01*
Y666334D01*
X760167Y665501D01*
X761833D01*
X762666Y666334D01*
X755169Y665501D02*
Y670499D01*
X757668Y668000D01*
X754335D01*
X811666Y678668D02*
X812499Y677835D01*
Y676169D01*
X811666Y675335D01*
X808334D01*
X807501Y676169D01*
Y677835D01*
X808334Y678668D01*
X811666Y680334D02*
X812499Y681167D01*
Y682833D01*
X811666Y683666D01*
X810833D01*
X810000Y682833D01*
Y682000D01*
Y682833D01*
X809167Y683666D01*
X808334D01*
X807501Y682833D01*
Y681167D01*
X808334Y680334D01*
X807501Y688664D02*
Y685332D01*
X810833Y688664D01*
X811666D01*
X812499Y687831D01*
Y686165D01*
X811666Y685332D01*
X847334Y645332D02*
X846501Y646165D01*
Y647831D01*
X847334Y648664D01*
X850666D01*
X851499Y647831D01*
Y646165D01*
X850666Y645332D01*
X851499Y640334D02*
Y643666D01*
X848167Y640334D01*
X847334D01*
X846501Y641167D01*
Y642833D01*
X847334Y643666D01*
X846501Y638668D02*
Y635336D01*
X847334D01*
X850666Y638668D01*
X851499D01*
X838334Y645332D02*
X837501Y646165D01*
Y647831D01*
X838334Y648664D01*
X841666D01*
X842499Y647831D01*
Y646165D01*
X841666Y645332D01*
X842499Y640334D02*
Y643666D01*
X839167Y640334D01*
X838334D01*
X837501Y641167D01*
Y642833D01*
X838334Y643666D01*
X837501Y635336D02*
Y638668D01*
X840000D01*
X839167Y637002D01*
Y636169D01*
X840000Y635336D01*
X841666D01*
X842499Y636169D01*
Y637835D01*
X841666Y638668D01*
X893334Y749332D02*
X892501Y750165D01*
Y751831D01*
X893334Y752664D01*
X896666D01*
X897499Y751831D01*
Y750165D01*
X896666Y749332D01*
X897499Y744334D02*
Y747666D01*
X894167Y744334D01*
X893334D01*
X892501Y745167D01*
Y746833D01*
X893334Y747666D01*
X897499Y740169D02*
X892501D01*
X895000Y742668D01*
Y739335D01*
X893334Y728332D02*
X892501Y729165D01*
Y730831D01*
X893334Y731664D01*
X896666D01*
X897499Y730831D01*
Y729165D01*
X896666Y728332D01*
X897499Y723334D02*
Y726666D01*
X894167Y723334D01*
X893334D01*
X892501Y724167D01*
Y725833D01*
X893334Y726666D01*
Y721668D02*
X892501Y720835D01*
Y719168D01*
X893334Y718335D01*
X894167D01*
X895000Y719168D01*
Y720002D01*
Y719168D01*
X895833Y718335D01*
X896666D01*
X897499Y719168D01*
Y720835D01*
X896666Y721668D01*
X802666Y669668D02*
X803499Y668835D01*
Y667169D01*
X802666Y666336D01*
X799334D01*
X798501Y667169D01*
Y668835D01*
X799334Y669668D01*
X798501Y674666D02*
Y671334D01*
X801833Y674666D01*
X802666D01*
X803499Y673833D01*
Y672167D01*
X802666Y671334D01*
X798501Y679665D02*
Y676332D01*
X801833Y679665D01*
X802666D01*
X803499Y678831D01*
Y677165D01*
X802666Y676332D01*
X761499Y604666D02*
X762332Y605499D01*
X763998D01*
X764831Y604666D01*
Y601334D01*
X763998Y600501D01*
X762332D01*
X761499Y601334D01*
X756501Y600501D02*
X759833D01*
X756501Y603833D01*
Y604666D01*
X757334Y605499D01*
X759000D01*
X759833Y604666D01*
X754835Y600501D02*
X753169D01*
X754002D01*
Y605499D01*
X754835Y604666D01*
X844916Y776666D02*
X845749Y777499D01*
X847415D01*
X848248Y776666D01*
Y773334D01*
X847415Y772501D01*
X845749D01*
X844916Y773334D01*
X843250Y772501D02*
X841583D01*
X842417D01*
Y777499D01*
X843250Y776666D01*
X839084Y777499D02*
X835752D01*
Y776666D01*
X839084Y773334D01*
Y772501D01*
X844916Y785666D02*
X845749Y786499D01*
X847415D01*
X848248Y785666D01*
Y782334D01*
X847415Y781501D01*
X845749D01*
X844916Y782334D01*
X843250Y781501D02*
X841583D01*
X842417D01*
Y786499D01*
X843250Y785666D01*
X835752Y786499D02*
X837418Y785666D01*
X839084Y784000D01*
Y782334D01*
X838251Y781501D01*
X836585D01*
X835752Y782334D01*
Y783167D01*
X836585Y784000D01*
X839084D01*
X844916Y794666D02*
X845749Y795499D01*
X847415D01*
X848248Y794666D01*
Y791334D01*
X847415Y790501D01*
X845749D01*
X844916Y791334D01*
X843250Y790501D02*
X841583D01*
X842417D01*
Y795499D01*
X843250Y794666D01*
X835752Y795499D02*
X839084D01*
Y793000D01*
X837418Y793833D01*
X836585D01*
X835752Y793000D01*
Y791334D01*
X836585Y790501D01*
X838251D01*
X839084Y791334D01*
X806831Y743501D02*
Y746833D01*
X805165Y748499D01*
X803499Y746833D01*
Y743501D01*
Y746000D01*
X806831D01*
X798501Y747666D02*
X799334Y748499D01*
X801000D01*
X801833Y747666D01*
Y744334D01*
X801000Y743501D01*
X799334D01*
X798501Y744334D01*
X796835Y743501D02*
X795169D01*
X796002D01*
Y748499D01*
X796835Y747666D01*
D12*
X841516Y736356D02*
G03*
X841516Y736356I-1013J0D01*
G01*
X779000Y649500D02*
G03*
X779000Y649500I-1250J0D01*
G01*
M02*
