G04*
G04 #@! TF.GenerationSoftware,Altium Limited,Altium Designer,22.10.1 (41)*
G04*
G04 Layer_Color=16711935*
%FSLAX44Y44*%
%MOMM*%
G71*
G04*
G04 #@! TF.SameCoordinates,35C75811-A236-4261-A3B1-3B9E0A362E8F*
G04*
G04*
G04 #@! TF.FilePolarity,Positive*
G04*
G01*
G75*
%ADD13C,0.3000*%
D13*
X920000Y581000D02*
G03*
X914000Y575000I0J-6000D01*
G01*
X926000D02*
G03*
X920000Y581000I-6000J0D01*
G01*
X786000Y575000D02*
G03*
X780000Y581000I-6000J0D01*
G01*
D02*
G03*
X774000Y575000I0J-6000D01*
G01*
X725000Y580000D02*
G03*
X730000Y575000I5000J-0D01*
G01*
X970000Y575000D02*
G03*
X975000Y580000I0J5000D01*
G01*
X732500Y837500D02*
G03*
X725000Y830000I0J-7500D01*
G01*
X975000D02*
G03*
X967500Y837500I-7500J0D01*
G01*
X757500D02*
G03*
X770000Y850000I0J12500D01*
G01*
X930000Y850000D02*
G03*
X942500Y837500I12500J0D01*
G01*
X775000Y900000D02*
G03*
X770000Y895000I0J-5000D01*
G01*
X930000D02*
G03*
X925000Y900000I-5000J0D01*
G01*
X725000Y580000D02*
Y830000D01*
X786000Y575000D02*
X914000D01*
X926000D02*
X970000D01*
X730000Y575000D02*
X774000Y575000D01*
X975000Y580000D02*
Y830000D01*
X942500Y837500D02*
X967500D01*
X732500D02*
X757500D01*
X930000Y850000D02*
X930000Y895000D01*
X770000D02*
X770000Y850000D01*
X775000Y900000D02*
X925000D01*
M02*
