G04*
G04 #@! TF.GenerationSoftware,Altium Limited,Altium Designer,24.4.1 (13)*
G04*
G04 Layer_Physical_Order=4*
G04 Layer_Color=16711680*
%FSLAX44Y44*%
%MOMM*%
G71*
G04*
G04 #@! TF.SameCoordinates,CC372D61-D2D5-4D84-A055-2445D59649BF*
G04*
G04*
G04 #@! TF.FilePolarity,Positive*
G04*
G01*
G75*
%ADD10C,0.2500*%
%ADD20R,0.6000X0.7000*%
%ADD21R,0.7000X0.6000*%
%ADD40R,0.6000X0.6000*%
%ADD41R,2.0000X2.0000*%
%ADD42C,0.1100*%
%ADD43C,0.1250*%
%ADD45C,0.6000*%
%ADD46O,1.0000X2.2000*%
%ADD47O,1.0000X1.9000*%
%ADD48C,0.5000*%
%ADD52R,0.6000X0.3000*%
%ADD53R,0.3000X0.6000*%
%ADD54R,1.0000X0.9000*%
%ADD55R,1.5500X1.7500*%
%ADD56R,0.8000X0.3000*%
%ADD57R,0.3000X0.8000*%
%ADD58R,0.8000X0.3000*%
%ADD59R,0.3000X0.9900*%
G36*
X969304Y834355D02*
X970833Y833333D01*
X971855Y831804D01*
X972205Y830044D01*
X972196Y830000D01*
Y580000D01*
X972165D01*
X972000Y579172D01*
X971531Y578469D01*
X970828Y578000D01*
X970000Y577835D01*
Y577804D01*
X928310D01*
X927643Y579413D01*
X926241Y581241D01*
X924413Y582643D01*
X922284Y583525D01*
X920000Y583825D01*
X920000Y583825D01*
X917716Y583525D01*
X915587Y582643D01*
X913759Y581241D01*
X912357Y579413D01*
X911691Y577804D01*
X898996D01*
X898564Y579074D01*
X898628Y579122D01*
X899836Y580698D01*
X900596Y582532D01*
X900855Y584500D01*
Y587730D01*
X893250D01*
X885645D01*
Y584500D01*
X885904Y582532D01*
X886664Y580698D01*
X887872Y579122D01*
X887936Y579074D01*
X887505Y577804D01*
X812495D01*
X812064Y579074D01*
X812128Y579122D01*
X813336Y580698D01*
X814096Y582532D01*
X814355Y584500D01*
Y587730D01*
X806750D01*
X799145D01*
Y584500D01*
X799404Y582532D01*
X800164Y580698D01*
X801372Y579122D01*
X801436Y579074D01*
X801004Y577804D01*
X788309D01*
X787643Y579413D01*
X786241Y581241D01*
X784413Y582643D01*
X782284Y583525D01*
X780000Y583825D01*
X777716Y583525D01*
X775587Y582643D01*
X773759Y581241D01*
X772357Y579413D01*
X771690Y577804D01*
X730000Y577804D01*
Y577835D01*
X729172Y578000D01*
X728469Y578469D01*
X728000Y579172D01*
X727835Y580000D01*
X727804D01*
Y830000D01*
X727795Y830044D01*
X728145Y831804D01*
X729167Y833333D01*
X730696Y834355D01*
X732456Y834705D01*
X732500Y834696D01*
X967500D01*
X967544Y834705D01*
X969304Y834355D01*
D02*
G37*
%LPC*%
G36*
X772730Y831040D02*
X768460D01*
Y830933D01*
X768250Y829750D01*
X767190Y829750D01*
X759750D01*
Y829090D01*
X756073D01*
X755443Y829720D01*
X754064Y830291D01*
X752573D01*
X751194Y829720D01*
X750139Y828665D01*
X749568Y827287D01*
Y825795D01*
X750139Y824417D01*
X751194Y823362D01*
X752573Y822791D01*
X754064D01*
X755443Y823362D01*
X756073Y823992D01*
X759750D01*
Y820250D01*
X761451D01*
Y817750D01*
X759750D01*
Y811855D01*
X748198Y800302D01*
X747645Y799475D01*
X747451Y798500D01*
Y752000D01*
X747645Y751024D01*
X748198Y750198D01*
X751451Y746944D01*
Y710678D01*
X751645Y709702D01*
X752198Y708875D01*
X783171Y677901D01*
Y677010D01*
X783742Y675632D01*
X784193Y675182D01*
X783667Y673912D01*
X783000D01*
X782268Y673766D01*
X781648Y673352D01*
X778958Y670662D01*
X778746Y670750D01*
X777254D01*
X775876Y670179D01*
X774821Y669124D01*
X774250Y667746D01*
Y666254D01*
X774821Y664876D01*
X775876Y663821D01*
X777254Y663250D01*
X778746D01*
X780124Y663821D01*
X781179Y664876D01*
X781750Y666254D01*
X782960Y666109D01*
Y661805D01*
X776612D01*
X776207Y661638D01*
X775784Y661523D01*
X775559Y661348D01*
X774273Y661280D01*
X769750Y665802D01*
X768923Y666355D01*
X767948Y666549D01*
X753754D01*
X753124Y667179D01*
X751746Y667750D01*
X750254D01*
X748876Y667179D01*
X747821Y666124D01*
X747250Y664746D01*
Y663254D01*
X747821Y661876D01*
X747823Y661873D01*
X747977Y661717D01*
X748460Y661040D01*
Y660933D01*
X748250Y659750D01*
X739750D01*
Y650250D01*
X741451D01*
Y642250D01*
X738750D01*
Y633540D01*
X737460D01*
Y630770D01*
X744000D01*
Y628230D01*
X737460D01*
Y628051D01*
X736912Y627685D01*
X735421D01*
X734042Y627114D01*
X732987Y626059D01*
X732416Y624681D01*
Y623189D01*
X732987Y621811D01*
X734042Y620756D01*
X735421Y620185D01*
X736912D01*
X738291Y620756D01*
X739285Y621750D01*
X748710D01*
Y620710D01*
X757730D01*
Y632000D01*
X760270D01*
Y620710D01*
X768647D01*
X768647Y617159D01*
X768238Y616750D01*
X761750Y616750D01*
X761540Y617933D01*
Y618040D01*
X757270D01*
Y612000D01*
Y605960D01*
X761540D01*
Y606067D01*
X761750Y607250D01*
X762810Y607250D01*
X764837D01*
X770277Y601810D01*
X769960Y600540D01*
X769960Y600331D01*
Y596270D01*
X776000D01*
Y595000D01*
X777270D01*
Y589460D01*
X785730D01*
Y595000D01*
X787000D01*
Y596270D01*
X793040D01*
Y600540D01*
X793040D01*
X792274Y601810D01*
X792353Y602000D01*
Y631460D01*
X796040D01*
Y635730D01*
X790000D01*
Y638270D01*
X796040D01*
Y642540D01*
X795933D01*
X795205Y642669D01*
X794907Y643861D01*
X802104Y652134D01*
X807000D01*
X807280Y652250D01*
X808250D01*
Y653239D01*
X808353Y653487D01*
Y660452D01*
X808250Y660701D01*
Y661750D01*
X807134D01*
X807000Y661805D01*
X795040D01*
Y664730D01*
X789000D01*
Y667270D01*
X795040D01*
Y670088D01*
X799000D01*
X799732Y670234D01*
X800352Y670648D01*
X802792Y673088D01*
X813940D01*
X814617Y671818D01*
X814254Y671250D01*
X812876Y670679D01*
X811821Y669624D01*
X811250Y668246D01*
Y666754D01*
X811821Y665376D01*
X812876Y664321D01*
X814254Y663750D01*
X815746D01*
X817124Y664321D01*
X818179Y665376D01*
X818750Y666754D01*
Y668149D01*
X819052Y668451D01*
X865246D01*
X865876Y667821D01*
X867254Y667250D01*
X868746D01*
X870124Y667821D01*
X871179Y668876D01*
X871750Y670254D01*
Y671746D01*
X871179Y673124D01*
X870124Y674179D01*
X868746Y674750D01*
X867254D01*
X866120Y674280D01*
X865803Y674304D01*
X865464Y674901D01*
X865420Y675717D01*
X867042Y677338D01*
X867254Y677250D01*
X868746D01*
X870124Y677821D01*
X871179Y678876D01*
X871750Y680254D01*
Y681746D01*
X871179Y683124D01*
X870124Y684179D01*
X868746Y684750D01*
X867254D01*
X865876Y684179D01*
X864821Y683124D01*
X864250Y681746D01*
Y680254D01*
X864338Y680042D01*
X861208Y676912D01*
X802000D01*
X801268Y676766D01*
X800648Y676352D01*
X798208Y673912D01*
X790176D01*
X789650Y675182D01*
X790100Y675632D01*
X790671Y677010D01*
Y678502D01*
X790652Y678548D01*
X820355Y708250D01*
X825250Y708250D01*
X825460Y707067D01*
Y706960D01*
X829730D01*
Y713000D01*
X831000D01*
Y714270D01*
X836540D01*
Y716960D01*
Y721730D01*
X831000D01*
Y724270D01*
X836540D01*
Y726960D01*
Y731730D01*
X831000D01*
Y733000D01*
X829730D01*
Y739040D01*
X825460D01*
Y738933D01*
X825250Y737750D01*
X823447Y737750D01*
X822717Y738480D01*
X822750Y739750D01*
X822750D01*
Y741451D01*
X829725D01*
X830701Y741645D01*
X831527Y742198D01*
X840281Y750951D01*
X843645D01*
X844028Y750146D01*
X844086Y749681D01*
X840702Y746298D01*
X840304Y745702D01*
X840165Y745000D01*
Y740299D01*
X839876Y740179D01*
X838821Y739124D01*
X838250Y737746D01*
Y736254D01*
X838821Y734876D01*
X839876Y733821D01*
X841254Y733250D01*
X842746D01*
X844124Y733821D01*
X845179Y734876D01*
X845750Y736254D01*
Y737746D01*
X845179Y739124D01*
X844124Y740179D01*
X843835Y740299D01*
Y744240D01*
X845345Y745750D01*
X854750D01*
Y743673D01*
X853480Y743122D01*
X852379Y743578D01*
X850887D01*
X849508Y743007D01*
X848454Y741952D01*
X847883Y740574D01*
Y739082D01*
X848454Y737704D01*
X849508Y736649D01*
X850887Y736078D01*
X852379D01*
X853480Y736534D01*
X854750Y736250D01*
Y736250D01*
X859233D01*
X859759Y734980D01*
X859220Y734441D01*
X858649Y733063D01*
Y731571D01*
X859220Y730193D01*
X860275Y729138D01*
X861654Y728567D01*
X863145D01*
X864524Y729138D01*
X865579Y730193D01*
X866149Y731571D01*
Y733063D01*
X865579Y734441D01*
X865040Y734980D01*
X865566Y736250D01*
X869951D01*
Y734750D01*
X869750D01*
Y725250D01*
X878250D01*
X878460Y724067D01*
Y723960D01*
X882730D01*
Y730000D01*
Y736040D01*
X882293D01*
X881807Y737213D01*
X901758Y757165D01*
X910986D01*
X912250Y757150D01*
Y744750D01*
X912250Y744750D01*
X912250D01*
X911537Y743811D01*
X905845Y738119D01*
X903595D01*
X903179Y739124D01*
X902124Y740179D01*
X900746Y740750D01*
X899254D01*
X897876Y740179D01*
X896821Y739124D01*
X896250Y737746D01*
Y736254D01*
X896821Y734876D01*
X897876Y733821D01*
X899254Y733250D01*
X900746D01*
X902124Y733821D01*
X902752Y734449D01*
X906605D01*
X907308Y734588D01*
X907903Y734986D01*
X916298Y743381D01*
X916350Y743460D01*
X918730D01*
Y750950D01*
X921270D01*
Y743460D01*
X921808D01*
X922335Y742190D01*
X904470Y724326D01*
X903179Y724124D01*
X902124Y725179D01*
X900746Y725750D01*
X899254D01*
X897876Y725179D01*
X896821Y724124D01*
X896250Y722746D01*
Y721254D01*
X896821Y719876D01*
X897876Y718821D01*
X899254Y718250D01*
X900746D01*
X902124Y718821D01*
X903179Y719876D01*
X903299Y720165D01*
X904740D01*
X905442Y720304D01*
X906038Y720702D01*
X926136Y740801D01*
X926534Y741396D01*
X926673Y742098D01*
Y744750D01*
X927750D01*
Y757150D01*
X924040D01*
Y758440D01*
X921230D01*
X920744Y759613D01*
X920928Y759797D01*
X921326Y760392D01*
X921416Y760850D01*
X927750D01*
Y765215D01*
X931190D01*
X943697Y752708D01*
X944292Y752310D01*
X944750Y752219D01*
Y738750D01*
X967250D01*
Y761250D01*
X967250D01*
Y761750D01*
X967250D01*
Y784250D01*
X967250D01*
Y784750D01*
X967250D01*
Y806460D01*
X968540D01*
Y817730D01*
X956000D01*
X943460D01*
Y806460D01*
X944750D01*
Y792835D01*
X933000D01*
X932923Y792820D01*
X932729Y792892D01*
X931788Y793708D01*
X931750Y793783D01*
Y794746D01*
X931179Y796124D01*
X930124Y797179D01*
X928746Y797750D01*
X927254D01*
X926965Y797630D01*
X925298Y799298D01*
X924702Y799696D01*
X924000Y799835D01*
X885750D01*
Y802250D01*
X876250D01*
Y799601D01*
X873921D01*
X873802Y799890D01*
X872747Y800945D01*
X871368Y801516D01*
X869877D01*
X868498Y800945D01*
X867443Y799890D01*
X866872Y798512D01*
Y797020D01*
X867443Y795641D01*
X868498Y794587D01*
X869877Y794016D01*
X871368D01*
X872747Y794587D01*
X873802Y795641D01*
X873921Y795930D01*
X876250D01*
Y793750D01*
X875067Y793540D01*
X874960D01*
Y789270D01*
X881000D01*
Y788000D01*
X882270D01*
Y782460D01*
X885460D01*
Y779710D01*
X885774D01*
X886750Y779000D01*
X886750Y778440D01*
Y768770D01*
X886750Y768516D01*
X886040Y767540D01*
X885209Y767540D01*
X880770D01*
Y763500D01*
X879500D01*
Y762230D01*
X872960D01*
Y759460D01*
X874250D01*
Y757540D01*
X872960D01*
Y754770D01*
X879500D01*
X886040D01*
Y756319D01*
X887312D01*
X888014Y756458D01*
X888610Y756856D01*
X894510Y762756D01*
X894907Y763351D01*
X895047Y764054D01*
Y767500D01*
X899250D01*
Y778440D01*
X899250Y779000D01*
X900226Y779710D01*
X900540D01*
Y786017D01*
X901706Y786796D01*
X902750Y786170D01*
Y777750D01*
X911250D01*
Y786250D01*
X906835D01*
Y787958D01*
X906695Y788661D01*
X906298Y789256D01*
X906250Y789304D01*
X906458Y789807D01*
Y791298D01*
X905887Y792677D01*
X904832Y793732D01*
X903454Y794303D01*
X901962D01*
X901700Y794194D01*
X900540Y793790D01*
X900540Y793790D01*
X900540Y793790D01*
X894270D01*
Y786750D01*
X891730D01*
Y793790D01*
X886713D01*
X885750Y793790D01*
X885750Y795267D01*
X886648Y796165D01*
X923240D01*
X924370Y795035D01*
X924250Y794746D01*
Y793254D01*
X924821Y791876D01*
X925876Y790821D01*
X927254Y790250D01*
X927859D01*
X928385Y788980D01*
X913708Y774303D01*
X913310Y773708D01*
X912353Y773500D01*
X911250Y774336D01*
Y776250D01*
X902750D01*
Y767750D01*
X905165D01*
Y765762D01*
X899700Y760298D01*
X886020Y746617D01*
X884750Y747143D01*
Y749460D01*
X886040D01*
Y752230D01*
X879500D01*
X872960D01*
Y751555D01*
X871787Y751069D01*
X867553Y755302D01*
X866726Y755855D01*
X865751Y756049D01*
X855750D01*
Y765250D01*
X872960D01*
Y764770D01*
X878230D01*
Y767540D01*
X875250D01*
Y775750D01*
X854750D01*
Y766250D01*
X845250D01*
Y766049D01*
X842784D01*
X841809Y765855D01*
X840982Y765302D01*
X838718Y763039D01*
X838666Y763049D01*
X825750D01*
Y763250D01*
X822750D01*
Y771250D01*
X821818D01*
Y772593D01*
X821678Y773295D01*
X821280Y773891D01*
X805873Y789298D01*
X805278Y789696D01*
X804575Y789835D01*
X761299D01*
X761179Y790124D01*
X760124Y791179D01*
X758746Y791750D01*
X757254D01*
X755876Y791179D01*
X754821Y790124D01*
X754250Y788746D01*
Y787254D01*
X754821Y785876D01*
X755876Y784821D01*
X757254Y784250D01*
X758746D01*
X760124Y784821D01*
X761179Y785876D01*
X761299Y786165D01*
X803815D01*
X817460Y772520D01*
X816934Y771250D01*
X809040D01*
Y772540D01*
X806270D01*
Y767000D01*
X805000D01*
Y765730D01*
X800960D01*
Y763250D01*
X799250D01*
Y753049D01*
X799096D01*
X798120Y752855D01*
X797293Y752302D01*
X795486Y750495D01*
X789750D01*
Y752250D01*
X780250D01*
Y750549D01*
X777750D01*
Y752250D01*
X768250D01*
Y750549D01*
X765750D01*
Y752250D01*
X756250D01*
Y750732D01*
X754980Y750625D01*
X752549Y753056D01*
Y797444D01*
X763355Y808250D01*
X768250Y808250D01*
X768460Y807067D01*
Y806960D01*
X772730D01*
Y813000D01*
X774000D01*
Y814270D01*
X779540D01*
Y818960D01*
Y823730D01*
X774000D01*
Y825000D01*
X772730D01*
Y831040D01*
D02*
G37*
G36*
X779540D02*
X775270D01*
Y826270D01*
X779540D01*
Y831040D01*
D02*
G37*
G36*
X968540Y831540D02*
X957270D01*
Y820270D01*
X968540D01*
Y831540D01*
D02*
G37*
G36*
X954730D02*
X943460D01*
Y820270D01*
X954730D01*
Y831540D01*
D02*
G37*
G36*
X779540Y811730D02*
X775270D01*
Y806960D01*
X779540D01*
Y811730D01*
D02*
G37*
G36*
X879730Y786730D02*
X874960D01*
Y782460D01*
X879730D01*
Y786730D01*
D02*
G37*
G36*
X803730Y772540D02*
X800960D01*
Y768270D01*
X803730D01*
Y772540D01*
D02*
G37*
G36*
X770746Y782750D02*
X769254D01*
X767876Y782179D01*
X766821Y781124D01*
X766250Y779746D01*
Y778916D01*
X765898Y778102D01*
X765084Y777750D01*
X764254D01*
X762876Y777179D01*
X761821Y776124D01*
X761250Y774746D01*
Y773254D01*
X761347Y773020D01*
X760498Y771750D01*
X760254D01*
X758876Y771179D01*
X757821Y770124D01*
X757250Y768746D01*
Y767254D01*
X757821Y765876D01*
X758876Y764821D01*
X759165Y764701D01*
Y762250D01*
X756250D01*
Y753750D01*
X765750D01*
Y762250D01*
X762835D01*
Y764701D01*
X763124Y764821D01*
X764179Y765876D01*
X764750Y767254D01*
Y768746D01*
X765614Y769679D01*
X766608Y769797D01*
X771165Y765240D01*
Y762250D01*
X768250D01*
Y753750D01*
X777750D01*
Y762250D01*
X774835D01*
Y766000D01*
X774696Y766702D01*
X774298Y767298D01*
X768630Y772965D01*
X768750Y773254D01*
Y774084D01*
X769102Y774898D01*
X769916Y775250D01*
X770746D01*
X771035Y775370D01*
X782885Y763520D01*
X782488Y762250D01*
X780250D01*
Y753750D01*
X789750D01*
Y762250D01*
X786835D01*
Y764000D01*
X786696Y764702D01*
X786298Y765298D01*
X773630Y777965D01*
X773750Y778254D01*
Y779746D01*
X773179Y781124D01*
X772124Y782179D01*
X770746Y782750D01*
D02*
G37*
G36*
X836540Y739040D02*
X832270D01*
Y734270D01*
X836540D01*
Y739040D01*
D02*
G37*
G36*
X889540Y736040D02*
X885270D01*
Y731270D01*
X889540D01*
Y736040D01*
D02*
G37*
G36*
Y728730D02*
X885270D01*
Y723960D01*
X889540D01*
Y728730D01*
D02*
G37*
G36*
X958737Y717926D02*
X957245D01*
X955867Y717355D01*
X954812Y716301D01*
X954693Y716012D01*
X926176D01*
X925474Y715872D01*
X924879Y715474D01*
X918240Y708835D01*
X892299D01*
X892179Y709124D01*
X891124Y710179D01*
X889746Y710750D01*
X888254D01*
X886876Y710179D01*
X885821Y709124D01*
X885250Y707746D01*
Y706254D01*
X885821Y704876D01*
X886876Y703821D01*
X888254Y703250D01*
X889746D01*
X891124Y703821D01*
X892179Y704876D01*
X892299Y705165D01*
X919000D01*
X919702Y705304D01*
X920298Y705702D01*
X926936Y712341D01*
X954693D01*
X954812Y712052D01*
X955867Y710997D01*
X957245Y710426D01*
X958737D01*
X960116Y710997D01*
X961171Y712052D01*
X961741Y713430D01*
Y714922D01*
X961171Y716301D01*
X960116Y717355D01*
X958737Y717926D01*
D02*
G37*
G36*
X836540Y711730D02*
X832270D01*
Y706960D01*
X836540D01*
Y711730D01*
D02*
G37*
G36*
X875630Y661793D02*
X811000D01*
X810897Y661750D01*
X809750D01*
Y660688D01*
X809647Y660440D01*
Y653568D01*
X809657Y653545D01*
X809648Y653522D01*
X809750Y653297D01*
Y652250D01*
X810429D01*
X816187Y646872D01*
Y645000D01*
X816203Y644962D01*
X815825Y643674D01*
X815067Y643540D01*
X814960D01*
Y640201D01*
X813690Y639948D01*
X813336Y640803D01*
X812128Y642378D01*
X810553Y643586D01*
X808718Y644346D01*
X808020Y644438D01*
Y632270D01*
X814847D01*
X814960Y632460D01*
X815625Y632460D01*
X819730D01*
Y638000D01*
X822270D01*
Y632460D01*
X829730D01*
Y638000D01*
X831000D01*
Y639270D01*
X837040D01*
Y643540D01*
X837040D01*
X836274Y644810D01*
X836353Y645000D01*
Y651552D01*
X876424D01*
X876894Y651747D01*
X877367Y651935D01*
X877371Y651945D01*
X877381Y651949D01*
X877576Y652418D01*
X877777Y652886D01*
X877874Y659516D01*
X877872Y659520D01*
X877874Y659525D01*
X877681Y660001D01*
X877492Y660478D01*
X877487Y660480D01*
X877485Y660485D01*
X876593Y661390D01*
X876589Y661392D01*
X876587Y661397D01*
X876112Y661593D01*
X875640Y661793D01*
X875635Y661791D01*
X875630Y661793D01*
D02*
G37*
G36*
X837040Y636730D02*
X832270D01*
Y632460D01*
X837040D01*
Y636730D01*
D02*
G37*
G36*
X894520Y644438D02*
Y632270D01*
X900855D01*
Y637000D01*
X900596Y638968D01*
X899836Y640803D01*
X898628Y642378D01*
X897053Y643586D01*
X895218Y644346D01*
X894520Y644438D01*
D02*
G37*
G36*
X891980Y644438D02*
X891282Y644346D01*
X889447Y643586D01*
X887872Y642378D01*
X886664Y640803D01*
X885904Y638968D01*
X885645Y637000D01*
Y632270D01*
X891980D01*
Y644438D01*
D02*
G37*
G36*
X805480D02*
X804782Y644346D01*
X802947Y643586D01*
X801372Y642378D01*
X800164Y640803D01*
X799404Y638968D01*
X799145Y637000D01*
Y632270D01*
X805480D01*
Y644438D01*
D02*
G37*
G36*
X879597Y629000D02*
X878403D01*
X877301Y628543D01*
X876457Y627699D01*
X876000Y626597D01*
Y625403D01*
X876457Y624301D01*
X877301Y623457D01*
X878403Y623000D01*
X879597D01*
X880699Y623457D01*
X881543Y624301D01*
X882000Y625403D01*
Y626597D01*
X881543Y627699D01*
X880699Y628543D01*
X879597Y629000D01*
D02*
G37*
G36*
X821597D02*
X820403D01*
X819301Y628543D01*
X818457Y627699D01*
X818000Y626597D01*
Y625403D01*
X818457Y624301D01*
X819301Y623457D01*
X820403Y623000D01*
X821597D01*
X822699Y623457D01*
X823543Y624301D01*
X824000Y625403D01*
Y626597D01*
X823543Y627699D01*
X822699Y628543D01*
X821597Y629000D01*
D02*
G37*
G36*
X900855Y629730D02*
X894520D01*
Y617562D01*
X895218Y617654D01*
X897053Y618414D01*
X898628Y619622D01*
X899836Y621197D01*
X900596Y623032D01*
X900855Y625000D01*
Y629730D01*
D02*
G37*
G36*
X814355D02*
X808020D01*
Y617562D01*
X808718Y617654D01*
X810553Y618414D01*
X812128Y619622D01*
X813336Y621197D01*
X814096Y623032D01*
X814355Y625000D01*
Y629730D01*
D02*
G37*
G36*
X891980D02*
X885645D01*
Y625000D01*
X885904Y623032D01*
X886664Y621197D01*
X887872Y619622D01*
X889447Y618414D01*
X891282Y617654D01*
X891980Y617562D01*
Y629730D01*
D02*
G37*
G36*
X805480D02*
X799145D01*
Y625000D01*
X799404Y623032D01*
X800164Y621197D01*
X801372Y619622D01*
X802947Y618414D01*
X804782Y617654D01*
X805480Y617562D01*
Y629730D01*
D02*
G37*
G36*
X754730Y618040D02*
X750460D01*
Y613270D01*
X754730D01*
Y618040D01*
D02*
G37*
G36*
X865739Y628867D02*
X864247D01*
X862869Y628296D01*
X861814Y627241D01*
X861243Y625863D01*
Y624371D01*
X861814Y622993D01*
X862869Y621938D01*
X863158Y621818D01*
Y619250D01*
X860250D01*
X860250Y610750D01*
X859067Y610540D01*
X858960D01*
Y606270D01*
X865000D01*
X871040D01*
Y610540D01*
X870933D01*
X869750Y610750D01*
X869750Y611810D01*
Y619250D01*
X866828D01*
Y621818D01*
X867117Y621938D01*
X868172Y622993D01*
X868743Y624371D01*
Y625863D01*
X868172Y627241D01*
X867117Y628296D01*
X865739Y628867D01*
D02*
G37*
G36*
X838246Y628750D02*
X836754D01*
X835376Y628179D01*
X834321Y627124D01*
X833750Y625746D01*
Y624254D01*
X834321Y622876D01*
X835376Y621821D01*
X835665Y621701D01*
Y619250D01*
X832750D01*
X832750Y610750D01*
X831567Y610540D01*
X831460D01*
Y606270D01*
X837500D01*
X843540D01*
Y610540D01*
X843433D01*
X842250Y610750D01*
X842250Y611810D01*
Y619250D01*
X839335D01*
Y621701D01*
X839624Y621821D01*
X840679Y622876D01*
X841250Y624254D01*
Y625746D01*
X840679Y627124D01*
X839624Y628179D01*
X838246Y628750D01*
D02*
G37*
G36*
X754730Y610730D02*
X750460D01*
Y605960D01*
X754730D01*
Y610730D01*
D02*
G37*
G36*
X871040Y603730D02*
X866270D01*
Y599460D01*
X871040D01*
Y603730D01*
D02*
G37*
G36*
X863730D02*
X858960D01*
Y599460D01*
X863730D01*
Y603730D01*
D02*
G37*
G36*
X843540Y603730D02*
X838770D01*
Y599460D01*
X843540D01*
Y603730D01*
D02*
G37*
G36*
X836230D02*
X831460D01*
Y599460D01*
X836230D01*
Y603730D01*
D02*
G37*
G36*
X894520Y600938D02*
Y590270D01*
X900855D01*
Y593500D01*
X900596Y595468D01*
X899836Y597303D01*
X898628Y598878D01*
X897053Y600086D01*
X895218Y600846D01*
X894520Y600938D01*
D02*
G37*
G36*
X808020D02*
Y590270D01*
X814355D01*
Y593500D01*
X814096Y595468D01*
X813336Y597303D01*
X812128Y598878D01*
X810553Y600086D01*
X808718Y600846D01*
X808020Y600938D01*
D02*
G37*
G36*
X891980Y600938D02*
X891282Y600846D01*
X889447Y600086D01*
X887872Y598878D01*
X886664Y597303D01*
X885904Y595468D01*
X885645Y593500D01*
Y590270D01*
X891980D01*
Y600938D01*
D02*
G37*
G36*
X805480D02*
X804782Y600846D01*
X802947Y600086D01*
X801372Y598878D01*
X800164Y597303D01*
X799404Y595468D01*
X799145Y593500D01*
Y590270D01*
X805480D01*
Y600938D01*
D02*
G37*
G36*
X793040Y593730D02*
X788270D01*
Y589460D01*
X793040D01*
Y593730D01*
D02*
G37*
G36*
X774730Y593730D02*
X769960D01*
Y589460D01*
X774730D01*
Y593730D01*
D02*
G37*
%LPD*%
G36*
X802250Y739750D02*
X811764D01*
X812290Y738480D01*
X810943Y737132D01*
X810654Y737252D01*
X809162D01*
X807783Y736681D01*
X806729Y735626D01*
X806158Y734248D01*
Y732756D01*
X806729Y731378D01*
X807783Y730323D01*
X809162Y729752D01*
X810654D01*
X812032Y730323D01*
X813087Y731378D01*
X813658Y732756D01*
Y734248D01*
X813538Y734537D01*
X815480Y736479D01*
X816750Y735953D01*
Y728250D01*
X816750D01*
Y727750D01*
X816750D01*
Y718250D01*
X816750D01*
Y717750D01*
X816750D01*
Y711855D01*
X786589Y681694D01*
X756549Y711733D01*
Y713628D01*
X757819Y713880D01*
X757821Y713876D01*
X758876Y712821D01*
X760254Y712250D01*
X761746D01*
X763124Y712821D01*
X764179Y713876D01*
X764750Y715254D01*
Y716746D01*
X764179Y718124D01*
X763124Y719179D01*
X762835Y719299D01*
Y720750D01*
X765250D01*
Y729250D01*
X758027Y729250D01*
X757584Y730000D01*
X758027Y730750D01*
X765250D01*
Y739250D01*
X763549D01*
Y743750D01*
X765750D01*
Y745451D01*
X768250D01*
Y743750D01*
X777750D01*
Y745451D01*
X780250D01*
Y743750D01*
X789750D01*
Y745397D01*
X796542D01*
X797517Y745591D01*
X798344Y746144D01*
X799950Y747750D01*
X802250D01*
Y739750D01*
D02*
G37*
G36*
X807000Y653487D02*
X801487D01*
X793316Y644093D01*
X781093D01*
X778000Y641000D01*
Y634573D01*
X770471D01*
Y646471D01*
X772000Y648000D01*
Y652736D01*
X772708Y653029D01*
X773270Y653149D01*
X774025Y652645D01*
X775000Y652451D01*
X775975Y652645D01*
X776802Y653198D01*
X777355Y654025D01*
X777549Y655000D01*
X777355Y655975D01*
X776802Y656802D01*
X775799Y657806D01*
Y658698D01*
X775703Y659183D01*
X776387Y660278D01*
X776612Y660452D01*
X807000D01*
Y653487D01*
D02*
G37*
G36*
X791000Y602000D02*
X772000D01*
X765000Y609000D01*
Y615000D01*
X768402D01*
X770000Y616598D01*
X770000Y624000D01*
Y631497D01*
X791000D01*
Y602000D01*
D02*
G37*
G36*
X876521Y659535D02*
X876424Y652905D01*
X835000D01*
Y645000D01*
X817540D01*
Y647460D01*
X811000Y653568D01*
Y660440D01*
X875630D01*
X876521Y659535D01*
D02*
G37*
D10*
X872500Y731500D02*
X874000Y730000D01*
X872500Y741500D02*
Y746751D01*
Y731500D02*
Y741500D01*
X750000Y752000D02*
Y798500D01*
X764000Y812500D01*
Y813000D02*
Y825000D01*
Y812500D02*
Y813000D01*
X796542Y747946D02*
X799096Y750500D01*
X785054Y747946D02*
X796542D01*
X799096Y750500D02*
X803500D01*
X821500Y760500D02*
X838666D01*
X839225Y759941D01*
X865751Y753500D02*
X872500Y746751D01*
X850500Y753500D02*
X865751D01*
X839225Y759941D02*
X842784Y763500D01*
X839225Y753500D02*
Y759941D01*
X842784Y763500D02*
X850500D01*
X829725Y744000D02*
X839225Y753500D01*
X820000Y744000D02*
X829725D01*
X839225Y753500D02*
X850500D01*
X821000Y712500D02*
Y713000D01*
X786921Y678421D02*
X821000Y712500D01*
X786921Y677756D02*
Y678421D01*
X821000Y723000D02*
Y733000D01*
Y713000D02*
Y723000D01*
X820000Y734000D02*
X821000Y733000D01*
X820000Y734000D02*
Y744000D01*
X762500Y826541D02*
Y826617D01*
X753318Y826541D02*
X762500D01*
X754000Y710678D02*
Y748000D01*
Y710678D02*
X786921Y677756D01*
X815000Y668003D02*
X817997Y671000D01*
X868000D01*
X815000Y667500D02*
Y668003D01*
X761000Y735000D02*
Y748000D01*
X773000D02*
X785000D01*
X761000D02*
X773000D01*
X754000D02*
X761000D01*
X750000Y752000D02*
X754000Y748000D01*
X744000Y639500D02*
Y655000D01*
X736166Y623935D02*
X736580Y624349D01*
X743849D02*
X744000Y624500D01*
X736580Y624349D02*
X743849D01*
X773250Y656750D02*
X775000Y655000D01*
X767948Y664000D02*
X773250Y658698D01*
X751000Y664000D02*
X767948D01*
X773250Y656750D02*
Y658698D01*
D20*
X764000Y813000D02*
D03*
X774000D02*
D03*
X821000Y733000D02*
D03*
X831000D02*
D03*
X821000Y723000D02*
D03*
X831000D02*
D03*
X821000Y713000D02*
D03*
X831000D02*
D03*
X764000Y825000D02*
D03*
X774000D02*
D03*
X744000Y655000D02*
D03*
X754000D02*
D03*
X874000Y730000D02*
D03*
X884000D02*
D03*
X766000Y612000D02*
D03*
X756000D02*
D03*
X775000Y655000D02*
D03*
X765000D02*
D03*
X804000Y657000D02*
D03*
X814000D02*
D03*
D21*
X785000Y748000D02*
D03*
Y758000D02*
D03*
X881000Y798000D02*
D03*
Y788000D02*
D03*
X773000Y758000D02*
D03*
Y748000D02*
D03*
X761000Y758000D02*
D03*
Y748000D02*
D03*
X821000Y638000D02*
D03*
Y648000D02*
D03*
X776000Y595000D02*
D03*
Y605000D02*
D03*
X787000Y595000D02*
D03*
Y605000D02*
D03*
X790000Y647000D02*
D03*
Y637000D02*
D03*
X789000Y656000D02*
D03*
Y666000D02*
D03*
X831000Y648000D02*
D03*
Y638000D02*
D03*
X865000Y605000D02*
D03*
Y615000D02*
D03*
X837500Y605000D02*
D03*
Y615000D02*
D03*
D40*
X907000Y772000D02*
D03*
Y782000D02*
D03*
X761000Y735000D02*
D03*
Y725000D02*
D03*
D41*
X956000Y750000D02*
D03*
Y773000D02*
D03*
Y819000D02*
D03*
Y796000D02*
D03*
D42*
X879846Y758154D02*
X887312D01*
X879500Y758500D02*
X879846Y758154D01*
X887312D02*
X893212Y764054D01*
X893000Y773250D02*
X893212Y773038D01*
Y764054D02*
Y773038D01*
X907000Y765002D02*
Y772000D01*
X900998Y759000D02*
X907000Y765002D01*
X900998Y759000D02*
X917535D01*
X905000Y784000D02*
X907000Y782000D01*
X902708Y790250D02*
Y790553D01*
X905000Y784000D02*
Y787958D01*
X902708Y790250D02*
X905000Y787958D01*
X770000Y779000D02*
X785000Y764000D01*
X940000Y769000D02*
X944000Y773000D01*
X956000D01*
X889000Y707000D02*
X919000D01*
X926176Y714176D01*
X957991D01*
X842000Y745000D02*
X845494Y748494D01*
X850494D02*
X850500Y748500D01*
X845494Y748494D02*
X850494D01*
X842000Y737000D02*
Y745000D01*
X857500Y740778D02*
Y741500D01*
X856550Y739828D02*
X857500Y740778D01*
X851633Y739828D02*
X856550D01*
X900716Y736284D02*
X906605D01*
X915000Y744679D02*
Y750950D01*
X906605Y736284D02*
X915000Y744679D01*
X900000Y737000D02*
X900716Y736284D01*
X924838Y750788D02*
X925000Y750950D01*
X904740Y722000D02*
X924838Y742098D01*
Y750788D01*
X900000Y722000D02*
X904740D01*
X917535Y759000D02*
X919630Y761094D01*
X950872Y778129D02*
X956000Y773000D01*
X925773Y778129D02*
X950872D01*
X920650Y773006D02*
X925773Y778129D01*
X920650Y767700D02*
Y773006D01*
X920000Y767050D02*
X920650Y767700D01*
X944994Y754006D02*
X951994D01*
X925000Y767050D02*
X931950D01*
X951994Y754006D02*
X956000Y750000D01*
X931950Y767050D02*
X944994Y754006D01*
X915006Y767056D02*
Y773006D01*
X933000Y791000D02*
X951000D01*
X915006Y773006D02*
X933000Y791000D01*
X915000Y767050D02*
X915006Y767056D01*
X951000Y791000D02*
X956000Y796000D01*
X928000Y794000D02*
X928000D01*
X924000Y798000D02*
X928000Y794000D01*
X874000Y730000D02*
X876316Y732316D01*
Y734318D02*
X900998Y759000D01*
X876316Y732316D02*
Y734318D01*
X919630Y766680D02*
X920000Y767050D01*
X919630Y761094D02*
Y766680D01*
X862450Y732367D02*
Y741450D01*
X862500Y741500D01*
X862399Y732317D02*
X862450Y732367D01*
X881000Y798000D02*
X924000D01*
X870622Y797766D02*
X880766D01*
X881000Y798000D01*
X761000Y758000D02*
Y768000D01*
X758000Y788000D02*
X804575D01*
X819983Y772593D01*
Y767017D02*
X820000Y767000D01*
X819983Y767017D02*
Y772593D01*
X809908Y733502D02*
X814701Y738295D01*
Y743701D02*
X815000Y744000D01*
X814701Y738295D02*
Y743701D01*
X810511Y752943D02*
X811567D01*
X808150Y755304D02*
X810511Y752943D01*
X803500Y755500D02*
X803696Y755304D01*
X808150D01*
X803720Y760280D02*
X811035D01*
X803500Y760500D02*
X803720Y760280D01*
X811035D02*
X811255Y760061D01*
X785000Y758000D02*
Y764000D01*
X761000Y716000D02*
Y725000D01*
X773000Y758000D02*
Y766000D01*
X765000Y774000D02*
X773000Y766000D01*
X864993Y615007D02*
Y625117D01*
Y615007D02*
X865000Y615000D01*
X837500D02*
Y625000D01*
D43*
X778000Y667000D02*
X783000Y672000D01*
X799000D01*
X802000Y675000D01*
X862000D01*
X868000Y681000D01*
D45*
X879000Y626000D02*
D03*
X821000D02*
D03*
D46*
X806750Y631000D02*
D03*
X893250D02*
D03*
D47*
Y589000D02*
D03*
X806750D02*
D03*
D48*
X902708Y790553D02*
D03*
X794000Y769000D02*
D03*
X770000Y779000D02*
D03*
X941001Y801000D02*
D03*
X951001Y661000D02*
D03*
X931001Y821000D02*
D03*
Y741000D02*
D03*
Y661000D02*
D03*
X921001Y641000D02*
D03*
X931001Y621000D02*
D03*
X901001Y601000D02*
D03*
X891001Y821000D02*
D03*
Y741000D02*
D03*
X881000Y721000D02*
D03*
Y601000D02*
D03*
X871000Y821000D02*
D03*
Y781000D02*
D03*
X861000Y761000D02*
D03*
X871000Y701000D02*
D03*
Y621000D02*
D03*
X851000Y821000D02*
D03*
X841000Y801000D02*
D03*
Y721000D02*
D03*
X851000Y701000D02*
D03*
X841000Y681000D02*
D03*
X831000Y821000D02*
D03*
X821000Y801000D02*
D03*
X831000Y701000D02*
D03*
X821000Y681000D02*
D03*
X831000Y621000D02*
D03*
X821000Y601000D02*
D03*
X811000Y821000D02*
D03*
X801000Y801000D02*
D03*
Y721000D02*
D03*
Y601000D02*
D03*
X791000Y821000D02*
D03*
X781000Y801000D02*
D03*
X791000Y781000D02*
D03*
Y741000D02*
D03*
X781000Y721000D02*
D03*
X791000Y701000D02*
D03*
X771000D02*
D03*
X751000D02*
D03*
X741000Y601000D02*
D03*
X895778Y729052D02*
D03*
X894000Y712000D02*
D03*
X933492Y772180D02*
D03*
X931492Y800180D02*
D03*
X862492Y801180D02*
D03*
X753492Y820180D02*
D03*
X764000Y782000D02*
D03*
X757000Y773000D02*
D03*
X858000Y726000D02*
D03*
X849000Y733000D02*
D03*
X805000Y728000D02*
D03*
X768000Y714000D02*
D03*
X787000Y686000D02*
D03*
X940000Y769000D02*
D03*
X889000Y707000D02*
D03*
X842000Y737000D02*
D03*
X851633Y739828D02*
D03*
X900000Y722000D02*
D03*
Y737000D02*
D03*
X928000Y794000D02*
D03*
X862399Y732317D02*
D03*
X870622Y797766D02*
D03*
X761000Y768000D02*
D03*
X758000Y788000D02*
D03*
X809908Y733502D02*
D03*
X811567Y752943D02*
D03*
X811255Y760061D02*
D03*
X753318Y826541D02*
D03*
X930342Y704750D02*
D03*
X786921Y677756D02*
D03*
X822500Y666000D02*
D03*
X761000Y716000D02*
D03*
X765000Y774000D02*
D03*
X764000Y626000D02*
D03*
X754000D02*
D03*
Y638000D02*
D03*
X868000Y681000D02*
D03*
Y671000D02*
D03*
X778000Y667000D02*
D03*
X856068Y621510D02*
D03*
X736166Y623935D02*
D03*
X764000Y638000D02*
D03*
X734977Y616068D02*
D03*
Y606068D02*
D03*
X950342Y679750D02*
D03*
X950000Y667500D02*
D03*
X950342Y729750D02*
D03*
Y699750D02*
D03*
Y689750D02*
D03*
X940342Y697250D02*
D03*
X892842Y662250D02*
D03*
X910342D02*
D03*
Y649750D02*
D03*
Y637250D02*
D03*
Y624750D02*
D03*
X962842Y637250D02*
D03*
Y647250D02*
D03*
X949832Y650642D02*
D03*
X950015Y634897D02*
D03*
X950381Y617869D02*
D03*
X936649Y605786D02*
D03*
X965000Y585000D02*
D03*
X945000D02*
D03*
X869720Y586750D02*
D03*
X827842Y587250D02*
D03*
X895342Y609750D02*
D03*
X880342D02*
D03*
X850000Y610000D02*
D03*
X815000D02*
D03*
X797842Y609750D02*
D03*
X747842Y584750D02*
D03*
X735000Y585000D02*
D03*
Y595000D02*
D03*
X734000Y647000D02*
D03*
Y663000D02*
D03*
Y677000D02*
D03*
X743271Y665627D02*
D03*
X892500Y675000D02*
D03*
Y685000D02*
D03*
Y695000D02*
D03*
X802500Y667500D02*
D03*
X815000D02*
D03*
X874000Y665000D02*
D03*
X844000Y623000D02*
D03*
X770771Y668127D02*
D03*
X751000Y664000D02*
D03*
X954000Y708000D02*
D03*
X957991Y714176D02*
D03*
X874000Y656000D02*
D03*
X831000Y665000D02*
D03*
X826000Y656000D02*
D03*
X863000Y686000D02*
D03*
X788000Y627000D02*
D03*
X782000D02*
D03*
X795000D02*
D03*
X734000Y630000D02*
D03*
X794916Y618525D02*
D03*
X864993Y625117D02*
D03*
X837500Y625000D02*
D03*
D52*
X803500Y760500D02*
D03*
Y755500D02*
D03*
Y750500D02*
D03*
X821500D02*
D03*
Y755500D02*
D03*
Y760500D02*
D03*
D53*
X805000Y744000D02*
D03*
X810000D02*
D03*
X815000D02*
D03*
X820000D02*
D03*
Y767000D02*
D03*
X815000D02*
D03*
X810000D02*
D03*
X805000D02*
D03*
D54*
X893000Y786750D02*
D03*
Y773250D02*
D03*
D55*
X759000Y632000D02*
D03*
D56*
X744000Y639500D02*
D03*
Y634500D02*
D03*
Y629500D02*
D03*
Y624500D02*
D03*
X774000D02*
D03*
Y629500D02*
D03*
Y634500D02*
D03*
Y639500D02*
D03*
D57*
X857500Y741500D02*
D03*
X862500D02*
D03*
X867500D02*
D03*
X872500D02*
D03*
Y770500D02*
D03*
X867500D02*
D03*
X862500D02*
D03*
X857500D02*
D03*
D58*
X879500Y748500D02*
D03*
Y753500D02*
D03*
Y758500D02*
D03*
Y763500D02*
D03*
X850500D02*
D03*
Y758500D02*
D03*
Y753500D02*
D03*
Y748500D02*
D03*
D59*
X925000Y750950D02*
D03*
X920000D02*
D03*
X915000D02*
D03*
Y767050D02*
D03*
X920000D02*
D03*
X925000D02*
D03*
M02*
