G04*
G04 #@! TF.GenerationSoftware,Altium Limited,Altium Designer,24.4.1 (13)*
G04*
G04 Layer_Color=8421504*
%FSLAX44Y44*%
%MOMM*%
G71*
G04*
G04 #@! TF.SameCoordinates,CC372D61-D2D5-4D84-A055-2445D59649BF*
G04*
G04*
G04 #@! TF.FilePolarity,Positive*
G04*
G01*
G75*
%ADD15R,0.7000X0.7000*%
%ADD16R,1.5000X0.9000*%
%ADD17R,1.0500X0.5500*%
%ADD18R,0.6000X1.5000*%
%ADD19R,0.3000X1.5000*%
%ADD20R,0.6000X0.7000*%
%ADD21R,0.7000X0.6000*%
%ADD22R,0.6500X1.0500*%
%ADD23R,0.2000X0.6000*%
%ADD24R,0.9900X0.3500*%
D15*
X847000Y754000D02*
D03*
X836000D02*
D03*
X825000D02*
D03*
Y765000D02*
D03*
Y776000D02*
D03*
X836000D02*
D03*
X847000D02*
D03*
Y765000D02*
D03*
X836000D02*
D03*
D16*
X913900Y827000D02*
D03*
Y812000D02*
D03*
Y797000D02*
D03*
Y782000D02*
D03*
Y767000D02*
D03*
Y752000D02*
D03*
Y737000D02*
D03*
Y722000D02*
D03*
Y707000D02*
D03*
X738900D02*
D03*
Y722000D02*
D03*
Y737000D02*
D03*
Y752000D02*
D03*
Y767000D02*
D03*
Y782000D02*
D03*
Y797000D02*
D03*
Y812000D02*
D03*
Y827000D02*
D03*
D17*
X880500Y671500D02*
D03*
Y681000D02*
D03*
Y690500D02*
D03*
X905500D02*
D03*
Y681000D02*
D03*
Y671500D02*
D03*
D18*
X826000Y638500D02*
D03*
X818000D02*
D03*
X882000D02*
D03*
X874000D02*
D03*
D19*
X832500D02*
D03*
X837500D02*
D03*
X842500D02*
D03*
X867500D02*
D03*
X862500D02*
D03*
X857500D02*
D03*
X852500D02*
D03*
X847500D02*
D03*
D20*
X766500Y676500D02*
D03*
X776500D02*
D03*
X772000Y618000D02*
D03*
X782000D02*
D03*
X945000Y740000D02*
D03*
X955000D02*
D03*
X945000Y752500D02*
D03*
X955000D02*
D03*
X744500Y676500D02*
D03*
X754500D02*
D03*
X955000Y607500D02*
D03*
X945000D02*
D03*
X808000Y677000D02*
D03*
X798000D02*
D03*
X777000Y637000D02*
D03*
X787000D02*
D03*
D21*
X744500Y646500D02*
D03*
Y656500D02*
D03*
Y634500D02*
D03*
Y624500D02*
D03*
X753000Y602000D02*
D03*
Y612000D02*
D03*
X763000Y602000D02*
D03*
Y612000D02*
D03*
D22*
X963250Y820750D02*
D03*
Y779250D02*
D03*
X941750Y820750D02*
D03*
Y779250D02*
D03*
X960750Y725750D02*
D03*
Y684250D02*
D03*
X939250Y725750D02*
D03*
Y684250D02*
D03*
Y621250D02*
D03*
Y662750D02*
D03*
X960750Y621250D02*
D03*
Y662750D02*
D03*
D23*
X789000Y659500D02*
D03*
X785000D02*
D03*
X781000D02*
D03*
Y646500D02*
D03*
X785000D02*
D03*
X789000D02*
D03*
D24*
X785000Y653000D02*
D03*
M02*
