G04*
G04 #@! TF.GenerationSoftware,Altium Limited,Altium Designer,24.4.1 (13)*
G04*
G04 Layer_Color=128*
%FSLAX44Y44*%
%MOMM*%
G71*
G04*
G04 #@! TF.SameCoordinates,CC372D61-D2D5-4D84-A055-2445D59649BF*
G04*
G04*
G04 #@! TF.FilePolarity,Positive*
G04*
G01*
G75*
%ADD20R,0.6000X0.7000*%
%ADD21R,0.7000X0.6000*%
%ADD52R,0.6000X0.3000*%
%ADD53R,0.3000X0.6000*%
%ADD55R,1.5500X1.7500*%
%ADD56R,0.8000X0.3000*%
%ADD57R,0.3000X0.8000*%
%ADD58R,0.8000X0.3000*%
%ADD59R,0.3000X0.9900*%
D20*
X764000Y813000D02*
D03*
X774000D02*
D03*
X821000Y733000D02*
D03*
X831000D02*
D03*
X821000Y723000D02*
D03*
X831000D02*
D03*
X821000Y713000D02*
D03*
X831000D02*
D03*
X764000Y825000D02*
D03*
X774000D02*
D03*
X744000Y655000D02*
D03*
X754000D02*
D03*
X874000Y730000D02*
D03*
X884000D02*
D03*
X766000Y612000D02*
D03*
X756000D02*
D03*
X775000Y655000D02*
D03*
X765000D02*
D03*
X804000Y657000D02*
D03*
X814000D02*
D03*
D21*
X785000Y748000D02*
D03*
Y758000D02*
D03*
X881000Y798000D02*
D03*
Y788000D02*
D03*
X773000Y758000D02*
D03*
Y748000D02*
D03*
X761000Y758000D02*
D03*
Y748000D02*
D03*
X821000Y638000D02*
D03*
Y648000D02*
D03*
X776000Y595000D02*
D03*
Y605000D02*
D03*
X787000Y595000D02*
D03*
Y605000D02*
D03*
X790000Y647000D02*
D03*
Y637000D02*
D03*
X789000Y656000D02*
D03*
Y666000D02*
D03*
X831000Y648000D02*
D03*
Y638000D02*
D03*
X865000Y605000D02*
D03*
Y615000D02*
D03*
X837500Y605000D02*
D03*
Y615000D02*
D03*
D52*
X803500Y760500D02*
D03*
Y755500D02*
D03*
Y750500D02*
D03*
X821500D02*
D03*
Y755500D02*
D03*
Y760500D02*
D03*
D53*
X805000Y744000D02*
D03*
X810000D02*
D03*
X815000D02*
D03*
X820000D02*
D03*
Y767000D02*
D03*
X815000D02*
D03*
X810000D02*
D03*
X805000D02*
D03*
D55*
X759000Y632000D02*
D03*
D56*
X744000Y639500D02*
D03*
Y634500D02*
D03*
Y629500D02*
D03*
Y624500D02*
D03*
X774000D02*
D03*
Y629500D02*
D03*
Y634500D02*
D03*
Y639500D02*
D03*
D57*
X857500Y741500D02*
D03*
X862500D02*
D03*
X867500D02*
D03*
X872500D02*
D03*
Y770500D02*
D03*
X867500D02*
D03*
X862500D02*
D03*
X857500D02*
D03*
D58*
X879500Y748500D02*
D03*
Y753500D02*
D03*
Y758500D02*
D03*
Y763500D02*
D03*
X850500D02*
D03*
Y758500D02*
D03*
Y753500D02*
D03*
Y748500D02*
D03*
D59*
X925000Y750950D02*
D03*
X920000D02*
D03*
X915000D02*
D03*
Y767050D02*
D03*
X920000D02*
D03*
X925000D02*
D03*
M02*
