G04*
G04 #@! TF.GenerationSoftware,Altium Limited,Altium Designer,24.4.1 (13)*
G04*
G04 Layer_Color=16711935*
%FSLAX44Y44*%
%MOMM*%
G71*
G04*
G04 #@! TF.SameCoordinates,CC372D61-D2D5-4D84-A055-2445D59649BF*
G04*
G04*
G04 #@! TF.FilePolarity,Positive*
G04*
G01*
G75*
%ADD11C,0.2000*%
%ADD12C,0.1500*%
%ADD13C,0.3000*%
%ADD14C,0.1750*%
%ADD68C,0.1000*%
D11*
X800000Y770500D02*
X825000D01*
Y740500D02*
Y770500D01*
X800000Y740500D02*
X825000D01*
X800000D02*
Y770500D01*
X845000Y776000D02*
X867500D01*
X885000Y736000D02*
Y776000D01*
X867500D02*
X885000D01*
X852500Y736000D02*
X885000D01*
X845000Y743500D02*
X852500Y736000D01*
X845000Y743500D02*
Y776000D01*
X932500Y770000D02*
Y830000D01*
X972500D01*
Y770000D02*
Y830000D01*
X932500Y770000D02*
X972500D01*
X930000Y675000D02*
Y735000D01*
X970000D01*
Y675000D02*
Y735000D01*
X930000Y675000D02*
X970000D01*
Y612000D02*
Y672000D01*
X930000Y612000D02*
X970000D01*
X930000D02*
Y672000D01*
X970000D01*
X912000Y765000D02*
X928000D01*
X912000Y753000D02*
Y765000D01*
Y753000D02*
X928000D01*
Y765000D01*
D12*
X953332Y648665D02*
X954998Y650331D01*
Y653663D01*
X953332Y655329D01*
X951666D01*
X950000Y653663D01*
Y650331D01*
X948334Y648665D01*
X946668D01*
X945002Y650331D01*
Y653663D01*
X946668Y655329D01*
X954998Y645332D02*
X945002D01*
X948334Y642000D01*
X945002Y638668D01*
X954998D01*
X953332Y635336D02*
X954998Y633669D01*
Y630337D01*
X953332Y628671D01*
X951666D01*
X950000Y630337D01*
Y632003D01*
Y630337D01*
X948334Y628671D01*
X946668D01*
X945002Y630337D01*
Y633669D01*
X946668Y635336D01*
X846668Y613332D02*
X848334Y614998D01*
X851666D01*
X853332Y613332D01*
Y611666D01*
X851666Y610000D01*
X850000D01*
X851666D01*
X853332Y608334D01*
Y606668D01*
X851666Y605002D01*
X848334D01*
X846668Y606668D01*
X946668Y698335D02*
X945002Y696669D01*
Y693337D01*
X946668Y691671D01*
X948334D01*
X950000Y693337D01*
Y696669D01*
X951666Y698335D01*
X953332D01*
X954998Y696669D01*
Y693337D01*
X953332Y691671D01*
X945002Y701668D02*
X954998D01*
X951666Y705000D01*
X954998Y708332D01*
X945002D01*
X954998Y718329D02*
Y711665D01*
X948334Y718329D01*
X946668D01*
X945002Y716663D01*
Y713331D01*
X946668Y711665D01*
X949168Y795002D02*
X947502Y793335D01*
Y790003D01*
X949168Y788337D01*
X950834D01*
X952500Y790003D01*
Y793335D01*
X954166Y795002D01*
X955832D01*
X957498Y793335D01*
Y790003D01*
X955832Y788337D01*
X947502Y798334D02*
X957498D01*
X954166Y801666D01*
X957498Y804998D01*
X947502D01*
X957498Y808331D02*
Y811663D01*
Y809997D01*
X947502D01*
X949168Y808331D01*
X770666Y817602D02*
X772332Y819268D01*
X775665D01*
X777331Y817602D01*
Y810938D01*
X775665Y809272D01*
X772332D01*
X770666Y810938D01*
X767334Y817602D02*
X765668Y819268D01*
X762336D01*
X760669Y817602D01*
Y815936D01*
X762336Y814270D01*
X760669Y812604D01*
Y810938D01*
X762336Y809272D01*
X765668D01*
X767334Y810938D01*
Y812604D01*
X765668Y814270D01*
X767334Y815936D01*
Y817602D01*
X765668Y814270D02*
X762336D01*
X831832Y737602D02*
X833498Y739268D01*
X836830D01*
X838496Y737602D01*
Y730938D01*
X836830Y729272D01*
X833498D01*
X831832Y730938D01*
X828499Y729272D02*
X825167D01*
X826833D01*
Y739268D01*
X828499Y737602D01*
X820169Y739268D02*
X813504D01*
Y737602D01*
X820169Y730938D01*
Y729272D01*
X831832Y727602D02*
X833498Y729268D01*
X836830D01*
X838496Y727602D01*
Y720938D01*
X836830Y719272D01*
X833498D01*
X831832Y720938D01*
X828499Y719272D02*
X825167D01*
X826833D01*
Y729268D01*
X828499Y727602D01*
X813504Y729268D02*
X820169D01*
Y724270D01*
X816836Y725936D01*
X815170D01*
X813504Y724270D01*
Y720938D01*
X815170Y719272D01*
X818502D01*
X820169Y720938D01*
X831832Y717602D02*
X833498Y719268D01*
X836830D01*
X838496Y717602D01*
Y710938D01*
X836830Y709272D01*
X833498D01*
X831832Y710938D01*
X828499Y709272D02*
X825167D01*
X826833D01*
Y719268D01*
X828499Y717602D01*
X813504Y719268D02*
X816836Y717602D01*
X820169Y714270D01*
Y710938D01*
X818502Y709272D01*
X815170D01*
X813504Y710938D01*
Y712604D01*
X815170Y714270D01*
X820169D01*
X789998Y761331D02*
X780002D01*
Y756332D01*
X781668Y754666D01*
X785000D01*
X786666Y756332D01*
Y761331D01*
Y757998D02*
X789998Y754666D01*
Y744669D02*
Y751334D01*
X783334Y744669D01*
X781668D01*
X780002Y746336D01*
Y749668D01*
X781668Y751334D01*
X770666Y829602D02*
X772332Y831268D01*
X775665D01*
X777331Y829602D01*
Y822938D01*
X775665Y821272D01*
X772332D01*
X770666Y822938D01*
X767334Y831268D02*
X760669D01*
Y829602D01*
X767334Y822938D01*
Y821272D01*
X876398Y798831D02*
X874732Y800498D01*
Y803830D01*
X876398Y805496D01*
X883062D01*
X884728Y803830D01*
Y800498D01*
X883062Y798831D01*
X884728Y795499D02*
Y792167D01*
Y793833D01*
X874732D01*
X876398Y795499D01*
Y787169D02*
X874732Y785502D01*
Y782170D01*
X876398Y780504D01*
X878064D01*
X879730Y782170D01*
Y783836D01*
Y782170D01*
X881396Y780504D01*
X883062D01*
X884728Y782170D01*
Y785502D01*
X883062Y787169D01*
X784398Y667664D02*
X782732Y669331D01*
Y672663D01*
X784398Y674329D01*
X791062D01*
X792728Y672663D01*
Y669331D01*
X791062Y667664D01*
X784398Y664332D02*
X782732Y662666D01*
Y659334D01*
X784398Y657668D01*
X786064D01*
X787730Y659334D01*
Y661000D01*
Y659334D01*
X789396Y657668D01*
X791062D01*
X792728Y659334D01*
Y662666D01*
X791062Y664332D01*
X792728Y647671D02*
Y654335D01*
X786064Y647671D01*
X784398D01*
X782732Y649337D01*
Y652669D01*
X784398Y654335D01*
X777998Y765496D02*
X768002D01*
Y760498D01*
X769668Y758831D01*
X773000D01*
X774666Y760498D01*
Y765496D01*
Y762164D02*
X777998Y758831D01*
Y755499D02*
Y752167D01*
Y753833D01*
X768002D01*
X769668Y755499D01*
Y747169D02*
X768002Y745502D01*
Y742170D01*
X769668Y740504D01*
X771334D01*
X773000Y742170D01*
Y743836D01*
Y742170D01*
X774666Y740504D01*
X776332D01*
X777998Y742170D01*
Y745502D01*
X776332Y747169D01*
X765998Y765496D02*
X756002D01*
Y760498D01*
X757668Y758831D01*
X761000D01*
X762666Y760498D01*
Y765496D01*
Y762164D02*
X765998Y758831D01*
Y755499D02*
Y752167D01*
Y753833D01*
X756002D01*
X757668Y755499D01*
X765998Y742170D02*
X756002D01*
X761000Y747169D01*
Y740504D01*
X943335Y612102D02*
X941669Y613768D01*
X938337D01*
X936671Y612102D01*
Y605438D01*
X938337Y603772D01*
X941669D01*
X943335Y605438D01*
X953332Y603772D02*
X946668D01*
X953332Y610436D01*
Y612102D01*
X951666Y613768D01*
X948334D01*
X946668Y612102D01*
X956665D02*
X958331Y613768D01*
X961663D01*
X963329Y612102D01*
Y605438D01*
X961663Y603772D01*
X958331D01*
X956665Y605438D01*
Y612102D01*
X778165Y670232D02*
Y680228D01*
X773166D01*
X771500Y678562D01*
Y671898D01*
X773166Y670232D01*
X778165D01*
X768168Y680228D02*
X764836D01*
X766502D01*
Y670232D01*
X768168Y671898D01*
X825602Y636335D02*
X827268Y634669D01*
Y631337D01*
X825602Y629671D01*
X818938D01*
X817272Y631337D01*
Y634669D01*
X818938Y636335D01*
X817272Y646332D02*
Y639668D01*
X823936Y646332D01*
X825602D01*
X827268Y644666D01*
Y641334D01*
X825602Y639668D01*
X827268Y656329D02*
Y649665D01*
X822270D01*
X823936Y652997D01*
Y654663D01*
X822270Y656329D01*
X818938D01*
X817272Y654663D01*
Y651331D01*
X818938Y649665D01*
X748398Y600336D02*
X746732Y598669D01*
Y595337D01*
X748398Y593671D01*
X755062D01*
X756728Y595337D01*
Y598669D01*
X755062Y600336D01*
X748398Y603668D02*
X746732Y605334D01*
Y608666D01*
X748398Y610332D01*
X750064D01*
X751730Y608666D01*
Y607000D01*
Y608666D01*
X753396Y610332D01*
X755062D01*
X756728Y608666D01*
Y605334D01*
X755062Y603668D01*
X746732Y613665D02*
Y620329D01*
X748398D01*
X755062Y613665D01*
X756728D01*
X750768Y659831D02*
X740772D01*
Y654832D01*
X742438Y653166D01*
X749102D01*
X750768Y654832D01*
Y659831D01*
X740772Y643169D02*
Y649834D01*
X747436Y643169D01*
X749102D01*
X750768Y644835D01*
Y648168D01*
X749102Y649834D01*
X739502Y637831D02*
X749498D01*
Y632832D01*
X747832Y631166D01*
X744500D01*
X742834Y632832D01*
Y637831D01*
Y634498D02*
X739502Y631166D01*
X749498Y621169D02*
X747832Y624502D01*
X744500Y627834D01*
X741168D01*
X739502Y626168D01*
Y622835D01*
X741168Y621169D01*
X742834D01*
X744500Y622835D01*
Y627834D01*
X740669Y659998D02*
Y650002D01*
X745668D01*
X747334Y651668D01*
Y655000D01*
X745668Y656666D01*
X740669D01*
X744002D02*
X747334Y659998D01*
X757331Y650002D02*
X750666D01*
Y655000D01*
X753998Y653334D01*
X755665D01*
X757331Y655000D01*
Y658332D01*
X755665Y659998D01*
X752332D01*
X750666Y658332D01*
X780602Y593335D02*
X782268Y591669D01*
Y588337D01*
X780602Y586671D01*
X773938D01*
X772272Y588337D01*
Y591669D01*
X773938Y593335D01*
X772272Y601666D02*
X782268D01*
X777270Y596668D01*
Y603332D01*
X772272Y611663D02*
X782268D01*
X777270Y606665D01*
Y613329D01*
X791602Y593335D02*
X793268Y591669D01*
Y588337D01*
X791602Y586671D01*
X784938D01*
X783272Y588337D01*
Y591669D01*
X784938Y593335D01*
X783272Y601666D02*
X793268D01*
X788270Y596668D01*
Y603332D01*
X783272Y613329D02*
Y606665D01*
X789936Y613329D01*
X791602D01*
X793268Y611663D01*
Y608331D01*
X791602Y606665D01*
X758398Y600335D02*
X756732Y598669D01*
Y595337D01*
X758398Y593671D01*
X765062D01*
X766728Y595337D01*
Y598669D01*
X765062Y600335D01*
X758398Y603668D02*
X756732Y605334D01*
Y608666D01*
X758398Y610332D01*
X760064D01*
X761730Y608666D01*
Y607000D01*
Y608666D01*
X763396Y610332D01*
X765062D01*
X766728Y608666D01*
Y605334D01*
X765062Y603668D01*
X756732Y620329D02*
Y613665D01*
X761730D01*
X760064Y616997D01*
Y618663D01*
X761730Y620329D01*
X765062D01*
X766728Y618663D01*
Y615331D01*
X765062Y613665D01*
X770335Y622998D02*
X763671D01*
Y618000D01*
X767003D01*
X763671D01*
Y613002D01*
X773668Y622998D02*
Y613002D01*
X778666D01*
X780332Y614668D01*
Y616334D01*
X778666Y618000D01*
X773668D01*
X778666D01*
X780332Y619666D01*
Y621332D01*
X778666Y622998D01*
X773668D01*
X790329Y613002D02*
X783664D01*
X790329Y619666D01*
Y621332D01*
X788663Y622998D01*
X785331D01*
X783664Y621332D01*
X885665Y734602D02*
X887331Y736268D01*
X890663D01*
X892329Y734602D01*
Y727938D01*
X890663Y726272D01*
X887331D01*
X885665Y727938D01*
X875668Y726272D02*
X882332D01*
X875668Y732936D01*
Y734602D01*
X877334Y736268D01*
X880666D01*
X882332Y734602D01*
X872336D02*
X870669Y736268D01*
X867337D01*
X865671Y734602D01*
Y732936D01*
X867337Y731270D01*
X869003D01*
X867337D01*
X865671Y729604D01*
Y727938D01*
X867337Y726272D01*
X870669D01*
X872336Y727938D01*
X756002Y607398D02*
X754335Y605732D01*
X751003D01*
X749337Y607398D01*
Y614062D01*
X751003Y615728D01*
X754335D01*
X756002Y614062D01*
X765998Y615728D02*
X759334D01*
X765998Y609064D01*
Y607398D01*
X764332Y605732D01*
X761000D01*
X759334Y607398D01*
X769331Y615728D02*
X772663D01*
X770997D01*
Y605732D01*
X769331Y607398D01*
X794602Y635336D02*
X796268Y633669D01*
Y630337D01*
X794602Y628671D01*
X787938D01*
X786272Y630337D01*
Y633669D01*
X787938Y635336D01*
X786272Y645332D02*
Y638668D01*
X792936Y645332D01*
X794602D01*
X796268Y643666D01*
Y640334D01*
X794602Y638668D01*
X786272Y655329D02*
Y648664D01*
X792936Y655329D01*
X794602D01*
X796268Y653663D01*
Y650331D01*
X794602Y648664D01*
X763335Y650398D02*
X761669Y648732D01*
X758337D01*
X756671Y650398D01*
Y657062D01*
X758337Y658728D01*
X761669D01*
X763335Y657062D01*
X766668Y650398D02*
X768334Y648732D01*
X771666D01*
X773332Y650398D01*
Y652064D01*
X771666Y653730D01*
X770000D01*
X771666D01*
X773332Y655396D01*
Y657062D01*
X771666Y658728D01*
X768334D01*
X766668Y657062D01*
X781663Y658728D02*
Y648732D01*
X776665Y653730D01*
X783329D01*
X835602Y636335D02*
X837268Y634669D01*
Y631337D01*
X835602Y629671D01*
X828938D01*
X827272Y631337D01*
Y634669D01*
X828938Y636335D01*
X827272Y646332D02*
Y639668D01*
X833936Y646332D01*
X835602D01*
X837268Y644666D01*
Y641334D01*
X835602Y639668D01*
X837268Y649665D02*
Y656329D01*
X835602D01*
X828938Y649665D01*
X827272D01*
X958331Y744998D02*
Y735002D01*
X953332D01*
X951666Y736668D01*
Y740000D01*
X953332Y741666D01*
X958331D01*
X954998D02*
X951666Y744998D01*
X948334Y736668D02*
X946668Y735002D01*
X943335D01*
X941669Y736668D01*
Y738334D01*
X943335Y740000D01*
X945002D01*
X943335D01*
X941669Y741666D01*
Y743332D01*
X943335Y744998D01*
X946668D01*
X948334Y743332D01*
X955832Y747898D02*
X957498Y746232D01*
X960830D01*
X962496Y747898D01*
Y754562D01*
X960830Y756228D01*
X957498D01*
X955832Y754562D01*
X952499Y756228D02*
X949167D01*
X950833D01*
Y746232D01*
X952499Y747898D01*
X939170Y756228D02*
Y746232D01*
X944168Y751230D01*
X937504D01*
X757831Y681498D02*
Y671502D01*
X752832D01*
X751166Y673168D01*
Y676500D01*
X752832Y678166D01*
X757831D01*
X754498D02*
X751166Y681498D01*
X742835D02*
Y671502D01*
X747834Y676500D01*
X741169D01*
X813998Y661998D02*
X820663D01*
Y657000D01*
X817331D01*
X820663D01*
Y652002D01*
X810666Y661998D02*
Y652002D01*
X805668D01*
X804002Y653668D01*
Y655334D01*
X805668Y657000D01*
X810666D01*
X805668D01*
X804002Y658666D01*
Y660332D01*
X805668Y661998D01*
X810666D01*
X800669Y652002D02*
X797337D01*
X799003D01*
Y661998D01*
X800669Y660332D01*
X869998Y618331D02*
X860002D01*
Y613332D01*
X861668Y611666D01*
X865000D01*
X866666Y613332D01*
Y618331D01*
Y614998D02*
X869998Y611666D01*
X861668Y608334D02*
X860002Y606668D01*
Y603335D01*
X861668Y601669D01*
X863334D01*
X865000Y603335D01*
X866666Y601669D01*
X868332D01*
X869998Y603335D01*
Y606668D01*
X868332Y608334D01*
X866666D01*
X865000Y606668D01*
X863334Y608334D01*
X861668D01*
X865000Y606668D02*
Y603335D01*
X842498Y618331D02*
X832502D01*
Y613332D01*
X834168Y611666D01*
X837500D01*
X839166Y613332D01*
Y618331D01*
Y614998D02*
X842498Y611666D01*
X832502Y608334D02*
Y601669D01*
X834168D01*
X840832Y608334D01*
X842498D01*
X808831Y672398D02*
X810498Y670732D01*
X813830D01*
X815496Y672398D01*
Y679062D01*
X813830Y680728D01*
X810498D01*
X808831Y679062D01*
X805499Y680728D02*
X802167D01*
X803833D01*
Y670732D01*
X805499Y672398D01*
X797169Y679062D02*
X795502Y680728D01*
X792170D01*
X790504Y679062D01*
Y672398D01*
X792170Y670732D01*
X795502D01*
X797169Y672398D01*
Y674064D01*
X795502Y675730D01*
X790504D01*
X776169Y641602D02*
X774502Y643268D01*
X771170D01*
X769504Y641602D01*
Y634938D01*
X771170Y633272D01*
X774502D01*
X776169Y634938D01*
X779501Y633272D02*
X782833D01*
X781167D01*
Y643268D01*
X779501Y641602D01*
X787831D02*
X789498Y643268D01*
X792830D01*
X794496Y641602D01*
Y639936D01*
X792830Y638270D01*
X794496Y636604D01*
Y634938D01*
X792830Y633272D01*
X789498D01*
X787831Y634938D01*
Y636604D01*
X789498Y638270D01*
X787831Y639936D01*
Y641602D01*
X789498Y638270D02*
X792830D01*
D13*
X902500Y560000D02*
Y642500D01*
X895000Y650000D02*
X902500Y642500D01*
X805000Y650000D02*
X895000D01*
X797500Y642500D02*
X805000Y650000D01*
X797500Y637500D02*
Y642500D01*
Y560000D02*
X902500D01*
X797500D02*
Y637500D01*
D14*
X780500Y806000D02*
Y820000D01*
X757500D02*
X780500D01*
X757500Y806000D02*
Y820000D01*
Y806000D02*
X780500D01*
X837500Y726000D02*
Y740000D01*
X814500D02*
X837500D01*
X814500Y726000D02*
Y740000D01*
Y726000D02*
X837500D01*
Y716000D02*
Y730000D01*
X814500D02*
X837500D01*
X814500Y716000D02*
Y730000D01*
Y716000D02*
X837500D01*
Y706000D02*
Y720000D01*
X814500D02*
X837500D01*
X814500Y706000D02*
Y720000D01*
Y706000D02*
X837500D01*
X778000Y764500D02*
X792000D01*
X778000Y741500D02*
Y764500D01*
Y741500D02*
X792000D01*
Y764500D01*
X780500Y818000D02*
Y832000D01*
X757500D02*
X780500D01*
X757500Y818000D02*
Y832000D01*
Y818000D02*
X780500D01*
X888000Y781500D02*
Y804500D01*
X874000Y781500D02*
X888000D01*
X874000D02*
Y804500D01*
X888000D01*
X780000Y741500D02*
Y764500D01*
X766000Y741500D02*
X780000D01*
X766000D02*
Y764500D01*
X780000D01*
X768000Y741500D02*
Y764500D01*
X754000Y741500D02*
X768000D01*
X754000D02*
Y764500D01*
X768000D01*
X783000Y669500D02*
Y683500D01*
X760000Y669500D02*
X783000D01*
X760000D02*
Y683500D01*
X783000D01*
X814000Y631500D02*
Y654500D01*
X828000D01*
Y631500D02*
Y654500D01*
X814000Y631500D02*
X828000D01*
X737500Y663000D02*
X751500D01*
Y640000D02*
Y663000D01*
X737500Y640000D02*
X751500D01*
X737500D02*
Y663000D01*
Y618000D02*
Y641000D01*
Y618000D02*
X751500D01*
Y641000D01*
X737500D02*
X751500D01*
X737500Y662000D02*
X760500D01*
Y648000D02*
Y662000D01*
X737500Y648000D02*
X760500D01*
X737500D02*
Y662000D01*
X769000Y588500D02*
Y611500D01*
X783000D01*
Y588500D02*
Y611500D01*
X769000Y588500D02*
X783000D01*
X780000D02*
Y611500D01*
X794000D01*
Y588500D02*
Y611500D01*
X780000Y588500D02*
X794000D01*
X760000Y595500D02*
Y618500D01*
X746000D02*
X760000D01*
X746000Y595500D02*
Y618500D01*
Y595500D02*
X760000D01*
X770000D02*
Y618500D01*
X756000D02*
X770000D01*
X756000Y595500D02*
Y618500D01*
Y595500D02*
X770000D01*
X765500Y611000D02*
X788500D01*
Y625000D01*
X765500D02*
X788500D01*
X765500Y611000D02*
Y625000D01*
X890500Y723000D02*
Y737000D01*
X867500D02*
X890500D01*
X867500Y723000D02*
Y737000D01*
Y723000D02*
X890500D01*
X749500Y605000D02*
Y619000D01*
Y605000D02*
X772500D01*
Y619000D01*
X749500D02*
X772500D01*
X783000Y630500D02*
X797000D01*
Y653500D01*
X783000D02*
X797000D01*
X783000Y630500D02*
Y653500D01*
X782000Y672500D02*
X796000D01*
X782000Y649500D02*
Y672500D01*
Y649500D02*
X796000D01*
Y672500D01*
X758500Y648000D02*
Y662000D01*
Y648000D02*
X781500D01*
Y662000D01*
X758500D02*
X781500D01*
X824000Y631500D02*
X838000D01*
Y654500D01*
X824000D02*
X838000D01*
X824000Y631500D02*
Y654500D01*
X961500Y733000D02*
Y747000D01*
X938500Y733000D02*
X961500D01*
X938500D02*
Y747000D01*
X961500D01*
Y745500D02*
Y759500D01*
X938500Y745500D02*
X961500D01*
X938500D02*
Y759500D01*
X961500D01*
X761000Y669500D02*
Y683500D01*
X738000Y669500D02*
X761000D01*
X738000D02*
Y683500D01*
X761000D01*
X938500Y600500D02*
Y614500D01*
X961500D01*
Y600500D02*
Y614500D01*
X938500Y600500D02*
X961500D01*
X820500Y650000D02*
Y664000D01*
X797500D02*
X820500D01*
X797500Y650000D02*
Y664000D01*
Y650000D02*
X820500D01*
X858000Y621500D02*
X872000D01*
X858000Y598500D02*
Y621500D01*
Y598500D02*
X872000D01*
Y621500D01*
X830500D02*
X844500D01*
X830500Y598500D02*
Y621500D01*
Y598500D02*
X844500D01*
Y621500D01*
X791500Y684000D02*
X814500D01*
X791500Y670000D02*
Y684000D01*
Y670000D02*
X814500D01*
Y684000D01*
X770500Y630000D02*
X793500D01*
Y644000D01*
X770500D02*
X793500D01*
X770500Y630000D02*
Y644000D01*
D68*
X766500Y642000D02*
X774000Y634500D01*
Y622000D02*
Y642000D01*
X744000Y622000D02*
X774000D01*
X744000D02*
Y642000D01*
X774000D01*
X891500Y666500D02*
X901000Y676000D01*
Y666500D02*
Y695500D01*
X885000D02*
X901000D01*
X885000Y666500D02*
Y695500D01*
Y666500D02*
X901000D01*
X791000Y647000D02*
Y659000D01*
X779000Y647000D02*
X791000D01*
X779000D02*
Y659000D01*
X791000D01*
X788000D02*
X791000Y656000D01*
X787166Y666500D02*
X783834D01*
X785500Y664834D02*
Y668166D01*
X754500Y667166D02*
Y663834D01*
X756166Y665500D02*
X752834D01*
M02*
