G04*
G04 #@! TF.GenerationSoftware,Altium Limited,Altium Designer,24.4.1 (13)*
G04*
G04 Layer_Color=16711935*
%FSLAX44Y44*%
%MOMM*%
G71*
G04*
G04 #@! TF.SameCoordinates,CC372D61-D2D5-4D84-A055-2445D59649BF*
G04*
G04*
G04 #@! TF.FilePolarity,Negative*
G04*
G01*
G75*
%ADD28R,0.7524X0.7524*%
%ADD32R,0.7524X0.8524*%
%ADD33R,0.8524X0.7524*%
%ADD35R,2.1524X2.1524*%
%ADD38O,1.1000X2.3000*%
%ADD39O,1.1000X2.0000*%
%ADD60R,0.7524X0.4524*%
%ADD61R,0.4524X0.7524*%
%ADD62R,1.1524X1.0524*%
%ADD63R,1.7024X1.9024*%
%ADD64R,0.9524X0.4524*%
%ADD65R,0.4000X0.9000*%
%ADD66R,0.9000X0.4000*%
%ADD67R,0.4524X1.1424*%
D28*
X907000Y772000D02*
D03*
Y782000D02*
D03*
X761000Y735000D02*
D03*
Y725000D02*
D03*
D32*
X764000Y813000D02*
D03*
X774000D02*
D03*
X821000Y733000D02*
D03*
X831000D02*
D03*
X821000Y723000D02*
D03*
X831000D02*
D03*
X821000Y713000D02*
D03*
X831000D02*
D03*
X764000Y825000D02*
D03*
X774000D02*
D03*
X744000Y655000D02*
D03*
X754000D02*
D03*
X874000Y730000D02*
D03*
X884000D02*
D03*
X766000Y612000D02*
D03*
X756000D02*
D03*
X775000Y655000D02*
D03*
X765000D02*
D03*
X804000Y657000D02*
D03*
X814000D02*
D03*
D33*
X785000Y748000D02*
D03*
Y758000D02*
D03*
X881000Y798000D02*
D03*
Y788000D02*
D03*
X773000Y758000D02*
D03*
Y748000D02*
D03*
X761000Y758000D02*
D03*
Y748000D02*
D03*
X821000Y638000D02*
D03*
Y648000D02*
D03*
X776000Y595000D02*
D03*
Y605000D02*
D03*
X787000Y595000D02*
D03*
Y605000D02*
D03*
X790000Y647000D02*
D03*
Y637000D02*
D03*
X789000Y656000D02*
D03*
Y666000D02*
D03*
X831000Y648000D02*
D03*
Y638000D02*
D03*
X865000Y605000D02*
D03*
Y615000D02*
D03*
X837500Y605000D02*
D03*
Y615000D02*
D03*
D35*
X956000Y750000D02*
D03*
Y773000D02*
D03*
Y819000D02*
D03*
Y796000D02*
D03*
D38*
X806750Y631000D02*
D03*
X893250D02*
D03*
D39*
Y589000D02*
D03*
X806750D02*
D03*
D60*
X803500Y760500D02*
D03*
Y755500D02*
D03*
Y750500D02*
D03*
X821500D02*
D03*
Y755500D02*
D03*
Y760500D02*
D03*
D61*
X805000Y744000D02*
D03*
X810000D02*
D03*
X815000D02*
D03*
X820000D02*
D03*
Y767000D02*
D03*
X815000D02*
D03*
X810000D02*
D03*
X805000D02*
D03*
D62*
X893000Y786750D02*
D03*
Y773250D02*
D03*
D63*
X759000Y632000D02*
D03*
D64*
X744000Y639500D02*
D03*
Y634500D02*
D03*
Y629500D02*
D03*
Y624500D02*
D03*
X774000D02*
D03*
Y629500D02*
D03*
Y634500D02*
D03*
Y639500D02*
D03*
D65*
X857500Y741500D02*
D03*
X862500D02*
D03*
X867500D02*
D03*
X872500D02*
D03*
Y770500D02*
D03*
X867500D02*
D03*
X862500D02*
D03*
X857500D02*
D03*
D66*
X879500Y748500D02*
D03*
Y753500D02*
D03*
Y758500D02*
D03*
Y763500D02*
D03*
X850500D02*
D03*
Y758500D02*
D03*
Y753500D02*
D03*
Y748500D02*
D03*
D67*
X925000Y750950D02*
D03*
X920000D02*
D03*
X915000D02*
D03*
Y767050D02*
D03*
X920000D02*
D03*
X925000D02*
D03*
M02*
