G04*
G04 #@! TF.GenerationSoftware,Altium Limited,Altium Designer,24.4.1 (13)*
G04*
G04 Layer_Color=8388736*
%FSLAX44Y44*%
%MOMM*%
G71*
G04*
G04 #@! TF.SameCoordinates,CC372D61-D2D5-4D84-A055-2445D59649BF*
G04*
G04*
G04 #@! TF.FilePolarity,Negative*
G04*
G01*
G75*
%ADD25R,0.8524X0.8524*%
%ADD26R,1.6524X1.0524*%
%ADD27R,1.2024X0.7024*%
%ADD28R,0.7524X0.7524*%
%ADD29R,0.8800X1.7800*%
%ADD30R,0.7400X1.6400*%
%ADD31R,0.5800X1.7800*%
%ADD32R,0.7524X0.8524*%
%ADD33R,0.8524X0.7524*%
%ADD34R,0.8024X1.2024*%
%ADD35R,2.1524X2.1524*%
%ADD36R,0.3524X0.7524*%
%ADD37R,1.1424X0.5024*%
%ADD38O,1.1000X2.3000*%
%ADD39O,1.1000X2.0000*%
D25*
X847000Y754000D02*
D03*
X836000D02*
D03*
X825000D02*
D03*
Y765000D02*
D03*
Y776000D02*
D03*
X836000D02*
D03*
X847000D02*
D03*
Y765000D02*
D03*
X836000D02*
D03*
D26*
X913900Y827000D02*
D03*
Y812000D02*
D03*
Y797000D02*
D03*
Y782000D02*
D03*
Y767000D02*
D03*
Y752000D02*
D03*
Y737000D02*
D03*
Y722000D02*
D03*
Y707000D02*
D03*
X738900D02*
D03*
Y722000D02*
D03*
Y737000D02*
D03*
Y752000D02*
D03*
Y767000D02*
D03*
Y782000D02*
D03*
Y797000D02*
D03*
Y812000D02*
D03*
Y827000D02*
D03*
D27*
X880500Y671500D02*
D03*
Y681000D02*
D03*
Y690500D02*
D03*
X905500D02*
D03*
Y681000D02*
D03*
Y671500D02*
D03*
D28*
X921000Y681000D02*
D03*
Y691000D02*
D03*
D29*
X826000Y638500D02*
D03*
X874000D02*
D03*
D30*
X818000D02*
D03*
X882000D02*
D03*
D31*
X832500D02*
D03*
X837500D02*
D03*
X842500D02*
D03*
X867500D02*
D03*
X862500D02*
D03*
X857500D02*
D03*
X852500D02*
D03*
X847500D02*
D03*
D32*
X766500Y676500D02*
D03*
X776500D02*
D03*
X772000Y618000D02*
D03*
X782000D02*
D03*
X945000Y740000D02*
D03*
X955000D02*
D03*
X945000Y752500D02*
D03*
X955000D02*
D03*
X744500Y676500D02*
D03*
X754500D02*
D03*
X955000Y607500D02*
D03*
X945000D02*
D03*
X808000Y677000D02*
D03*
X798000D02*
D03*
X777000Y637000D02*
D03*
X787000D02*
D03*
D33*
X744500Y646500D02*
D03*
Y656500D02*
D03*
Y634500D02*
D03*
Y624500D02*
D03*
X753000Y602000D02*
D03*
Y612000D02*
D03*
X763000Y602000D02*
D03*
Y612000D02*
D03*
D34*
X963250Y820750D02*
D03*
Y779250D02*
D03*
X941750Y820750D02*
D03*
Y779250D02*
D03*
X960750Y725750D02*
D03*
Y684250D02*
D03*
X939250Y725750D02*
D03*
Y684250D02*
D03*
Y621250D02*
D03*
Y662750D02*
D03*
X960750Y621250D02*
D03*
Y662750D02*
D03*
D35*
X920000Y598000D02*
D03*
X780000Y598000D02*
D03*
D36*
X789000Y659500D02*
D03*
X785000D02*
D03*
X781000D02*
D03*
Y646500D02*
D03*
X785000D02*
D03*
X789000D02*
D03*
D37*
X785000Y653000D02*
D03*
D38*
X806750Y631000D02*
D03*
X893250D02*
D03*
D39*
Y589000D02*
D03*
X806750D02*
D03*
M02*
